<?xml version="1.0" encoding="UTF-8"?>
<svg width="794px" height="174px" viewBox="0 0 794 174" version="1.1" xmlns="http://www.w3.org/2000/svg" xmlns:xlink="http://www.w3.org/1999/xlink">
    <!-- Generator: Sketch 55.2 (78181) - https://sketchapp.com -->
    <title>SArAh'S</title>
    <desc>Created with Sketch.</desc>
    <g id="Page-1" stroke="none" stroke-width="1" fill="none" fill-rule="evenodd">
        <g id="logo" transform="translate(-101.000000, -341.000000)" fill="#FFFFFF" fill-rule="nonzero">
            <g id="Group" transform="translate(101.000000, 341.000000)">
                <path d="M12.74,84.732 C8.0199764,92.2840378 5.66,100.01296 5.66,107.919 C5.66,116.533043 8.78696873,124.379965 15.041,131.46 C18.4630171,135.47202 22.7994737,138.598989 28.0505,140.841 C33.3015263,143.083011 39.0539687,144.204 45.308,144.204 C51.5620313,144.204 57.1669752,143.024012 62.123,140.664 C72.0350496,135.825976 76.991,127.920055 76.991,116.946 C76.991,112.815979 75.6045139,108.450023 72.8315,103.848 C70.0584861,99.245977 65.8990277,95.1160183 60.353,91.458 L30.263,71.28 C18.5809416,63.9639634 12.74,54.5240578 12.74,42.96 C12.74,41.7799941 12.7989994,40.6000059 12.917,39.42 C13.6250035,30.3339546 17.2534673,22.9295286 23.8025,17.2065 C30.3515327,11.4834714 39.1129451,8.622 50.087,8.622 C56.8130336,8.622 64.9549522,9.2119941 74.513,10.392 L85.487,10.392 L83.186,36.411 L81.593,36.411 C81.4749994,30.2749693 79.115023,25.3485186 74.513,21.6315 C69.910977,17.9144814 63.8340378,16.056 56.282,16.056 C47.077954,16.056 40.4110207,18.8289723 36.281,24.375 C34.27499,27.2070142 33.272,30.2749835 33.272,33.579 C33.272,36.8830165 34.27499,39.6854885 36.281,41.9865 C38.28701,44.2875115 41.4729782,46.7949864 45.839,49.509 L78.938,71.103 C85.6640336,75.4690218 90.9149811,80.6019705 94.691,86.502 C99.1750224,93.4640348 101.417,100.602963 101.417,107.919 C101.417,112.639024 100.44351,117.624474 98.4965,122.8755 C96.5494903,128.126526 93.3635221,132.993978 88.9385,137.478 C84.5134779,141.962022 78.8200348,145.619986 71.858,148.452 C64.8959652,151.284014 57.1965422,152.7 48.7595,152.7 C40.3224578,152.7 32.6820342,151.225015 25.838,148.275 C13.2119369,142.964973 5.18801711,133.702066 1.766,120.486 C1.05799646,117.653986 0.704,114.704015 0.704,111.636 C0.704,101.72395 4.18496519,92.3430442 11.147,83.493 L12.74,84.732 Z M279.855,167.391 C266.992936,173.881032 253.954066,174.943022 240.738,170.577 C226.69593,166.092978 214.601051,156.535073 204.453,141.903 C199.024973,134.114961 194.364019,125.088051 190.47,114.822 L184.806,99.777 L143.034,99.777 L133.653,122.079 C133.062997,123.613008 132.768,124.851995 132.768,125.796 C132.768,126.740005 132.974498,127.772494 133.3875,128.8935 C133.800502,130.014506 134.685493,131.017496 136.0425,131.9025 C137.399507,132.787504 138.903992,133.23 140.556,133.23 L141.972,133.23 L141.972,135 L104.094,135 L104.094,133.23 L105.687,133.23 C108.401014,133.23 111.085487,132.433508 113.7405,130.8405 C116.395513,129.247492 118.607991,126.858016 120.378,123.672 L159.849,33.579 C155.246977,23.1949481 150.350026,16.0560195 145.158,12.162 C140.791978,8.85798348 136.63252,7.206 132.6795,7.206 C128.72648,7.206 125.039017,7.7959941 121.617,8.976 L121.263,7.206 C129.759042,2.83997817 137.900961,0.657 145.689,0.657 C155.365048,0.657 164.037962,4.43296224 171.708,11.985 C179.260038,19.4190372 185.926971,30.1569298 191.709,44.199 L217.374,107.565 C227.050048,131.51912 236.961949,147.979955 247.11,156.948 C251.240021,160.606018 255.487978,163.142993 259.854,164.559 C264.220022,165.975007 267.907485,166.683 270.9165,166.683 C273.925515,166.683 276.845986,166.329004 279.678,165.621 L279.855,167.391 Z M146.043,92.166 L182.151,92.166 L169.761,59.421 C169.170997,57.7689917 168.345005,55.4975145 167.283,52.6065 C166.220995,49.7154855 165.513002,47.6800059 165.159,46.5 L146.043,92.166 Z M297.754,18.888 L284.302,18.888 L284.302,122.079 C284.420001,126.445022 286.307982,129.689989 289.966,131.814 C291.736009,132.758005 293.62399,133.23 295.63,133.23 L297.931,133.23 L297.931,135 L244.123,135 L244.123,133.23 L246.424,133.23 C250.672021,133.23 253.916989,131.401018 256.159,127.743 C257.103005,126.090992 257.633999,124.26201 257.752,122.256 L257.752,24.021 C257.633999,20.9529847 256.483511,18.3275109 254.3005,16.1445 C252.117489,13.9614891 249.492015,12.87 246.424,12.87 L244.123,12.87 L244.123,11.1 L304.834,11.1 C316.280057,11.1 325.95596,13.5779752 333.862,18.534 C337.87402,21.0120124 341.059988,24.4634779 343.42,28.8885 C345.780012,33.3135221 346.96,38.328472 346.96,43.9335 C346.96,49.538528 345.98651,54.7009764 344.0395,59.421 C342.09249,64.1410236 338.847523,68.2709823 334.3045,71.811 C329.761477,75.3510177 324.304032,77.4749965 317.932,78.183 C324.776034,80.4250112 330.793974,85.6169593 335.986,93.759 C348.730064,114.173102 358.169969,126.326981 364.306,130.221 C367.374015,132.109009 371.208977,133.111999 375.811,133.23 L375.811,135 L358.465,135 C348.43495,135 340.057034,133.613514 333.331,130.8405 C326.604966,128.067486 321.118021,123.318034 316.87,116.592 C314.745989,113.169983 312.032017,108.007535 308.728,101.1045 C305.423983,94.2014655 303.241005,89.2750147 302.179,86.325 C298.992984,79.2449646 294.981024,75.2920041 290.143,74.466 L290.143,72.696 L295.63,72.696 C300.940027,72.696 305.63048,71.1030159 309.7015,67.917 C313.77252,64.7309841 316.515993,59.539036 317.932,52.341 C318.404002,49.8629876 318.64,47.9160071 318.64,46.5 C318.64,36.8239516 316.693019,29.8325215 312.799,25.5255 C308.904981,21.2184785 303.890031,19.0060006 297.754,18.888 Z M539.558,167.391 C526.695936,173.881032 513.657066,174.943022 500.441,170.577 C486.39893,166.092978 474.304051,156.535073 464.156,141.903 C458.727973,134.114961 454.067019,125.088051 450.173,114.822 L444.509,99.777 L402.737,99.777 L393.356,122.079 C392.765997,123.613008 392.471,124.851995 392.471,125.796 C392.471,126.740005 392.677498,127.772494 393.0905,128.8935 C393.503502,130.014506 394.388493,131.017496 395.7455,131.9025 C397.102507,132.787504 398.606992,133.23 400.259,133.23 L401.675,133.23 L401.675,135 L363.797,135 L363.797,133.23 L365.39,133.23 C368.104014,133.23 370.788487,132.433508 373.4435,130.8405 C376.098513,129.247492 378.310991,126.858016 380.081,123.672 L419.552,33.579 C414.949977,23.1949481 410.053026,16.0560195 404.861,12.162 C400.494978,8.85798348 396.33552,7.206 392.3825,7.206 C388.42948,7.206 384.742017,7.7959941 381.32,8.976 L380.966,7.206 C389.462042,2.83997817 397.603961,0.657 405.392,0.657 C415.068048,0.657 423.740962,4.43296224 431.411,11.985 C438.963038,19.4190372 445.629971,30.1569298 451.412,44.199 L477.077,107.565 C486.753048,131.51912 496.664949,147.979955 506.813,156.948 C510.943021,160.606018 515.190978,163.142993 519.557,164.559 C523.923022,165.975007 527.610485,166.683 530.6195,166.683 C533.628515,166.683 536.548986,166.329004 539.381,165.621 L539.558,167.391 Z M405.746,92.166 L441.854,92.166 L429.464,59.421 C428.873997,57.7689917 428.048005,55.4975145 426.986,52.6065 C425.923995,49.7154855 425.216002,47.6800059 424.862,46.5 L405.746,92.166 Z M589.494,133.23 C592.562015,133.23 594.921992,132.463008 596.574,130.929 C599.288014,128.214986 600.703999,125.324015 600.822,122.256 L600.822,77.121 L543.474,77.121 L543.474,122.079 C543.474,125.147015 544.594989,127.772489 546.837,129.9555 C549.079011,132.138511 551.733985,133.23 554.802,133.23 L556.926,133.23 L557.103,135 L503.295,135 L503.295,133.23 L505.596,133.23 C508.664015,133.23 511.289489,132.138511 513.4725,129.9555 C515.655511,127.772489 516.805999,125.147015 516.924,122.079 L516.924,23.844 C516.805999,20.7759847 515.655511,18.1800106 513.4725,16.056 C511.289489,13.9319894 508.664015,12.87 505.596,12.87 L503.295,12.87 L503.295,11.1 L557.103,11.1 L556.926,12.87 L554.802,12.87 C551.733985,12.87 549.079011,13.9319894 546.837,16.056 C544.594989,18.1800106 543.474,20.7759847 543.474,23.844 L543.474,69.51 L600.822,69.51 L600.822,23.844 C600.703999,20.7759847 599.553511,18.1800106 597.3705,16.056 C595.187489,13.9319894 592.562015,12.87 589.494,12.87 L587.193,12.87 L587.193,11.1 L641.001,11.1 L641.001,12.87 L638.7,12.87 C635.631985,12.87 632.977011,13.9614891 630.735,16.1445 C628.492989,18.3275109 627.372,20.9529847 627.372,24.021 L627.372,122.079 C627.372,125.147015 628.492989,127.772489 630.735,129.9555 C632.977011,132.138511 635.631985,133.23 638.7,133.23 L641.001,133.23 L641.001,135 L587.193,135 L587.193,133.23 L589.494,133.23 Z M656.422,45.615 C659.726017,35.5849498 661.378,28.2395233 661.378,23.5785 C661.378,18.9174767 661.142002,14.7580183 660.67,11.1 L679.609,8.622 L679.609,11.3655 C679.609,12.7225068 679.343503,14.9644844 678.8125,18.0915 C678.281497,21.2185156 677.308007,24.6994808 675.892,28.5345 C674.475993,32.3695192 672.263515,35.9684832 669.2545,39.3315 C666.245485,42.6945168 662.794019,45.0839929 658.9,46.5 L656.422,45.615 Z M704.765,84.732 C700.044976,92.2840378 697.685,100.01296 697.685,107.919 C697.685,116.533043 700.811969,124.379965 707.066,131.46 C710.488017,135.47202 714.824474,138.598989 720.0755,140.841 C725.326526,143.083011 731.078969,144.204 737.333,144.204 C743.587031,144.204 749.191975,143.024012 754.148,140.664 C764.06005,135.825976 769.016,127.920055 769.016,116.946 C769.016,112.815979 767.629514,108.450023 764.8565,103.848 C762.083486,99.245977 757.924028,95.1160183 752.378,91.458 L722.288,71.28 C710.605942,63.9639634 704.765,54.5240578 704.765,42.96 C704.765,41.7799941 704.823999,40.6000059 704.942,39.42 C705.650004,30.3339546 709.278467,22.9295286 715.8275,17.2065 C722.376533,11.4834714 731.137945,8.622 742.112,8.622 C748.838034,8.622 756.979952,9.2119941 766.538,10.392 L777.512,10.392 L775.211,36.411 L773.618,36.411 C773.499999,30.2749693 771.140023,25.3485186 766.538,21.6315 C761.935977,17.9144814 755.859038,16.056 748.307,16.056 C739.102954,16.056 732.436021,18.8289723 728.306,24.375 C726.29999,27.2070142 725.297,30.2749835 725.297,33.579 C725.297,36.8830165 726.29999,39.6854885 728.306,41.9865 C730.31201,44.2875115 733.497978,46.7949864 737.864,49.509 L770.963,71.103 C777.689034,75.4690218 782.939981,80.6019705 786.716,86.502 C791.200022,93.4640348 793.442,100.602963 793.442,107.919 C793.442,112.639024 792.46851,117.624474 790.5215,122.8755 C788.57449,128.126526 785.388522,132.993978 780.9635,137.478 C776.538478,141.962022 770.845035,145.619986 763.883,148.452 C756.920965,151.284014 749.221542,152.7 740.7845,152.7 C732.347458,152.7 724.707034,151.225015 717.863,148.275 C705.236937,142.964973 697.213017,133.702066 693.791,120.486 C693.082996,117.653986 692.729,114.704015 692.729,111.636 C692.729,101.72395 696.209965,92.3430442 703.172,83.493 L704.765,84.732 Z" id="SArAh'S"></path>
            </g>
        </g>
    </g>
</svg>