<?xml version="1.0" encoding="UTF-8"?>
<svg width="333px" height="326px" viewBox="0 0 333 326" version="1.1" xmlns="http://www.w3.org/2000/svg" xmlns:xlink="http://www.w3.org/1999/xlink">
    <!-- Generator: Sketch 55.2 (78181) - https://sketchapp.com -->
    <title>Group 3</title>
    <desc>Created with Sketch.</desc>
    <g id="Page-1" stroke="none" stroke-width="1" fill="none" fill-rule="evenodd">
        <g id="Artboard" transform="translate(-273.000000, -277.000000)">
            <g id="Group-3" transform="translate(277.000000, 281.000000)">
                <path d="M155.6875,78.28125 L162.71875,78.28125 L162.71875,240 L155.6875,240 L155.6875,78.28125 Z M1,78.28125 L8.03125,78.28125 L8.03125,240 L1,240 L1,78.28125 Z M141.625,78.28125 L148.65625,78.28125 L148.65625,240 L141.625,240 L141.625,78.28125 Z M127.5625,78.28125 L134.59375,78.28125 L134.59375,240 L127.5625,240 L127.5625,78.28125 Z M113.5,78.28125 L120.53125,78.28125 L120.53125,240 L113.5,240 L113.5,176.621094 L50.21875,176.621094 L50.21875,240 L43.1875,240 L43.1875,78.28125 L50.21875,78.28125 L50.21875,141.464844 L113.5,141.464844 L113.5,78.28125 Z M29.125,78.28125 L36.15625,78.28125 L36.15625,240 L29.125,240 L29.125,78.28125 Z M15.0625,78.28125 L22.09375,78.28125 L22.09375,240 L15.0625,240 L15.0625,78.28125 Z M113.5,169.589844 L113.5,162.558594 L50.21875,162.558594 L50.21875,169.589844 L113.5,169.589844 Z M113.5,155.527344 L113.5,148.496094 L50.21875,148.496094 L50.21875,155.527344 L113.5,155.527344 Z M266.605469,141.5625 L254.789062,141.5625 C249.776017,141.5625 246.162771,140.276706 243.949219,137.705078 C241.735666,135.133451 240.628906,131.731792 240.628906,127.5 C240.628906,118.124953 247.627534,113.4375 261.625,113.4375 C274.776107,113.4375 284.671842,115.390605 291.3125,119.296875 L285.648438,123.59375 C281.091123,121.510406 273.083391,120.46875 261.625,120.46875 C256.026014,120.46875 252.266286,121.087233 250.345703,122.324219 C248.425121,123.561204 247.464844,125.286447 247.464844,127.5 C247.464844,129.713553 247.985672,131.438796 249.027344,132.675781 C250.069016,133.912767 251.989569,134.53125 254.789062,134.53125 L266.898438,134.53125 C275.687544,134.53125 283.613897,136.028631 290.677734,139.023438 C297.741572,142.018244 303.552061,146.10349 308.109375,151.279297 C312.666689,156.455104 316.149728,162.412076 318.558594,169.150391 C320.96746,175.888706 322.171875,183.09892 322.171875,190.78125 C322.171875,197.031281 321.292978,202.955701 319.535156,208.554688 C317.777335,214.153674 315.124367,219.296852 311.576172,223.984375 C308.027977,228.671898 303.763697,232.724592 298.783203,236.142578 C293.802709,239.560564 287.87829,242.229808 281.009766,244.150391 C274.141242,246.070973 266.703165,247.03125 258.695312,247.03125 C246.130146,247.03125 234.362685,245.126972 223.392578,241.318359 C212.422471,237.509747 203.291703,232.187534 196,225.351562 L201.664062,221.152344 C208.304721,227.141957 216.621695,231.780583 226.615234,235.068359 C236.608774,238.356136 247.302026,240 258.695312,240 C267.614628,240 275.671188,238.714206 282.865234,236.142578 C290.059281,233.570951 295.983701,230.039085 300.638672,225.546875 C305.293643,221.054665 308.874336,215.846384 311.380859,209.921875 C313.887382,203.997366 315.140625,197.617222 315.140625,190.78125 C315.140625,181.731726 313.317727,173.544958 309.671875,166.220703 C306.026023,158.896448 300.475949,152.955752 293.021484,148.398438 C285.56702,143.841123 276.76177,141.5625 266.605469,141.5625 Z M254.789062,148.59375 L265.921875,148.59375 C279.138087,148.59375 289.47327,152.630168 296.927734,160.703125 C304.382199,168.776082 308.109375,178.802023 308.109375,190.78125 C308.109375,202.95579 303.779991,213.030559 295.121094,221.005859 C286.462196,228.98116 274.320391,232.96875 258.695312,232.96875 C248.278594,232.96875 238.545618,231.536473 229.496094,228.671875 C220.446569,225.807277 212.927113,221.770859 206.9375,216.5625 L212.40625,212.167969 C217.744818,216.52997 224.466756,219.915353 232.572266,222.324219 C240.677775,224.733085 249.38537,225.9375 258.695312,225.9375 C272.43236,225.9375 282.930302,222.649772 290.189453,216.074219 C297.448604,209.498665 301.078125,201.06776 301.078125,190.78125 C301.078125,180.624949 298.034536,172.226596 291.947266,165.585938 C285.859996,158.945279 277.1524,155.625 265.824219,155.625 L254.789062,155.625 C245.283807,155.625 238.154972,153.020859 233.402344,147.8125 C228.649716,142.604141 226.273438,135.833375 226.273438,127.5 C226.273438,119.166625 229.219372,112.395859 235.111328,107.1875 C241.003285,101.979141 249.841087,99.375 261.625,99.375 C269.893271,99.375 277.575485,100.335277 284.671875,102.255859 C291.768265,104.176442 297.627581,106.927065 302.25,110.507812 L296.683594,114.804688 C288.545532,109.205701 276.859451,106.40625 261.625,106.40625 C251.794222,106.40625 244.616559,108.34308 240.091797,112.216797 C235.567035,116.090514 233.304688,121.184864 233.304688,127.5 C233.304688,133.88024 234.981103,138.990866 238.333984,142.832031 C241.686866,146.673196 247.171837,148.59375 254.789062,148.59375 Z M254.789062,162.65625 L265.53125,162.65625 C275.036506,162.65625 282.165341,165.292942 286.917969,170.566406 C291.670597,175.83987 294.046875,182.578084 294.046875,190.78125 C294.046875,199.114625 291.100941,205.885391 285.208984,211.09375 C279.317028,216.302109 270.479226,218.90625 258.695312,218.90625 C250.427042,218.90625 242.728551,217.945973 235.599609,216.025391 C228.470667,214.104808 222.595075,211.354185 217.972656,207.773438 L223.539062,203.476562 C231.677124,209.075549 243.395757,211.875 258.695312,211.875 C268.526091,211.875 275.703753,209.93817 280.228516,206.064453 C284.753278,202.190736 287.015625,197.096386 287.015625,190.78125 C287.015625,184.466114 285.322934,179.371764 281.9375,175.498047 C278.552066,171.62433 273.050819,169.6875 265.433594,169.6875 L254.789062,169.6875 C241.442642,169.6875 231.009803,165.69991 223.490234,157.724609 C215.970666,149.749309 212.210938,139.67454 212.210938,127.5 C212.210938,115.32546 216.540321,105.250691 225.199219,97.2753906 C233.858116,89.3000903 245.999922,85.3125 261.625,85.3125 C272.041719,85.3125 281.758418,86.7447773 290.775391,89.609375 C299.792363,92.4739727 307.295543,96.5103906 313.285156,101.71875 L307.816406,106.113281 C302.477838,101.75128 295.772176,98.3658975 287.699219,95.9570312 C279.626262,93.548165 270.934942,92.34375 261.625,92.34375 C247.887952,92.34375 237.39001,95.6314775 230.130859,102.207031 C222.871708,108.782585 219.242188,117.21349 219.242188,127.5 C219.242188,137.721405 222.302053,146.136035 228.421875,152.744141 C234.541697,159.352247 243.330672,162.65625 254.789062,162.65625 Z M254.789062,176.71875 L265.53125,176.71875 C270.544296,176.71875 274.157541,178.02082 276.371094,180.625 C278.584646,183.22918 279.691406,186.614562 279.691406,190.78125 C279.691406,200.156297 272.692778,204.84375 258.695312,204.84375 C245.479101,204.84375 235.550814,202.890645 228.910156,198.984375 L234.574219,194.6875 C239.131533,196.770844 247.171817,197.8125 258.695312,197.8125 C264.294299,197.8125 268.054027,197.194017 269.974609,195.957031 C271.895192,194.720046 272.855469,192.994803 272.855469,190.78125 C272.855469,188.632802 272.318365,186.923834 271.244141,185.654297 C270.169917,184.384759 268.200535,183.75 265.335938,183.75 L254.789062,183.75 C245.804643,183.75 237.682979,182.285171 230.423828,179.355469 C223.164677,176.425767 217.207706,172.389349 212.552734,167.246094 C207.897763,162.102839 204.333346,156.145867 201.859375,149.375 C199.385404,142.604133 198.148438,135.312539 198.148438,127.5 C198.148438,121.249969 199.027335,115.325549 200.785156,109.726562 C202.542978,104.127576 205.195946,98.9843984 208.744141,94.296875 C212.292335,89.6093516 216.556616,85.5566577 221.537109,82.1386719 C226.517603,78.720686 232.442023,76.0514419 239.310547,74.1308594 C246.179071,72.2102769 253.617147,71.25 261.625,71.25 C274.190167,71.25 285.941352,73.1542778 296.878906,76.9628906 C307.816461,80.7715034 316.930953,86.0937158 324.222656,92.9296875 L318.558594,97.1289062 C311.917936,91.139293 303.617237,86.5006675 293.65625,83.2128906 C283.695263,79.9251138 273.018286,78.28125 261.625,78.28125 C252.705685,78.28125 244.649125,79.5670444 237.455078,82.1386719 C230.261032,84.7102993 224.336612,88.242165 219.681641,92.734375 C215.026669,97.226585 211.445976,102.434866 208.939453,108.359375 C206.43293,114.283884 205.179688,120.664028 205.179688,127.5 C205.179688,136.679733 207.035138,144.94788 210.746094,152.304688 C214.45705,159.661495 220.121056,165.569639 227.738281,170.029297 C235.355507,174.488955 244.372344,176.71875 254.789062,176.71875 Z" id="HS" fill="#FFFFFF" fill-rule="nonzero"></path>
                <g id="Group">
                    <path d="M3,43 L308.109375,43 L323,23.8930873 L308.109375,0 L3,0 C1.34314575,3.04359188e-16 -2.02906125e-16,1.34314575 0,3 L0,40 C2.02906125e-16,41.6568542 1.34314575,43 3,43 Z" id="Path-2" stroke="#FFFFFF" stroke-width="8"></path>
                    <rect id="Rectangle" fill="#FFFFFF" x="0" y="0" width="113" height="43"></rect>
                </g>
                <g id="Group" transform="translate(1.000000, 275.000000)">
                    <path d="M3,43 L308.109375,43 L323,23.8930873 L308.109375,0 L3,0 C1.34314575,3.04359188e-16 -2.02906125e-16,1.34314575 0,3 L0,40 C2.02906125e-16,41.6568542 1.34314575,43 3,43 Z" id="Path-2" stroke="#FFFFFF" stroke-width="8"></path>
                    <rect id="Rectangle" fill="#FFFFFF" x="0" y="0" width="113" height="43"></rect>
                </g>
            </g>
        </g>
    </g>
</svg>