<?xml version="1.0" encoding="UTF-8"?>
<svg width="771px" height="277px" viewBox="0 0 771 277" version="1.1" xmlns="http://www.w3.org/2000/svg" xmlns:xlink="http://www.w3.org/1999/xlink">
    <!-- Generator: Sketch 55.2 (78181) - https://sketchapp.com -->
    <title>Zara's</title>
    <desc>Created with Sketch.</desc>
    <g id="Page-1" stroke="none" stroke-width="1" fill="none" fill-rule="evenodd">
        <g id="logo" transform="translate(-115.000000, -184.000000)" fill="#FFFFFF" fill-rule="nonzero">
            <g id="Group-2" transform="translate(115.000000, 184.000000)">
                <g id="Group">
                    <path d="M127.682875,19.74456 C122.575535,19.74456 118.441083,19.6226812 115.279396,19.37892 L94.8501358,19.01328 C72.4751201,19.01328 61.28778,21.6946132 61.28778,27.05736 C62.7470202,27.05736 64.1454377,28.0323902 65.4830745,29.98248 C66.8207113,31.9325698 67.4895197,34.8576605 67.4895197,38.75784 C67.4895197,46.0706766 65.2398915,51.3724035 60.7405677,54.66318 C56.2412439,57.9539565 51.3163823,59.59932 45.965835,59.59932 C39.3992543,59.59932 34.656795,57.4664413 31.7383147,53.20062 C28.8198343,48.9347987 27.3606161,43.8768293 27.3606161,38.02656 C27.3606161,28.03235 31.3734663,19.1961384 39.3992872,11.51766 C47.425108,3.83918161 58.369245,0 72.2320265,0 L197.361244,0 L71.50241,250.4634 C78.3121974,250.4634 83.5410629,250.585279 87.1891633,250.82904 L106.523999,251.19468 C116.73868,251.19468 125.068384,250.646225 131.513361,249.5493 C137.958339,248.452375 142.275193,246.319496 144.464053,243.1506 C142.761606,243.1506 141.241587,242.236509 139.90395,240.4083 C138.566313,238.580091 137.897505,235.71594 137.897505,231.81576 C137.897505,224.502923 140.086332,219.140257 144.464053,215.7276 C148.841773,212.314943 153.949037,210.60864 159.785998,210.60864 C166.109372,210.60864 170.791031,212.680579 173.831114,216.82452 C176.871198,220.968461 178.391217,225.965491 178.391217,231.81576 C178.391217,238.153552 176.445593,244.613127 172.554285,251.19468 C168.662978,257.776233 163.130109,263.260778 155.955512,267.64848 C148.780914,272.036182 140.694413,274.23 131.695765,274.23 L0,274.23 L127.682875,19.74456 Z M262.518678,277 C248.645192,277 237.084128,272.2316 227.835138,262.694658 C218.586148,253.157715 213.961722,238.241182 213.961722,217.944612 C213.961722,199.848875 217.551737,180.836409 224.731874,160.906644 C231.912011,140.976879 242.621207,124.10408 256.859784,110.28774 C271.098361,96.4713997 288.074871,89.5633333 307.789824,89.5633333 C317.768997,89.5633333 325.192417,91.2750666 330.060307,94.6985845 C334.928196,98.1221024 337.362105,102.645969 337.362105,108.27032 L337.362105,110.837945 L341.378093,91.3973516 L393.951037,91.3973516 L367.664565,216.110594 C366.690987,219.778648 366.204206,223.691182 366.204206,227.848311 C366.204206,238.363401 371.193718,243.620868 381.172891,243.620868 C387.987936,243.620868 393.890164,240.441934 398.879751,234.083973 C403.869337,227.726011 407.824438,219.411878 410.745172,209.141324 L426.078947,209.141324 C417.073352,235.551319 405.938222,253.463385 392.673223,262.878059 C379.408224,272.292734 366.082576,277 352.69588,277 C342.473312,277 334.258872,274.126733 328.052312,268.380114 C321.845753,262.633495 318.134043,254.258229 316.917071,243.254064 C309.858631,253.280081 302.009277,261.410814 293.368773,267.646507 C284.728269,273.8822 274.445007,277 262.518678,277 Z M285.795223,240.066667 C291.909611,240.066667 297.962763,237.231117 303.954863,231.559934 C309.946962,225.88875 314.04354,218.106072 316.24472,208.211667 L333.854067,126.402235 C333.854067,123.264984 332.631208,120.188112 330.185453,117.171525 C327.739698,114.154938 323.948835,112.646667 318.812749,112.646667 C309.02973,112.646667 300.225144,118.257434 292.398728,129.479138 C284.572313,140.700842 278.458017,154.214949 274.055658,170.021866 C269.6533,185.828782 267.452153,199.765205 267.452153,211.831553 C267.452153,223.897901 269.225299,231.620248 272.771643,234.998826 C276.317988,238.377403 280.659138,240.066667 285.795223,240.066667 Z M459.007765,92.3333333 L511.258452,92.3333333 L506.541376,114.88852 C514.766062,107.612617 522.204453,102.034508 528.856773,98.1540267 C535.509093,94.273545 542.705585,92.3333333 550.446466,92.3333333 C558.187348,92.3333333 564.295295,95.0011244 568.770492,100.336787 C573.245689,105.672449 575.483254,112.0994 575.483254,119.617833 C575.483254,126.651206 573.185214,132.835631 568.589066,138.171293 C563.992918,143.506956 557.582597,146.174747 549.35791,146.174747 C544.036055,146.174747 540.468046,144.901483 538.653777,142.354917 C536.839508,139.808351 535.448589,136.109822 534.480979,131.25922 C533.755271,128.106329 533.029575,125.802327 532.303867,124.347147 C531.578159,122.891966 530.247715,122.164387 528.312495,122.164387 C523.232542,122.164387 518.938836,123.195124 515.43125,125.25663 C511.923663,127.318136 507.388058,130.895401 501.8243,135.988533 L472.796141,274.23 L420.545455,274.23 L459.007765,92.3333333 Z M639.677757,277 C625.815895,277 614.264517,272.2316 605.023276,262.694658 C595.782035,253.157715 591.161483,238.241182 591.161483,217.944612 C591.161483,199.848875 594.74849,180.836409 601.922612,160.906644 C609.096733,140.976879 619.796957,124.10408 634.023604,110.28774 C648.250252,96.4713997 665.212539,89.5633333 684.910974,89.5633333 C694.881787,89.5633333 702.298987,91.2750666 707.162798,94.6985845 C712.026609,98.1221024 714.458479,102.645969 714.458479,108.27032 L714.458479,110.837945 L718.471103,91.3973516 L771,91.3973516 L744.735551,216.110594 C743.762789,219.778648 743.276415,223.691182 743.276415,227.848311 C743.276415,232.73905 744.431553,236.22365 746.741863,238.302215 C749.052174,240.380779 752.882367,241.420046 758.23256,241.420046 C761.637227,241.420046 764.312283,240.930979 766.257808,239.952831 C760.907616,253.646903 755.800691,263.244836 750.936879,268.746918 C746.073068,274.249 739.020648,277 729.779407,277 C719.808594,277 711.722629,274.004467 705.52127,268.013311 C699.319911,262.022154 695.489717,253.646888 694.030574,242.88726 C679.19595,265.6292 661.078525,277 639.677757,277 Z M662.994984,240.066667 C669.109371,240.066667 675.162524,237.231117 681.154623,231.559934 C687.146723,225.88875 691.243301,218.106072 693.44448,208.211667 L711.053828,126.402235 C711.053828,123.264984 709.830969,120.188112 707.385214,117.171525 C704.939459,114.154938 701.148596,112.646667 696.01251,112.646667 C686.229491,112.646667 677.424905,118.257434 669.598489,129.479138 C661.772074,140.700842 655.657778,154.214949 651.255419,170.021866 C646.85306,185.828782 644.651914,199.765205 644.651914,211.831553 C644.651914,223.897901 646.42506,231.620248 649.971404,234.998826 C653.517749,238.377403 657.858899,240.066667 662.994984,240.066667 Z" id="Zara's"></path>
                </g>
            </g>
        </g>
    </g>
</svg>