<?xml version="1.0" encoding="UTF-8"?>
<svg width="1933px" height="1013px" viewBox="0 0 1933 1013" version="1.1" xmlns="http://www.w3.org/2000/svg" xmlns:xlink="http://www.w3.org/1999/xlink">
    <!-- Generator: Sketch 55.2 (78181) - https://sketchapp.com -->
    <title>Group 3</title>
    <desc>Created with Sketch.</desc>
    <g id="Page-1" stroke="none" stroke-width="1" fill="none" fill-rule="evenodd">
        <g id="hotswords" transform="translate(-238.000000, -694.000000)">
            <g id="Group-3" transform="translate(238.000000, 694.000000)">
                <g id="sword-bottom" transform="translate(0.000000, 879.000000)">
                    <g id="Group">
                        <rect id="Rectangle" stroke="#FFFFFF" stroke-width="11" x="5.5" y="5.5" width="530" height="123" rx="20"></rect>
                        <ellipse id="Oval" fill="#FFFFFF" cx="458.631532" cy="67.4855072" rx="19.0081081" ry="18.9347826"></ellipse>
                        <ellipse id="Oval" fill="#FFFFFF" cx="302.667568" cy="67.4855072" rx="19.0081081" ry="18.9347826"></ellipse>
                    </g>
                    <polygon id="Path" stroke="#FFFFFF" stroke-width="11" points="536 15 1862.37149 15 1924 67.4814815 1862.37149 119 536 119"></polygon>
                </g>
                <g id="sword-top">
                    <g id="Group">
                        <rect id="Rectangle" stroke="#FFFFFF" stroke-width="11" x="5.5" y="5.5" width="530" height="123" rx="20"></rect>
                        <ellipse id="Oval" fill="#FFFFFF" cx="458.631532" cy="67.4855072" rx="19.0081081" ry="18.9347826"></ellipse>
                        <ellipse id="Oval" fill="#FFFFFF" cx="302.667568" cy="67.4855072" rx="19.0081081" ry="18.9347826"></ellipse>
                    </g>
                    <polygon id="Path" stroke="#FFFFFF" stroke-width="11" points="535 15 1862.32709 15 1924 67.4814815 1862.32709 119 535 119"></polygon>
                </g>
                <path d="M195.661017,284.779661 L204.5547,284.779661 L204.5547,489.334361 L195.661017,489.334361 L195.661017,284.779661 Z M0,284.779661 L8.89368259,284.779661 L8.89368259,489.334361 L0,489.334361 L0,284.779661 Z M177.873652,284.779661 L186.767334,284.779661 L186.767334,489.334361 L177.873652,489.334361 L177.873652,284.779661 Z M160.086287,284.779661 L168.979969,284.779661 L168.979969,489.334361 L160.086287,489.334361 L160.086287,284.779661 Z M142.298921,284.779661 L151.192604,284.779661 L151.192604,489.334361 L142.298921,489.334361 L142.298921,409.167694 L62.2557781,409.167694 L62.2557781,489.334361 L53.3620955,489.334361 L53.3620955,284.779661 L62.2557781,284.779661 L62.2557781,364.699281 L142.298921,364.699281 L142.298921,284.779661 Z M35.5747304,284.779661 L44.4684129,284.779661 L44.4684129,489.334361 L35.5747304,489.334361 L35.5747304,284.779661 Z M17.7873652,284.779661 L26.6810478,284.779661 L26.6810478,489.334361 L17.7873652,489.334361 L17.7873652,284.779661 Z M142.298921,400.274011 L142.298921,391.380329 L62.2557781,391.380329 L62.2557781,400.274011 L142.298921,400.274011 Z M142.298921,382.486646 L142.298921,373.592964 L62.2557781,373.592964 L62.2557781,382.486646 L142.298921,382.486646 Z M300.038264,352.470467 C290.485742,362.022989 285.709553,373.551722 285.709553,387.057011 C285.709553,400.5623 290.485742,412.091033 300.038264,421.643554 C309.590786,431.196076 321.119518,435.972265 334.624807,435.972265 C348.130097,435.972265 359.658829,431.196076 369.211351,421.643554 C378.763872,412.091033 383.540062,400.5623 383.540062,387.057011 C383.540062,373.551722 378.763872,362.022989 369.211351,352.470467 C359.658829,342.917946 348.130097,338.141757 334.624807,338.141757 C321.119518,338.141757 309.590786,342.917946 300.038264,352.470467 Z M281.386235,409.538264 C278.33931,402.373873 276.815871,394.880197 276.815871,387.057011 C276.815871,379.233825 278.33931,371.760736 281.386235,364.637519 C284.43316,357.514303 288.550565,351.358783 293.738572,346.170776 C298.92658,340.982768 305.082099,336.865364 312.205316,333.818439 C319.328532,330.771514 326.801622,329.248074 334.624807,329.248074 C342.447993,329.248074 349.921082,330.771514 357.044299,333.818439 C364.167515,336.865364 370.323035,340.982768 375.511043,346.170776 C380.69905,351.358783 384.816455,357.514303 387.86338,364.637519 C390.910305,371.760736 392.433744,379.233825 392.433744,387.057011 C392.433744,394.880197 390.910305,402.353286 387.86338,409.476502 C384.816455,416.599719 380.69905,422.755239 375.511043,427.943246 C370.323035,433.131253 364.167515,437.248658 357.044299,440.295583 C349.921082,443.342508 342.447993,444.865948 334.624807,444.865948 C326.801622,444.865948 319.328532,443.342508 312.205316,440.295583 C305.082099,437.248658 298.92658,433.131253 293.738572,427.943246 C288.550565,422.755239 284.43316,416.620306 281.386235,409.538264 Z M276.815871,353.582178 C270.886719,363.793494 267.922188,374.95166 267.922188,387.057011 C267.922188,399.162362 270.907306,410.320528 276.877632,420.531844 C282.847958,430.74316 290.938658,438.83386 301.149974,444.804186 C311.361291,450.774512 322.519457,453.75963 334.624807,453.75963 C346.730158,453.75963 357.888324,450.774512 368.09964,444.804186 C378.310957,438.83386 386.401657,430.74316 392.371983,420.531844 C398.342309,410.320528 401.327427,399.162362 401.327427,387.057011 C401.327427,374.95166 398.342309,363.793494 392.371983,353.582178 C386.401657,343.370861 378.310957,335.280162 368.09964,329.309836 C357.888324,323.33951 346.730158,320.354391 334.624807,320.354391 C322.519457,320.354391 311.361291,323.33951 301.149974,329.309836 C290.938658,335.280162 282.827371,343.370861 276.815871,353.582178 Z M269.157422,424.978685 C262.404777,413.36743 259.028505,400.726999 259.028505,387.057011 C259.028505,373.387023 262.404777,360.746591 269.157422,349.135336 C275.910066,337.524082 285.091878,328.34227 296.703133,321.589625 C308.314388,314.83698 320.95482,311.460709 334.624807,311.460709 C348.294795,311.460709 360.935227,314.83698 372.546482,321.589625 C384.157737,328.34227 393.339549,337.524082 400.092193,349.135336 C406.844838,360.746591 410.221109,373.387023 410.221109,387.057011 C410.221109,400.726999 406.844838,413.36743 400.092193,424.978685 C393.339549,436.58994 384.157737,445.771752 372.546482,452.524397 C360.935227,459.277041 348.294795,462.653313 334.624807,462.653313 C320.95482,462.653313 308.314388,459.277041 296.703133,452.524397 C285.091878,445.771752 275.910066,436.58994 269.157422,424.978685 Z M256.805085,354.199795 C252.358221,364.658159 250.134823,375.610455 250.134823,387.057011 C250.134823,398.503567 252.358221,409.455863 256.805085,419.914227 C261.251948,430.372591 267.242772,439.36912 274.777735,446.904083 C282.312698,454.439046 291.309227,460.42987 301.767591,464.876733 C312.225955,469.323597 323.178251,471.546995 334.624807,471.546995 C346.071364,471.546995 357.023659,469.323597 367.482024,464.876733 C377.940388,460.42987 386.936917,454.439046 394.47188,446.904083 C402.006843,439.36912 407.997667,430.372591 412.44453,419.914227 C416.891394,409.455863 419.114792,398.503567 419.114792,387.057011 C419.114792,375.610455 416.891394,364.658159 412.44453,354.199795 C407.997667,343.74143 402.006843,334.744902 394.47188,327.209938 C386.936917,319.674975 377.940388,313.684152 367.482024,309.237288 C357.023659,304.790425 346.071364,302.567026 334.624807,302.567026 C323.178251,302.567026 312.225955,304.790425 301.767591,309.237288 C291.309227,313.684152 282.312698,319.674975 274.777735,327.209938 C267.242772,334.744902 261.251948,343.74143 256.805085,354.199795 Z M253.717001,433.872368 C245.399719,419.543585 241.24114,403.938622 241.24114,387.057011 C241.24114,370.175399 245.420306,354.570436 253.778762,340.241654 C262.137219,325.912871 273.480668,314.569422 287.80945,306.210966 C302.138233,297.852509 317.743196,293.673344 334.624807,293.673344 C351.506419,293.673344 367.111382,297.852509 381.440164,306.210966 C395.768947,314.569422 407.112396,325.912871 415.470853,340.241654 C423.829309,354.570436 428.008475,370.175399 428.008475,387.057011 C428.008475,403.938622 423.829309,419.543585 415.470853,433.872368 C407.112396,448.20115 395.768947,459.5446 381.440164,467.903056 C367.111382,476.261512 351.506419,480.440678 334.624807,480.440678 C317.743196,480.440678 302.138233,476.261512 287.80945,467.903056 C273.480668,459.5446 262.116632,448.20115 253.717001,433.872368 Z M240.376477,347.406009 C235.023771,360.005456 232.347458,373.222324 232.347458,387.057011 C232.347458,400.891697 235.044358,414.129153 240.438238,426.769774 C245.832119,439.410395 253.099338,450.30093 262.240113,459.441705 C271.380888,468.58248 282.271423,475.849699 294.912044,481.24358 C307.552665,486.637461 320.790121,489.334361 334.624807,489.334361 C348.459494,489.334361 361.696949,486.637461 374.337571,481.24358 C386.978192,475.849699 397.868727,468.58248 407.009502,459.441705 C416.150277,450.30093 423.417496,439.410395 428.811376,426.769774 C434.205257,414.129153 436.902157,400.891697 436.902157,387.057011 C436.902157,373.222324 434.205257,359.984869 428.811376,347.344248 C423.417496,334.703626 416.150277,323.813091 407.009502,314.672316 C397.868727,305.531541 386.978192,298.264322 374.337571,292.870442 C361.696949,287.476561 348.459494,284.779661 334.624807,284.779661 C320.790121,284.779661 307.552665,287.476561 294.912044,292.870442 C282.271423,298.264322 271.380888,305.531541 262.240113,314.672316 C253.099338,323.813091 245.811532,334.724213 240.376477,347.406009 Z M232.223934,430.29019 C226.377132,416.537853 223.453775,402.126937 223.453775,387.057011 C223.453775,371.987084 226.397719,357.596756 232.285696,343.885593 C238.173673,330.174431 246.079089,318.35748 256.002183,308.434386 C265.925276,298.511293 277.742227,290.605876 291.45339,284.717899 C305.164552,278.829923 319.554881,275.885978 334.624807,275.885978 C349.694734,275.885978 364.085062,278.829923 377.796225,284.717899 C391.507388,290.605876 403.324338,298.511293 413.247432,308.434386 C423.170526,318.35748 431.075942,330.174431 436.963919,343.885593 C442.851896,357.596756 445.79584,371.987084 445.79584,387.057011 C445.79584,402.126937 442.851896,416.517266 436.963919,430.228428 C431.075942,443.939591 423.170526,455.756542 413.247432,465.679635 C403.324338,475.602729 391.507388,483.508146 377.796225,489.396122 C364.085062,495.284099 349.694734,498.228043 334.624807,498.228043 C319.554881,498.228043 305.164552,495.284099 291.45339,489.396122 C277.742227,483.508146 265.925276,475.602729 256.002183,465.679635 C246.079089,455.756542 238.153086,443.960178 232.223934,430.29019 Z M460.248074,293.673344 L460.248074,284.779661 L593.653313,284.779661 L593.653313,293.673344 L460.248074,293.673344 Z M460.248074,311.460709 L460.248074,302.567026 L593.653313,302.567026 L593.653313,311.460709 L460.248074,311.460709 Z M460.248074,329.248074 L460.248074,320.354391 L593.653313,320.354391 L593.653313,329.248074 L558.078582,329.248074 L558.078582,489.334361 L549.1849,489.334361 L549.1849,329.248074 L540.291217,329.248074 L540.291217,489.334361 L531.397535,489.334361 L531.397535,329.248074 L522.503852,329.248074 L522.503852,489.334361 L513.610169,489.334361 L513.610169,329.248074 L504.716487,329.248074 L504.716487,489.334361 L495.822804,489.334361 L495.822804,329.248074 L460.248074,329.248074 Z M723.846944,364.822804 L708.900616,364.822804 C702.559718,364.822804 697.989399,363.19643 695.189522,359.943631 C692.389645,356.690833 690.989728,352.388145 690.989728,347.035439 C690.989728,335.177136 699.842147,329.248074 717.547252,329.248074 C734.181816,329.248074 746.698725,331.718517 755.098356,336.659476 L747.934001,342.094504 C742.169548,339.459326 732.040733,338.141757 717.547252,338.141757 C710.46521,338.141757 705.709608,338.924063 703.280303,340.488701 C700.850998,342.053338 699.636364,344.235562 699.636364,347.035439 C699.636364,349.835316 700.295148,352.017541 701.612738,353.582178 C702.930327,355.146815 705.359595,355.929122 708.900616,355.929122 L724.217514,355.929122 C735.334673,355.929122 745.360553,357.823128 754.295455,361.611197 C763.230356,365.399266 770.579923,370.566608 776.344376,377.11338 C782.108829,383.660151 786.514451,391.195001 789.561376,399.718156 C792.608301,408.241311 794.131741,417.361362 794.131741,427.078582 C794.131741,434.984118 793.020042,442.477794 790.79661,449.559836 C788.573178,456.641878 785.217494,463.147377 780.729456,469.076528 C776.241417,475.005679 770.847618,480.131848 764.547894,484.455187 C758.248171,488.778527 750.754495,492.154799 742.066641,494.584104 C733.378787,497.013409 723.970518,498.228043 713.841551,498.228043 C697.948131,498.228043 683.063714,495.819362 669.187853,491.001926 C655.311992,486.184491 643.762672,479.452534 634.539548,470.805855 L641.703903,465.49435 C650.103535,473.070488 660.623503,478.93779 673.264124,483.09643 C685.904746,487.255071 699.430419,489.334361 713.841551,489.334361 C725.123409,489.334361 735.313985,487.707986 744.413585,484.455187 C753.513185,481.202389 761.006862,476.735005 766.894838,471.052902 C772.782815,465.370799 777.31196,458.782951 780.482409,451.289163 C783.652858,443.795374 785.238059,435.725262 785.238059,427.078582 C785.238059,415.632026 782.932312,405.276754 778.32075,396.012455 C773.709188,386.748156 766.689013,379.233893 757.260015,373.46944 C747.831018,367.704987 736.693439,364.822804 723.846944,364.822804 Z M708.900616,373.716487 L722.98228,373.716487 C739.699193,373.716487 752.771953,378.822068 762.20095,389.033385 C771.629948,399.244701 776.344376,411.926307 776.344376,427.078582 C776.344376,442.477906 770.868228,455.221273 759.915768,465.309065 C748.963308,475.396857 733.605389,480.440678 713.841551,480.440678 C700.665659,480.440678 688.35462,478.62902 676.908064,475.00565 C665.461508,471.382279 655.950303,466.276698 648.374165,459.688752 L655.291474,454.1302 C662.044119,459.647605 670.546559,463.929706 680.79905,466.976631 C691.051541,470.023556 702.065598,471.546995 713.841551,471.546995 C731.217259,471.546995 744.495888,467.388417 753.677838,459.071135 C762.859787,450.753853 767.450693,440.089776 767.450693,427.078582 C767.450693,414.232088 763.60092,403.609184 755.901258,395.209553 C748.201596,386.809922 737.18754,382.610169 722.858757,382.610169 L708.900616,382.610169 C696.877615,382.610169 687.860499,379.316246 681.848998,372.7283 C675.837498,366.140354 672.831793,357.576153 672.831793,347.035439 C672.831793,336.494726 676.558044,327.930524 684.010657,321.342578 C691.463271,314.754632 702.642024,311.460709 717.547252,311.460709 C728.005616,311.460709 737.722691,312.675343 746.698767,315.104648 C755.674844,317.533953 763.086172,321.01316 768.932974,325.542373 L761.892142,330.977401 C751.598476,323.895359 736.816994,320.354391 717.547252,320.354391 C705.112504,320.354391 696.033627,322.804247 690.310349,327.704032 C684.587071,332.603817 681.725475,339.047555 681.725475,347.035439 C681.725475,355.105673 683.845938,361.569998 688.086929,366.428608 C692.327919,371.287218 699.265745,373.716487 708.900616,373.716487 Z M708.900616,391.503852 L722.488187,391.503852 C734.511188,391.503852 743.528304,394.83895 749.539805,401.509245 C755.551306,408.17954 758.557011,416.702568 758.557011,427.078582 C758.557011,437.619296 754.83076,446.183497 747.378146,452.771443 C739.925532,459.359389 728.746779,462.653313 713.841551,462.653313 C703.383187,462.653313 693.645525,461.438678 684.628274,459.009373 C675.611023,456.580068 668.179108,453.100862 662.332306,448.571649 L669.373138,443.13662 C679.666804,450.218662 694.48946,453.75963 713.841551,453.75963 C726.276299,453.75963 735.355176,451.309775 741.078454,446.40999 C746.801732,441.510205 749.663328,435.066467 749.663328,427.078582 C749.663328,419.090698 747.522278,412.64696 743.240113,407.747175 C738.957948,402.84739 731.999535,400.397535 722.364664,400.397535 L708.900616,400.397535 C692.019005,400.397535 678.822723,395.353714 669.311376,385.265922 C659.800029,375.17813 655.044427,362.434763 655.044427,347.035439 C655.044427,331.636115 660.520575,318.892749 671.473035,308.804956 C682.425496,298.717164 697.783414,293.673344 717.547252,293.673344 C730.723144,293.673344 743.013596,295.485002 754.418978,299.108372 C765.824359,302.731742 775.314977,307.837324 782.891115,314.42527 L775.973806,319.983821 C769.221161,314.466417 760.739308,310.184316 750.527992,307.137391 C740.316676,304.090466 729.323206,302.567026 717.547252,302.567026 C700.171545,302.567026 686.892915,306.725605 677.710966,315.042886 C668.529016,323.360168 663.93811,334.024246 663.93811,347.035439 C663.93811,359.964283 667.80847,370.607774 675.549307,378.96623 C683.290143,387.324687 694.407135,391.503852 708.900616,391.503852 Z M708.900616,409.291217 L722.488187,409.291217 C728.829085,409.291217 733.399404,410.938179 736.199281,414.232152 C738.999158,417.526125 740.399076,421.808226 740.399076,427.078582 C740.399076,438.936885 731.546656,444.865948 713.841551,444.865948 C697.124638,444.865948 684.566555,442.395505 676.166923,437.454545 L683.331279,432.019517 C689.095732,434.654696 699.265721,435.972265 713.841551,435.972265 C720.923593,435.972265 725.679195,435.189958 728.1085,433.625321 C730.537805,432.060684 731.75244,429.878459 731.75244,427.078582 C731.75244,424.361055 731.073068,422.199417 729.714304,420.593606 C728.35554,418.987794 725.86451,418.1849 722.24114,418.1849 L708.900616,418.1849 C697.53641,418.1849 687.263485,416.332068 678.081536,412.626348 C668.899586,408.920629 661.364736,403.815047 655.476759,397.30945 C649.588782,390.803854 645.080225,383.269004 641.95095,374.704674 C638.821676,366.140344 637.257062,356.917358 637.257062,347.035439 C637.257062,339.129904 638.368761,331.636228 640.592193,324.554186 C642.815625,317.472144 646.17131,310.966645 650.659348,305.037494 C655.147386,299.108342 660.541186,293.982174 666.840909,289.658834 C673.140632,285.335495 680.634309,281.959223 689.322162,279.529918 C698.010016,277.100613 707.418285,275.885978 717.547252,275.885978 C733.440672,275.885978 748.304502,278.29466 762.139188,283.112096 C775.973875,287.929531 787.502608,294.661487 796.725732,303.308166 L789.561376,308.619671 C781.161745,301.043533 770.662364,295.176232 758.062917,291.017591 C745.463471,286.85895 731.958384,284.779661 717.547252,284.779661 C706.265395,284.779661 696.074819,286.406036 686.975218,289.658834 C677.875618,292.911632 670.381942,297.379016 664.493965,303.06112 C658.605988,308.743223 654.076843,315.33107 650.906394,322.824859 C647.735945,330.318647 646.150745,338.38876 646.150745,347.035439 C646.150745,358.646694 648.497665,369.104901 653.191577,378.410375 C657.885488,387.715849 665.049772,395.188938 674.684643,400.829866 C684.319514,406.470795 695.724724,409.291217 708.900616,409.291217 Z M872.322034,426.460966 L868.122239,444.001284 L825.877247,284.779661 L835.017976,284.779661 L872.322034,426.460966 Z M881.586287,392.244992 L877.015922,409.291217 L844.282229,284.779661 L853.299435,284.779661 L881.586287,392.244992 Z M890.850539,356.793785 L886.156651,374.087057 L862.563688,284.779661 L871.82794,284.779661 L890.850539,356.793785 Z M926.0547,489.334361 L916.790447,489.334361 L970.893683,285.026708 L970.770159,284.779661 L980.157935,284.779661 L980.157935,285.026708 L1004.24499,368.034412 L1026.35568,284.779661 L1035.61993,284.779661 L981.393169,489.334361 L972.128916,489.334361 L947.918336,406.45018 L926.0547,489.334361 Z M907.526194,489.334361 L898.385465,489.334361 L952.488701,284.779661 L961.62943,284.779661 L907.526194,489.334361 Z M889.121212,489.334361 L879.980483,489.334361 L934.207242,284.779661 L943.224448,284.779661 L889.121212,489.334361 Z M1036.73164,489.334361 L1027.46739,489.334361 L1081.57062,284.779661 L1090.83487,284.779661 L1036.73164,489.334361 Z M1018.20313,489.334361 L1009.0624,489.334361 L1063.16564,284.779661 L1072.30637,284.779661 L1018.20313,489.334361 Z M999.798151,489.334361 L990.657422,489.334361 L1044.88418,284.779661 L1053.90139,284.779661 L999.798151,489.334361 Z M866.145865,471.794042 L915.678737,284.779661 L924.942989,284.779661 L870.71623,489.334361 L861.451977,489.334361 L807.348742,284.779661 L816.612994,284.779661 L866.145865,471.794042 Z M952.612224,389.033385 L976.575758,472.535182 L981.269646,454.871341 L957.182589,371.61659 L952.612224,389.033385 Z M961.752953,354.199795 L985.84001,437.454545 L990.533898,420.03775 L966.446841,336.659476 L961.752953,354.199795 Z M970.893683,319.613251 L995.104263,402.868002 L999.674628,385.327684 L975.711094,301.825886 L970.893683,319.613251 Z M1166.67822,352.470467 C1157.1257,362.022989 1152.34951,373.551722 1152.34951,387.057011 C1152.34951,400.5623 1157.1257,412.091033 1166.67822,421.643554 C1176.23074,431.196076 1187.75948,435.972265 1201.26477,435.972265 C1214.77006,435.972265 1226.29879,431.196076 1235.85131,421.643554 C1245.40383,412.091033 1250.18002,400.5623 1250.18002,387.057011 C1250.18002,373.551722 1245.40383,362.022989 1235.85131,352.470467 C1226.29879,342.917946 1214.77006,338.141757 1201.26477,338.141757 C1187.75948,338.141757 1176.23074,342.917946 1166.67822,352.470467 Z M1148.02619,409.538264 C1144.97927,402.373873 1143.45583,394.880197 1143.45583,387.057011 C1143.45583,379.233825 1144.97927,371.760736 1148.02619,364.637519 C1151.07312,357.514303 1155.19052,351.358783 1160.37853,346.170776 C1165.56654,340.982768 1171.72206,336.865364 1178.84527,333.818439 C1185.96849,330.771514 1193.44158,329.248074 1201.26477,329.248074 C1209.08795,329.248074 1216.56104,330.771514 1223.68426,333.818439 C1230.80747,336.865364 1236.96299,340.982768 1242.151,346.170776 C1247.33901,351.358783 1251.45641,357.514303 1254.50334,364.637519 C1257.55026,371.760736 1259.0737,379.233825 1259.0737,387.057011 C1259.0737,394.880197 1257.55026,402.353286 1254.50334,409.476502 C1251.45641,416.599719 1247.33901,422.755239 1242.151,427.943246 C1236.96299,433.131253 1230.80747,437.248658 1223.68426,440.295583 C1216.56104,443.342508 1209.08795,444.865948 1201.26477,444.865948 C1193.44158,444.865948 1185.96849,443.342508 1178.84527,440.295583 C1171.72206,437.248658 1165.56654,433.131253 1160.37853,427.943246 C1155.19052,422.755239 1151.07312,416.620306 1148.02619,409.538264 Z M1143.45583,353.582178 C1137.52668,363.793494 1134.56215,374.95166 1134.56215,387.057011 C1134.56215,399.162362 1137.54727,410.320528 1143.51759,420.531844 C1149.48792,430.74316 1157.57862,438.83386 1167.78993,444.804186 C1178.00125,450.774512 1189.15942,453.75963 1201.26477,453.75963 C1213.37012,453.75963 1224.52828,450.774512 1234.7396,444.804186 C1244.95092,438.83386 1253.04162,430.74316 1259.01194,420.531844 C1264.98227,410.320528 1267.96739,399.162362 1267.96739,387.057011 C1267.96739,374.95166 1264.98227,363.793494 1259.01194,353.582178 C1253.04162,343.370861 1244.95092,335.280162 1234.7396,329.309836 C1224.52828,323.33951 1213.37012,320.354391 1201.26477,320.354391 C1189.15942,320.354391 1178.00125,323.33951 1167.78993,329.309836 C1157.57862,335.280162 1149.46733,343.370861 1143.45583,353.582178 Z M1135.79738,424.978685 C1129.04474,413.36743 1125.66846,400.726999 1125.66846,387.057011 C1125.66846,373.387023 1129.04474,360.746591 1135.79738,349.135336 C1142.55003,337.524082 1151.73184,328.34227 1163.34309,321.589625 C1174.95435,314.83698 1187.59478,311.460709 1201.26477,311.460709 C1214.93475,311.460709 1227.57519,314.83698 1239.18644,321.589625 C1250.7977,328.34227 1259.97951,337.524082 1266.73215,349.135336 C1273.4848,360.746591 1276.86107,373.387023 1276.86107,387.057011 C1276.86107,400.726999 1273.4848,413.36743 1266.73215,424.978685 C1259.97951,436.58994 1250.7977,445.771752 1239.18644,452.524397 C1227.57519,459.277041 1214.93475,462.653313 1201.26477,462.653313 C1187.59478,462.653313 1174.95435,459.277041 1163.34309,452.524397 C1151.73184,445.771752 1142.55003,436.58994 1135.79738,424.978685 Z M1123.44504,354.199795 C1118.99818,364.658159 1116.77478,375.610455 1116.77478,387.057011 C1116.77478,398.503567 1118.99818,409.455863 1123.44504,419.914227 C1127.89191,430.372591 1133.88273,439.36912 1141.41769,446.904083 C1148.95266,454.439046 1157.94919,460.42987 1168.40755,464.876733 C1178.86591,469.323597 1189.81821,471.546995 1201.26477,471.546995 C1212.71132,471.546995 1223.66362,469.323597 1234.12198,464.876733 C1244.58035,460.42987 1253.57688,454.439046 1261.11184,446.904083 C1268.6468,439.36912 1274.63763,430.372591 1279.08449,419.914227 C1283.53135,409.455863 1285.75475,398.503567 1285.75475,387.057011 C1285.75475,375.610455 1283.53135,364.658159 1279.08449,354.199795 C1274.63763,343.74143 1268.6468,334.744902 1261.11184,327.209938 C1253.57688,319.674975 1244.58035,313.684152 1234.12198,309.237288 C1223.66362,304.790425 1212.71132,302.567026 1201.26477,302.567026 C1189.81821,302.567026 1178.86591,304.790425 1168.40755,309.237288 C1157.94919,313.684152 1148.95266,319.674975 1141.41769,327.209938 C1133.88273,334.744902 1127.89191,343.74143 1123.44504,354.199795 Z M1120.35696,433.872368 C1112.03968,419.543585 1107.8811,403.938622 1107.8811,387.057011 C1107.8811,370.175399 1112.06026,354.570436 1120.41872,340.241654 C1128.77718,325.912871 1140.12063,314.569422 1154.44941,306.210966 C1168.77819,297.852509 1184.38315,293.673344 1201.26477,293.673344 C1218.14638,293.673344 1233.75134,297.852509 1248.08012,306.210966 C1262.40891,314.569422 1273.75236,325.912871 1282.11081,340.241654 C1290.46927,354.570436 1294.64843,370.175399 1294.64843,387.057011 C1294.64843,403.938622 1290.46927,419.543585 1282.11081,433.872368 C1273.75236,448.20115 1262.40891,459.5446 1248.08012,467.903056 C1233.75134,476.261512 1218.14638,480.440678 1201.26477,480.440678 C1184.38315,480.440678 1168.77819,476.261512 1154.44941,467.903056 C1140.12063,459.5446 1128.75659,448.20115 1120.35696,433.872368 Z M1107.01644,347.406009 C1101.66373,360.005456 1098.98742,373.222324 1098.98742,387.057011 C1098.98742,400.891697 1101.68432,414.129153 1107.0782,426.769774 C1112.47208,439.410395 1119.7393,450.30093 1128.88007,459.441705 C1138.02085,468.58248 1148.91138,475.849699 1161.552,481.24358 C1174.19262,486.637461 1187.43008,489.334361 1201.26477,489.334361 C1215.09945,489.334361 1228.33691,486.637461 1240.97753,481.24358 C1253.61815,475.849699 1264.50869,468.58248 1273.64946,459.441705 C1282.79024,450.30093 1290.05745,439.410395 1295.45134,426.769774 C1300.84522,414.129153 1303.54212,400.891697 1303.54212,387.057011 C1303.54212,373.222324 1300.84522,359.984869 1295.45134,347.344248 C1290.05745,334.703626 1282.79024,323.813091 1273.64946,314.672316 C1264.50869,305.531541 1253.61815,298.264322 1240.97753,292.870442 C1228.33691,287.476561 1215.09945,284.779661 1201.26477,284.779661 C1187.43008,284.779661 1174.19262,287.476561 1161.552,292.870442 C1148.91138,298.264322 1138.02085,305.531541 1128.88007,314.672316 C1119.7393,323.813091 1112.45149,334.724213 1107.01644,347.406009 Z M1098.86389,430.29019 C1093.01709,416.537853 1090.09373,402.126937 1090.09373,387.057011 C1090.09373,371.987084 1093.03768,357.596756 1098.92565,343.885593 C1104.81363,330.174431 1112.71905,318.35748 1122.64214,308.434386 C1132.56524,298.511293 1144.38219,290.605876 1158.09335,284.717899 C1171.80451,278.829923 1186.19484,275.885978 1201.26477,275.885978 C1216.33469,275.885978 1230.72502,278.829923 1244.43618,284.717899 C1258.14735,290.605876 1269.9643,298.511293 1279.88739,308.434386 C1289.81048,318.35748 1297.7159,330.174431 1303.60388,343.885593 C1309.49185,357.596756 1312.4358,371.987084 1312.4358,387.057011 C1312.4358,402.126937 1309.49185,416.517266 1303.60388,430.228428 C1297.7159,443.939591 1289.81048,455.756542 1279.88739,465.679635 C1269.9643,475.602729 1258.14735,483.508146 1244.43618,489.396122 C1230.72502,495.284099 1216.33469,498.228043 1201.26477,498.228043 C1186.19484,498.228043 1171.80451,495.284099 1158.09335,489.396122 C1144.38219,483.508146 1132.56524,475.602729 1122.64214,465.679635 C1112.71905,455.756542 1104.79304,443.960178 1098.86389,430.29019 Z M1398.03749,387.551104 L1451.64664,387.551104 C1459.79922,387.551104 1466.69587,384.915965 1472.3368,379.645609 C1477.97773,374.375252 1480.79815,366.881576 1480.79815,357.164355 C1480.79815,349.999964 1477.83362,343.556226 1471.90447,337.832948 C1465.97532,332.10967 1459.22277,329.248074 1451.64664,329.248074 L1375.30919,329.248074 L1375.30919,489.334361 L1366.41551,489.334361 L1366.41551,320.354391 L1451.64664,320.354391 C1461.69325,320.354391 1470.54567,324.080642 1478.20416,331.533256 C1485.86265,338.98587 1489.69183,347.529484 1489.69183,357.164355 C1489.69183,369.022658 1485.98617,378.533862 1478.57473,385.698254 C1471.16329,392.862645 1462.18735,396.444787 1451.64664,396.444787 L1398.03749,396.444787 L1398.03749,387.551104 Z M1398.03749,405.338469 L1451.64664,405.338469 C1464.49313,405.338469 1475.52777,400.829912 1484.7509,391.812661 C1493.97402,382.795409 1498.58552,371.24609 1498.58552,357.164355 C1498.58552,345.059005 1493.87109,334.415514 1484.44209,325.233564 C1475.01309,316.051615 1464.08138,311.460709 1451.64664,311.460709 L1357.52183,311.460709 L1357.52183,489.334361 L1348.62815,489.334361 L1348.62815,302.567026 L1451.64664,302.567026 C1461.44621,302.567026 1470.6486,305.078643 1479.25411,310.101952 C1487.85961,315.125261 1494.71509,321.857217 1499.82075,330.298023 C1504.92641,338.738828 1507.4792,347.694183 1507.4792,357.164355 C1507.4792,373.387172 1501.98246,386.95402 1490.98883,397.865306 C1479.99519,408.776591 1466.88126,414.232152 1451.64664,414.232152 L1398.03749,414.232152 L1398.03749,405.338469 Z M1398.03749,423.125835 L1451.64664,423.125835 C1463.17554,423.125835 1473.88079,420.284826 1483.76271,414.602722 C1493.64463,408.920619 1501.55005,400.994615 1507.4792,390.824474 C1513.40835,380.654332 1516.37288,369.434405 1516.37288,357.164355 C1516.37288,346.047197 1513.42894,335.609576 1507.54096,325.851181 C1501.65298,316.092786 1493.72698,308.290305 1483.76271,302.443503 C1473.79844,296.596701 1463.09319,293.673344 1451.64664,293.673344 L1339.73446,293.673344 L1339.73446,489.334361 L1330.84078,489.334361 L1330.84078,284.779661 L1451.64664,284.779661 C1464.57548,284.779661 1476.72182,288.094172 1488.08603,294.723292 C1499.45024,301.352413 1508.48794,310.246007 1515.19941,321.40434 C1521.91088,332.562673 1525.26656,344.482559 1525.26656,357.164355 C1525.26656,371.822535 1522.11675,384.710011 1515.81703,395.82717 C1509.5173,406.944329 1500.97369,415.632052 1490.18593,421.890601 L1513.16127,489.334361 L1503.7735,489.334361 L1481.78634,426.090395 C1478.49236,427.407985 1475.98075,428.313814 1474.25141,428.80791 L1494.87982,489.334361 L1485.49204,489.334361 L1465.35773,430.907807 C1464.61659,431.072506 1461.98145,431.360724 1457.45223,431.77247 L1476.59836,489.334361 L1467.21058,489.334361 L1448.3115,432.019517 L1440.28249,432.019517 L1458.3169,489.334361 L1448.92912,489.334361 L1430.77119,432.019517 L1398.03749,432.019517 L1398.03749,423.125835 Z M1393.09656,489.334361 L1384.20288,489.334361 L1384.20288,338.141757 L1451.64664,338.141757 C1457.16404,338.141757 1461.91964,340.015176 1465.91359,343.76207 C1469.90753,347.508964 1471.90447,351.976348 1471.90447,357.164355 C1471.90447,371.493138 1465.15193,378.657422 1451.64664,378.657422 L1398.03749,378.657422 L1398.03749,369.763739 L1451.64664,369.763739 C1455.18766,369.763739 1457.9669,368.837323 1459.98446,366.984463 C1462.00202,365.131603 1463.01079,361.858267 1463.01079,357.164355 C1463.01079,354.282129 1461.91967,351.873447 1459.73742,349.938238 C1457.55516,348.003029 1454.85826,347.035439 1451.64664,347.035439 L1393.09656,347.035439 L1393.09656,489.334361 Z M1597.65126,435.972265 L1597.65126,338.141757 L1658.30123,338.141757 C1668.1008,338.141757 1676.52089,342.938533 1683.56176,352.532229 C1690.60263,362.125925 1694.12301,373.634071 1694.12301,387.057011 C1694.12301,400.5623 1690.60263,412.091033 1683.56176,421.643554 C1676.52089,431.196076 1668.1008,435.972265 1658.30123,435.972265 L1597.65126,435.972265 Z M1606.54494,427.078582 L1658.30123,427.078582 C1665.63032,427.078582 1671.90936,423.167048 1677.13855,415.343862 C1682.36773,407.520677 1684.98228,398.09182 1684.98228,387.057011 C1684.98228,375.939852 1682.36773,366.490409 1677.13855,358.708398 C1671.90936,350.926386 1665.63032,347.035439 1658.30123,347.035439 L1606.54494,347.035439 L1606.54494,427.078582 Z M1588.75758,444.865948 L1658.30123,444.865948 C1670.57128,444.865948 1681.13242,439.204516 1689.98498,427.881484 C1698.83753,416.558452 1703.26374,402.95043 1703.26374,387.057011 C1703.26374,376.598647 1701.22562,366.922746 1697.14933,358.029019 C1693.07304,349.135292 1687.59689,342.115117 1680.72072,336.968285 C1673.84456,331.821452 1666.37147,329.248074 1658.30123,329.248074 L1588.75758,329.248074 L1588.75758,444.865948 Z M1579.86389,453.75963 L1579.86389,320.354391 L1658.30123,320.354391 C1667.9361,320.354391 1676.91205,323.318923 1685.22933,329.248074 C1693.54661,335.177225 1700.15504,343.267925 1705.05483,353.520416 C1709.95461,363.772907 1712.40447,374.95166 1712.40447,387.057011 C1712.40447,399.080012 1709.95461,410.238178 1705.05483,420.531844 C1700.15504,430.825509 1693.54661,438.936796 1685.22933,444.865948 C1676.91205,450.795099 1667.9361,453.75963 1658.30123,453.75963 L1579.86389,453.75963 Z M1570.97021,462.653313 L1658.30123,462.653313 C1669.58309,462.653313 1680.06188,459.277041 1689.73793,452.524397 C1699.41398,445.771752 1707.13411,436.58994 1712.89856,424.978685 C1718.66301,413.36743 1721.5452,400.726999 1721.5452,387.057011 C1721.5452,373.469372 1718.66301,360.849528 1712.89856,349.197098 C1707.13411,337.544669 1699.39339,328.34227 1689.67617,321.589625 C1679.95895,314.83698 1669.50074,311.460709 1658.30123,311.460709 L1570.97021,311.460709 L1570.97021,462.653313 Z M1562.07653,471.546995 L1562.07653,302.567026 L1658.30123,302.567026 C1671.14773,302.567026 1683.12937,306.334451 1694.24653,313.869414 C1705.36369,321.404378 1714.21611,331.677302 1720.80406,344.688495 C1727.392,357.699688 1730.68593,371.822386 1730.68593,387.057011 C1730.68593,402.291636 1727.392,416.414333 1720.80406,429.425526 C1714.21611,442.43672 1705.36369,452.709644 1694.24653,460.244607 C1683.12937,467.77957 1671.14773,471.546995 1658.30123,471.546995 L1562.07653,471.546995 Z M1553.18285,480.440678 L1658.30123,480.440678 C1669.08899,480.440678 1679.50603,477.970235 1689.55265,473.029276 C1699.59926,468.088316 1708.28699,461.459295 1715.61608,453.142013 C1722.94517,444.824732 1728.81247,434.8812 1733.21816,423.31112 C1737.62385,411.74104 1739.82666,399.656457 1739.82666,387.057011 C1739.82666,374.457564 1737.62385,362.393569 1733.21816,350.864664 C1728.81247,339.335758 1722.94517,329.392226 1715.61608,321.03377 C1708.28699,312.675313 1699.59926,306.025705 1689.55265,301.084746 C1679.50603,296.143786 1669.08899,293.673344 1658.30123,293.673344 L1553.18285,293.673344 L1553.18285,480.440678 Z M1658.30123,489.334361 L1544.28916,489.334361 L1544.28916,284.779661 L1658.30123,284.779661 C1674.35935,284.779661 1689.3467,289.34998 1703.26374,298.490755 C1717.18077,307.63153 1728.27718,320.066092 1736.55329,335.794813 C1744.82939,351.523534 1748.96739,368.610762 1748.96739,387.057011 C1748.96739,400.891697 1746.51753,414.129153 1741.61775,426.769774 C1736.71796,439.410395 1730.19187,450.30093 1722.03929,459.441705 C1713.88671,468.58248 1704.23139,475.849699 1693.07306,481.24358 C1681.91473,486.637461 1670.32423,489.334361 1658.30123,489.334361 Z M1851.12121,364.822804 L1836.17488,364.822804 C1829.83399,364.822804 1825.26367,363.19643 1822.46379,359.943631 C1819.66391,356.690833 1818.264,352.388145 1818.264,347.035439 C1818.264,335.177136 1827.11642,329.248074 1844.82152,329.248074 C1861.45608,329.248074 1873.97299,331.718517 1882.37262,336.659476 L1875.20827,342.094504 C1869.44382,339.459326 1859.315,338.141757 1844.82152,338.141757 C1837.73948,338.141757 1832.98388,338.924063 1830.55457,340.488701 C1828.12527,342.053338 1826.91063,344.235562 1826.91063,347.035439 C1826.91063,349.835316 1827.56942,352.017541 1828.88701,353.582178 C1830.20459,355.146815 1832.63386,355.929122 1836.17488,355.929122 L1851.49178,355.929122 C1862.60894,355.929122 1872.63482,357.823128 1881.56972,361.611197 C1890.50462,365.399266 1897.85419,370.566608 1903.61864,377.11338 C1909.3831,383.660151 1913.78872,391.195001 1916.83564,399.718156 C1919.88257,408.241311 1921.40601,417.361362 1921.40601,427.078582 C1921.40601,434.984118 1920.29431,442.477794 1918.07088,449.559836 C1915.84745,456.641878 1912.49176,463.147377 1908.00372,469.076528 C1903.51569,475.005679 1898.12189,480.131848 1891.82216,484.455187 C1885.52244,488.778527 1878.02876,492.154799 1869.34091,494.584104 C1860.65306,497.013409 1851.24479,498.228043 1841.11582,498.228043 C1825.2224,498.228043 1810.33798,495.819362 1796.46212,491.001926 C1782.58626,486.184491 1771.03694,479.452534 1761.81382,470.805855 L1768.97817,465.49435 C1777.3778,473.070488 1787.89777,478.93779 1800.53839,483.09643 C1813.17901,487.255071 1826.70469,489.334361 1841.11582,489.334361 C1852.39768,489.334361 1862.58825,487.707986 1871.68785,484.455187 C1880.78745,481.202389 1888.28113,476.735005 1894.16911,471.052902 C1900.05708,465.370799 1904.58623,458.782951 1907.75668,451.289163 C1910.92713,443.795374 1912.51233,435.725262 1912.51233,427.078582 C1912.51233,415.632026 1910.20658,405.276754 1905.59502,396.012455 C1900.98346,386.748156 1893.96328,379.233893 1884.53428,373.46944 C1875.10529,367.704987 1863.96771,364.822804 1851.12121,364.822804 Z M1836.17488,373.716487 L1850.25655,373.716487 C1866.97346,373.716487 1880.04622,378.822068 1889.47522,389.033385 C1898.90422,399.244701 1903.61864,411.926307 1903.61864,427.078582 C1903.61864,442.477906 1898.1425,455.221273 1887.19004,465.309065 C1876.23758,475.396857 1860.87966,480.440678 1841.11582,480.440678 C1827.93993,480.440678 1815.62889,478.62902 1804.18233,475.00565 C1792.73578,471.382279 1783.22457,466.276698 1775.64843,459.688752 L1782.56574,454.1302 C1789.31839,459.647605 1797.82083,463.929706 1808.07332,466.976631 C1818.32581,470.023556 1829.33987,471.546995 1841.11582,471.546995 C1858.49153,471.546995 1871.77016,467.388417 1880.95211,459.071135 C1890.13406,450.753853 1894.72496,440.089776 1894.72496,427.078582 C1894.72496,414.232088 1890.87519,403.609184 1883.17553,395.209553 C1875.47586,386.809922 1864.46181,382.610169 1850.13303,382.610169 L1836.17488,382.610169 C1824.15188,382.610169 1815.13477,379.316246 1809.12327,372.7283 C1803.11177,366.140354 1800.10606,357.576153 1800.10606,347.035439 C1800.10606,336.494726 1803.83231,327.930524 1811.28493,321.342578 C1818.73754,314.754632 1829.91629,311.460709 1844.82152,311.460709 C1855.27988,311.460709 1864.99696,312.675343 1873.97304,315.104648 C1882.94911,317.533953 1890.36044,321.01316 1896.20724,325.542373 L1889.16641,330.977401 C1878.87274,323.895359 1864.09126,320.354391 1844.82152,320.354391 C1832.38677,320.354391 1823.3079,322.804247 1817.58462,327.704032 C1811.86134,332.603817 1808.99974,339.047555 1808.99974,347.035439 C1808.99974,355.105673 1811.12021,361.569998 1815.3612,366.428608 C1819.60219,371.287218 1826.54001,373.716487 1836.17488,373.716487 Z M1836.17488,391.503852 L1849.76246,391.503852 C1861.78546,391.503852 1870.80257,394.83895 1876.81407,401.509245 C1882.82557,408.17954 1885.83128,416.702568 1885.83128,427.078582 C1885.83128,437.619296 1882.10503,446.183497 1874.65241,452.771443 C1867.1998,459.359389 1856.02105,462.653313 1841.11582,462.653313 C1830.65745,462.653313 1820.91979,461.438678 1811.90254,459.009373 C1802.88529,456.580068 1795.45338,453.100862 1789.60657,448.571649 L1796.64741,443.13662 C1806.94107,450.218662 1821.76373,453.75963 1841.11582,453.75963 C1853.55057,453.75963 1862.62944,451.309775 1868.35272,446.40999 C1874.076,441.510205 1876.9376,435.066467 1876.9376,427.078582 C1876.9376,419.090698 1874.79655,412.64696 1870.51438,407.747175 C1866.23222,402.84739 1859.2738,400.397535 1849.63893,400.397535 L1836.17488,400.397535 C1819.29327,400.397535 1806.09699,395.353714 1796.58564,385.265922 C1787.0743,375.17813 1782.3187,362.434763 1782.3187,347.035439 C1782.3187,331.636115 1787.79484,318.892749 1798.7473,308.804956 C1809.69976,298.717164 1825.05768,293.673344 1844.82152,293.673344 C1857.99741,293.673344 1870.28786,295.485002 1881.69325,299.108372 C1893.09863,302.731742 1902.58924,307.837324 1910.16538,314.42527 L1903.24807,319.983821 C1896.49543,314.466417 1888.01358,310.184316 1877.80226,307.137391 C1867.59094,304.090466 1856.59747,302.567026 1844.82152,302.567026 C1827.44581,302.567026 1814.16718,306.725605 1804.98523,315.042886 C1795.80328,323.360168 1791.21238,334.024246 1791.21238,347.035439 C1791.21238,359.964283 1795.08274,370.607774 1802.82357,378.96623 C1810.56441,387.324687 1821.6814,391.503852 1836.17488,391.503852 Z M1836.17488,409.291217 L1849.76246,409.291217 C1856.10335,409.291217 1860.67367,410.938179 1863.47355,414.232152 C1866.27343,417.526125 1867.67334,421.808226 1867.67334,427.078582 C1867.67334,438.936885 1858.82092,444.865948 1841.11582,444.865948 C1824.39891,444.865948 1811.84082,442.395505 1803.44119,437.454545 L1810.60555,432.019517 C1816.37,434.654696 1826.53999,435.972265 1841.11582,435.972265 C1848.19786,435.972265 1852.95346,435.189958 1855.38277,433.625321 C1857.81207,432.060684 1859.02671,429.878459 1859.02671,427.078582 C1859.02671,424.361055 1858.34734,422.199417 1856.98857,420.593606 C1855.62981,418.987794 1853.13878,418.1849 1849.51541,418.1849 L1836.17488,418.1849 C1824.81068,418.1849 1814.53775,416.332068 1805.3558,412.626348 C1796.17385,408.920629 1788.639,403.815047 1782.75103,397.30945 C1776.86305,390.803854 1772.35449,383.269004 1769.22522,374.704674 C1766.09594,366.140344 1764.53133,356.917358 1764.53133,347.035439 C1764.53133,339.129904 1765.64303,331.636228 1767.86646,324.554186 C1770.08989,317.472144 1773.44558,310.966645 1777.93362,305.037494 C1782.42165,299.108342 1787.81545,293.982174 1794.11518,289.658834 C1800.4149,285.335495 1807.90858,281.959223 1816.59643,279.529918 C1825.28428,277.100613 1834.69255,275.885978 1844.82152,275.885978 C1860.71494,275.885978 1875.57877,278.29466 1889.41346,283.112096 C1903.24814,287.929531 1914.77688,294.661487 1924,303.308166 L1916.83564,308.619671 C1908.43601,301.043533 1897.93663,295.176232 1885.33719,291.017591 C1872.73774,286.85895 1859.23265,284.779661 1844.82152,284.779661 C1833.53966,284.779661 1823.34909,286.406036 1814.24949,289.658834 C1805.14989,292.911632 1797.65621,297.379016 1791.76823,303.06112 C1785.88026,308.743223 1781.35111,315.33107 1778.18066,322.824859 C1775.01021,330.318647 1773.42501,338.38876 1773.42501,347.035439 C1773.42501,358.646694 1775.77193,369.104901 1780.46584,378.410375 C1785.15976,387.715849 1792.32404,395.188938 1801.95891,400.829866 C1811.59378,406.470795 1822.99899,409.291217 1836.17488,409.291217 Z" id="HOTSWORDS" fill="#FFFFFF" fill-rule="nonzero"></path>
                <path d="M78,728.480913 C76.9949698,729.314171 75.1315044,730.439053 72.4095477,731.855592 C69.6875911,733.272132 66.3584786,734.522 62.4221106,735.605236 C58.4857425,736.688472 54.1306771,737.18842 49.3567839,737.105094 C42.0703153,736.938442 35.5586552,735.62608 29.821608,733.167968 C24.0845609,730.709856 19.2269881,727.356041 15.2487437,723.106423 C11.2704994,718.856806 8.23451633,713.982318 6.14070352,708.482812 C4.0468907,702.983307 3,697.108924 3,690.859486 C3,683.860116 4.06782852,677.444123 6.20351759,671.611315 C8.33920666,665.778506 11.3961275,660.737369 15.3743719,656.487751 C19.3526162,652.238134 24.1055,648.946813 29.6331658,646.613689 C35.1608317,644.280566 41.2746734,643.114022 47.9748744,643.114022 C54.1725603,643.114022 59.6582676,643.947267 64.4321608,645.613784 C69.206054,647.280301 73.1004874,649.071779 76.1155779,650.988274 L68.9547739,668.111647 C66.8609611,666.528456 64.0762318,664.882796 60.6005025,663.174616 C57.1247732,661.466436 53.1256508,660.612359 48.6030151,660.612359 C45.0854095,660.612359 41.7144215,661.34145 38.4899497,662.799652 C35.265478,664.257854 32.4179353,666.320137 29.9472362,668.986564 C27.4765371,671.652991 25.5293204,674.756832 24.1055276,678.29818 C22.6817349,681.839528 21.9698492,685.69329 21.9698492,689.859581 C21.9698492,694.275851 22.6189215,698.317093 23.9170854,701.98343 C25.2152494,705.649767 27.0787148,708.79527 29.5075377,711.420033 C31.9363606,714.044797 34.8467167,716.065418 38.2386935,717.481958 C41.6306702,718.898497 45.4622902,719.606756 49.7336683,719.606756 C54.6750666,719.606756 58.904505,718.815172 62.4221106,717.231981 C65.9397161,715.648791 68.6197563,713.982299 70.4623116,712.232456 L78,728.480913 Z M130,690.239022 C130,683.905657 131.208321,677.905717 133.625,672.239022 C136.041679,666.572327 139.395812,661.551543 143.6875,657.176522 C147.979188,652.8015 152.958305,649.364034 158.625,646.864022 C164.291695,644.364009 170.374968,643.114022 176.875,643.114022 C183.291699,643.114022 189.333305,644.364009 195,646.864022 C200.666695,649.364034 205.687478,652.8015 210.0625,657.176522 C214.437522,661.551543 217.854154,666.572327 220.3125,672.239022 C222.770846,677.905717 224,683.905657 224,690.239022 C224,696.739054 222.770846,702.822327 220.3125,708.489022 C217.854154,714.155717 214.437522,719.134833 210.0625,723.426522 C205.687478,727.71821 200.666695,731.072343 195,733.489022 C189.333305,735.9057 183.291699,737.114022 176.875,737.114022 C170.374968,737.114022 164.291695,735.9057 158.625,733.489022 C152.958305,731.072343 147.979188,727.71821 143.6875,723.426522 C139.395812,719.134833 136.041679,714.155717 133.625,708.489022 C131.208321,702.822327 130,696.739054 130,690.239022 Z M148,690.739022 C148,694.822375 148.735612,698.634837 150.206858,702.176522 C151.678105,705.718206 153.737819,708.843175 156.386062,711.551522 C159.034305,714.259868 162.102859,716.364014 165.591814,717.864022 C169.08077,719.364029 172.884935,720.114022 177.004425,720.114022 C180.955772,720.114022 184.633833,719.364029 188.038717,717.864022 C191.443601,716.364014 194.407067,714.259868 196.929204,711.551522 C199.45134,708.843175 201.426984,705.718206 202.856195,702.176522 C204.285405,698.634837 205,694.822375 205,690.739022 C205,686.572334 204.264388,682.697373 202.793142,679.114022 C201.321895,675.53067 199.304216,672.384868 196.740044,669.676522 C194.175872,666.968175 191.170371,664.864029 187.723451,663.364022 C184.276531,661.864014 180.535418,661.114022 176.5,661.114022 C172.464582,661.114022 168.723469,661.864014 165.276549,663.364022 C161.829629,664.864029 158.80311,666.968175 156.196903,669.676522 C153.590695,672.384868 151.573016,675.53067 150.143805,679.114022 C148.714595,682.697373 148,686.572334 148,690.739022 Z M305.059476,680.216418 L281.875,736.114022 L264,736.114022 L305.5,640.114022 L306.5,640.114022 L348,736.114022 L327,736.114022 L305.059476,680.216418 L305.059476,680.216418 Z M292.678233,703.114022 L320.564669,703.114022 L327,718.114022 L287,718.114022 L292.678233,703.114022 Z M400,644.114022 L418.309572,644.114022 L418.309572,718.614022 L462,718.614022 L462,736.114022 L400,736.114022 L400,644.114022 Z M596,644.114022 L654,644.114022 L654,661.614022 L614.282609,661.614022 L614.282609,682.489022 L648.704348,682.489022 L648.704348,699.989022 L614.282609,699.989022 L614.282609,736.114022 L596,736.114022 L596,644.114022 Z M710,644.114022 L728,644.114022 L728,736.114022 L710,736.114022 L710,644.114022 Z M818.92955,644.114022 C824.690831,644.114022 829.825809,644.843181 834.334638,646.301522 C838.843467,647.759862 842.621642,649.843175 845.669276,652.551522 C848.71691,655.259868 851.033912,658.509836 852.620352,662.301522 C854.206792,666.093207 855,670.363998 855,675.114022 C855,678.86404 854.436405,682.614003 853.309198,686.364022 C852.18199,690.11404 850.345088,693.530673 847.798434,696.614022 C845.251781,699.69737 841.891084,702.176512 837.716243,704.051522 C833.541401,705.926531 828.364675,706.864022 822.18591,706.864022 L809.16047,706.864022 L809.16047,736.114022 L791,736.114022 L791,644.114022 L818.92955,644.114022 Z M821.875,690.114022 C824.625014,690.114022 826.916658,689.651564 828.75,688.726634 C830.583343,687.801705 832.020828,686.624539 833.0625,685.195103 C834.104172,683.765666 834.854164,682.273189 835.3125,680.717625 C835.770836,679.162062 836,677.711626 836,676.366274 C836,675.35726 835.854168,674.07499 835.5625,672.519427 C835.270832,670.963864 834.666671,669.387303 833.75,667.789697 C832.833329,666.192092 831.437509,664.84676 829.5625,663.753661 C827.687491,662.660563 825.166683,662.114022 822,662.114022 L809,662.114022 L809,690.114022 L821.875,690.114022 Z M838.929577,701.114022 L862,737.114022 L840.577465,737.114022 L817,701.621064 L838.929577,701.114022 Z M915,644.114022 L978.236434,644.114022 L978.236434,661.614022 L933.265504,661.614022 L933.265504,681.239022 L973.071705,681.239022 L973.071705,698.739022 L933.265504,698.739022 L933.265504,718.614022 L980,718.614022 L980,736.114022 L915,736.114022 L915,644.114022 Z M1037,736.114022 L1037,644.114022 L1064.76358,644.114022 C1074.10228,644.114022 1082.05268,645.489008 1088.61502,648.239022 C1095.17735,650.989035 1100.45658,654.655665 1104.45288,659.239022 C1108.44917,663.822378 1111.37273,668.947327 1113.22364,674.614022 C1115.07456,680.280717 1116,685.988993 1116,691.739022 C1116,698.572389 1114.75906,704.718161 1112.27716,710.176522 C1109.79525,715.634882 1106.40897,720.301502 1102.11821,724.176522 C1097.82745,728.051541 1092.86371,731.009845 1087.22684,733.051522 C1081.58996,735.093198 1075.61664,736.114022 1069.30671,736.114022 L1037,736.114022 Z M1056,719.114022 L1066.91239,719.114022 C1071.56498,719.114022 1075.79454,718.511183 1079.60121,717.305488 C1083.40787,716.099792 1086.68579,714.332852 1089.43505,712.004612 C1092.1843,709.676373 1094.29909,706.74533 1095.77946,703.211396 C1097.25983,699.677461 1098,695.623891 1098,691.050564 C1098,685.063663 1097.00605,680.178592 1095.01813,676.395203 C1093.0302,672.611814 1090.57705,669.680772 1087.65861,667.601987 C1084.74017,665.523202 1081.75832,664.088861 1078.71299,663.298923 C1075.66766,662.508985 1073.08762,662.114022 1070.97281,662.114022 L1056,662.114022 L1056,719.114022 Z M1270.56061,676.864022 L1270.05556,681.489022 L1272.83333,677.989022 L1303.13636,644.114022 L1326.87374,644.114022 L1288.4899,685.364022 L1327,736.114022 L1303.76768,736.114022 L1275.10606,696.864022 L1270.56061,701.364022 L1270.56061,736.114022 L1252,736.114022 L1252,644.114022 L1270.56061,644.114022 L1270.56061,676.864022 Z M1379,644.114022 L1442.23643,644.114022 L1442.23643,661.614022 L1397.2655,661.614022 L1397.2655,681.239022 L1437.07171,681.239022 L1437.07171,698.739022 L1397.2655,698.739022 L1397.2655,718.614022 L1444,718.614022 L1444,736.114022 L1379,736.114022 L1379,644.114022 Z M1549.61432,687.637163 C1553.77388,689.566978 1557.18728,692.038416 1559.85458,695.051522 C1563.28488,698.926541 1565,703.572328 1565,708.989022 C1565,713.989047 1564.10061,718.218171 1562.30179,721.676522 C1560.50298,725.134872 1558.07671,727.926511 1555.02291,730.051522 C1551.96911,732.176532 1548.51795,733.718183 1544.66932,734.676522 C1540.8207,735.63486 1536.84663,736.114022 1532.74701,736.114022 L1502,736.114022 L1502,644.114022 L1529.10757,644.114022 C1538.72913,644.114022 1546.38443,646.051502 1552.07371,649.926522 C1557.76298,653.801541 1560.60757,659.572317 1560.60757,667.239022 C1560.60757,672.905717 1559.20619,677.634836 1556.40339,681.426522 C1554.56996,683.906819 1552.30695,685.977025 1549.61432,687.637163 L1549.61432,687.637163 Z M1531.25581,682.114022 C1534.9225,682.114022 1537.62984,681.037428 1539.37791,678.884208 C1541.12598,676.730988 1542,674.287948 1542,671.555015 C1542,668.408002 1540.9128,666.047777 1538.73837,664.47427 C1536.56394,662.900763 1533.64343,662.114022 1529.97674,662.114022 L1520,662.114022 L1520,682.114022 L1531.25581,682.114022 Z M1531.68116,719.114022 C1534.36072,719.114022 1536.78904,718.759858 1538.96618,718.051522 C1541.14333,717.343185 1542.8599,716.218196 1544.11594,714.676522 C1545.37199,713.134847 1546,711.197367 1546,708.864022 C1546,706.197342 1545.24638,704.176528 1543.73913,702.801522 C1542.23188,701.426515 1540.28504,700.468191 1537.89855,699.926522 C1535.51207,699.384852 1533.02095,699.114022 1530.42512,699.114022 L1520,699.114022 L1520,719.114022 L1531.68116,719.114022 Z M1649.05948,680.216418 L1625.875,736.114022 L1608,736.114022 L1649.5,640.114022 L1650.5,640.114022 L1692,736.114022 L1671,736.114022 L1649.05948,680.216418 L1649.05948,680.216418 Z M1636.67823,703.114022 L1664.56467,703.114022 L1671,718.114022 L1631,718.114022 L1636.67823,703.114022 Z M1791.61432,687.637163 C1795.77388,689.566978 1799.18728,692.038416 1801.85458,695.051522 C1805.28488,698.926541 1807,703.572328 1807,708.989022 C1807,713.989047 1806.10061,718.218171 1804.30179,721.676522 C1802.50298,725.134872 1800.07671,727.926511 1797.02291,730.051522 C1793.96911,732.176532 1790.51795,733.718183 1786.66932,734.676522 C1782.8207,735.63486 1778.84663,736.114022 1774.74701,736.114022 L1744,736.114022 L1744,644.114022 L1771.10757,644.114022 C1780.72913,644.114022 1788.38443,646.051502 1794.07371,649.926522 C1799.76298,653.801541 1802.60757,659.572317 1802.60757,667.239022 C1802.60757,672.905717 1801.20619,677.634836 1798.40339,681.426522 C1796.56996,683.906819 1794.30695,685.977025 1791.61432,687.637163 L1791.61432,687.637163 Z M1773.25581,682.114022 C1776.9225,682.114022 1779.62984,681.037428 1781.37791,678.884208 C1783.12598,676.730988 1784,674.287948 1784,671.555015 C1784,668.408002 1782.9128,666.047777 1780.73837,664.47427 C1778.56394,662.900763 1775.64343,662.114022 1771.97674,662.114022 L1762,662.114022 L1762,682.114022 L1773.25581,682.114022 Z M1773.68116,719.114022 C1776.36072,719.114022 1778.78904,718.759858 1780.96618,718.051522 C1783.14333,717.343185 1784.8599,716.218196 1786.11594,714.676522 C1787.37199,713.134847 1788,711.197367 1788,708.864022 C1788,706.197342 1787.24638,704.176528 1785.73913,702.801522 C1784.23188,701.426515 1782.28504,700.468191 1779.89855,699.926522 C1777.51207,699.384852 1775.02095,699.114022 1772.42512,699.114022 L1762,699.114022 L1762,719.114022 L1773.68116,719.114022 Z M1913.11155,665.985679 C1909.60468,664.058753 1906.03524,662.466969 1902.40313,661.210278 C1898.77102,659.953587 1895.36857,659.325252 1892.19569,659.325252 C1888.27134,659.325252 1885.18201,660.121144 1882.92759,661.712952 C1880.67318,663.30476 1879.54599,665.692437 1879.54599,668.876054 C1879.54599,671.054318 1880.40182,673.002159 1882.1135,674.719637 C1883.82519,676.437114 1886.03782,677.966065 1888.75147,679.306535 C1891.46511,680.647005 1894.28309,681.861788 1897.20548,682.95092 C1899.87738,683.956273 1902.52836,685.150111 1905.15851,686.532471 C1907.78866,687.914831 1910.14741,689.632282 1912.23483,691.684877 C1914.32225,693.737472 1915.99217,696.292705 1917.24462,699.350653 C1918.49707,702.4086 1919.12329,706.157671 1919.12329,710.597979 C1919.12329,715.289624 1917.9126,719.646087 1915.49119,723.667498 C1913.06979,727.688908 1909.52122,730.93531 1904.8454,733.406802 C1900.16958,735.878294 1894.40838,737.114022 1887.56164,737.114022 C1884.05478,737.114022 1880.48534,736.757965 1876.85323,736.04584 C1873.22112,735.333715 1869.65168,734.244599 1866.14481,732.77846 C1862.63795,731.312321 1859.25638,729.448257 1856,727.186214 L1864.01566,712.985679 C1866.18657,714.577488 1868.54532,715.980771 1871.09198,717.195572 C1873.63863,718.410373 1876.20612,719.352877 1878.79452,720.023112 C1881.38292,720.693348 1883.76255,721.02846 1885.93346,721.02846 C1888.10438,721.02846 1890.29614,720.714292 1892.50881,720.085947 C1894.72147,719.457601 1896.55837,718.38943 1898.01957,716.881401 C1899.48076,715.373372 1900.21135,713.278919 1900.21135,710.597979 C1900.21135,708.754832 1899.60601,707.07927 1898.3953,705.571241 C1897.1846,704.063212 1895.55644,702.680873 1893.51076,701.424182 C1891.46509,700.167491 1889.23158,699.078376 1886.81018,698.156802 C1883.97128,697.06767 1881.04894,695.810998 1878.04305,694.386749 C1875.03717,692.962499 1872.21919,691.224103 1869.58904,689.171508 C1866.95889,687.118913 1864.82975,684.56368 1863.20157,681.505733 C1861.57338,678.447785 1860.7593,674.698714 1860.7593,670.258407 C1860.7593,664.896526 1861.94911,660.24684 1864.32877,656.309209 C1866.70843,652.371578 1870.06912,649.250842 1874.41096,646.946909 C1878.75279,644.642976 1883.76253,643.36536 1889.44031,643.114022 C1896.87153,643.114022 1902.90409,643.993692 1907.53816,645.753059 C1912.17223,647.512426 1916.32614,649.606879 1920,652.036481 L1913.11155,665.985679 Z" id="COAL-FIREDKEBABS" fill="#FFFFFF" fill-rule="nonzero"></path>
            </g>
        </g>
    </g>
</svg>