<?xml version="1.0" encoding="UTF-8"?>
<svg width="794px" height="469px" viewBox="0 0 794 469" version="1.1" xmlns="http://www.w3.org/2000/svg" xmlns:xlink="http://www.w3.org/1999/xlink">
    <!-- Generator: Sketch 55.2 (78181) - https://sketchapp.com -->
    <title>Group</title>
    <desc>Created with Sketch.</desc>
    <g id="Page-1" stroke="none" stroke-width="1" fill="none" fill-rule="evenodd">
        <g id="logo" transform="translate(-101.000000, -341.000000)" fill="#FFFFFF" fill-rule="nonzero">
            <g id="Group" transform="translate(101.000000, 341.000000)">
                <path d="M12.74,84.732 C8.0199764,92.2840378 5.66,100.01296 5.66,107.919 C5.66,116.533043 8.78696873,124.379965 15.041,131.46 C18.4630171,135.47202 22.7994737,138.598989 28.0505,140.841 C33.3015263,143.083011 39.0539687,144.204 45.308,144.204 C51.5620313,144.204 57.1669752,143.024012 62.123,140.664 C72.0350496,135.825976 76.991,127.920055 76.991,116.946 C76.991,112.815979 75.6045139,108.450023 72.8315,103.848 C70.0584861,99.245977 65.8990277,95.1160183 60.353,91.458 L30.263,71.28 C18.5809416,63.9639634 12.74,54.5240578 12.74,42.96 C12.74,41.7799941 12.7989994,40.6000059 12.917,39.42 C13.6250035,30.3339546 17.2534673,22.9295286 23.8025,17.2065 C30.3515327,11.4834714 39.1129451,8.622 50.087,8.622 C56.8130336,8.622 64.9549522,9.2119941 74.513,10.392 L85.487,10.392 L83.186,36.411 L81.593,36.411 C81.4749994,30.2749693 79.115023,25.3485186 74.513,21.6315 C69.910977,17.9144814 63.8340378,16.056 56.282,16.056 C47.077954,16.056 40.4110207,18.8289723 36.281,24.375 C34.27499,27.2070142 33.272,30.2749835 33.272,33.579 C33.272,36.8830165 34.27499,39.6854885 36.281,41.9865 C38.28701,44.2875115 41.4729782,46.7949864 45.839,49.509 L78.938,71.103 C85.6640336,75.4690218 90.9149811,80.6019705 94.691,86.502 C99.1750224,93.4640348 101.417,100.602963 101.417,107.919 C101.417,112.639024 100.44351,117.624474 98.4965,122.8755 C96.5494903,128.126526 93.3635221,132.993978 88.9385,137.478 C84.5134779,141.962022 78.8200348,145.619986 71.858,148.452 C64.8959652,151.284014 57.1965422,152.7 48.7595,152.7 C40.3224578,152.7 32.6820342,151.225015 25.838,148.275 C13.2119369,142.964973 5.18801711,133.702066 1.766,120.486 C1.05799646,117.653986 0.704,114.704015 0.704,111.636 C0.704,101.72395 4.18496519,92.3430442 11.147,83.493 L12.74,84.732 Z M279.855,167.391 C266.992936,173.881032 253.954066,174.943022 240.738,170.577 C226.69593,166.092978 214.601051,156.535073 204.453,141.903 C199.024973,134.114961 194.364019,125.088051 190.47,114.822 L184.806,99.777 L143.034,99.777 L133.653,122.079 C133.062997,123.613008 132.768,124.851995 132.768,125.796 C132.768,126.740005 132.974498,127.772494 133.3875,128.8935 C133.800502,130.014506 134.685493,131.017496 136.0425,131.9025 C137.399507,132.787504 138.903992,133.23 140.556,133.23 L141.972,133.23 L141.972,135 L104.094,135 L104.094,133.23 L105.687,133.23 C108.401014,133.23 111.085487,132.433508 113.7405,130.8405 C116.395513,129.247492 118.607991,126.858016 120.378,123.672 L159.849,33.579 C155.246977,23.1949481 150.350026,16.0560195 145.158,12.162 C140.791978,8.85798348 136.63252,7.206 132.6795,7.206 C128.72648,7.206 125.039017,7.7959941 121.617,8.976 L121.263,7.206 C129.759042,2.83997817 137.900961,0.657 145.689,0.657 C155.365048,0.657 164.037962,4.43296224 171.708,11.985 C179.260038,19.4190372 185.926971,30.1569298 191.709,44.199 L217.374,107.565 C227.050048,131.51912 236.961949,147.979955 247.11,156.948 C251.240021,160.606018 255.487978,163.142993 259.854,164.559 C264.220022,165.975007 267.907485,166.683 270.9165,166.683 C273.925515,166.683 276.845986,166.329004 279.678,165.621 L279.855,167.391 Z M146.043,92.166 L182.151,92.166 L169.761,59.421 C169.170997,57.7689917 168.345005,55.4975145 167.283,52.6065 C166.220995,49.7154855 165.513002,47.6800059 165.159,46.5 L146.043,92.166 Z M297.754,18.888 L284.302,18.888 L284.302,122.079 C284.420001,126.445022 286.307982,129.689989 289.966,131.814 C291.736009,132.758005 293.62399,133.23 295.63,133.23 L297.931,133.23 L297.931,135 L244.123,135 L244.123,133.23 L246.424,133.23 C250.672021,133.23 253.916989,131.401018 256.159,127.743 C257.103005,126.090992 257.633999,124.26201 257.752,122.256 L257.752,24.021 C257.633999,20.9529847 256.483511,18.3275109 254.3005,16.1445 C252.117489,13.9614891 249.492015,12.87 246.424,12.87 L244.123,12.87 L244.123,11.1 L304.834,11.1 C316.280057,11.1 325.95596,13.5779752 333.862,18.534 C337.87402,21.0120124 341.059988,24.4634779 343.42,28.8885 C345.780012,33.3135221 346.96,38.328472 346.96,43.9335 C346.96,49.538528 345.98651,54.7009764 344.0395,59.421 C342.09249,64.1410236 338.847523,68.2709823 334.3045,71.811 C329.761477,75.3510177 324.304032,77.4749965 317.932,78.183 C324.776034,80.4250112 330.793974,85.6169593 335.986,93.759 C348.730064,114.173102 358.169969,126.326981 364.306,130.221 C367.374015,132.109009 371.208977,133.111999 375.811,133.23 L375.811,135 L358.465,135 C348.43495,135 340.057034,133.613514 333.331,130.8405 C326.604966,128.067486 321.118021,123.318034 316.87,116.592 C314.745989,113.169983 312.032017,108.007535 308.728,101.1045 C305.423983,94.2014655 303.241005,89.2750147 302.179,86.325 C298.992984,79.2449646 294.981024,75.2920041 290.143,74.466 L290.143,72.696 L295.63,72.696 C300.940027,72.696 305.63048,71.1030159 309.7015,67.917 C313.77252,64.7309841 316.515993,59.539036 317.932,52.341 C318.404002,49.8629876 318.64,47.9160071 318.64,46.5 C318.64,36.8239516 316.693019,29.8325215 312.799,25.5255 C308.904981,21.2184785 303.890031,19.0060006 297.754,18.888 Z M539.558,167.391 C526.695936,173.881032 513.657066,174.943022 500.441,170.577 C486.39893,166.092978 474.304051,156.535073 464.156,141.903 C458.727973,134.114961 454.067019,125.088051 450.173,114.822 L444.509,99.777 L402.737,99.777 L393.356,122.079 C392.765997,123.613008 392.471,124.851995 392.471,125.796 C392.471,126.740005 392.677498,127.772494 393.0905,128.8935 C393.503502,130.014506 394.388493,131.017496 395.7455,131.9025 C397.102507,132.787504 398.606992,133.23 400.259,133.23 L401.675,133.23 L401.675,135 L363.797,135 L363.797,133.23 L365.39,133.23 C368.104014,133.23 370.788487,132.433508 373.4435,130.8405 C376.098513,129.247492 378.310991,126.858016 380.081,123.672 L419.552,33.579 C414.949977,23.1949481 410.053026,16.0560195 404.861,12.162 C400.494978,8.85798348 396.33552,7.206 392.3825,7.206 C388.42948,7.206 384.742017,7.7959941 381.32,8.976 L380.966,7.206 C389.462042,2.83997817 397.603961,0.657 405.392,0.657 C415.068048,0.657 423.740962,4.43296224 431.411,11.985 C438.963038,19.4190372 445.629971,30.1569298 451.412,44.199 L477.077,107.565 C486.753048,131.51912 496.664949,147.979955 506.813,156.948 C510.943021,160.606018 515.190978,163.142993 519.557,164.559 C523.923022,165.975007 527.610485,166.683 530.6195,166.683 C533.628515,166.683 536.548986,166.329004 539.381,165.621 L539.558,167.391 Z M405.746,92.166 L441.854,92.166 L429.464,59.421 C428.873997,57.7689917 428.048005,55.4975145 426.986,52.6065 C425.923995,49.7154855 425.216002,47.6800059 424.862,46.5 L405.746,92.166 Z M589.494,133.23 C592.562015,133.23 594.921992,132.463008 596.574,130.929 C599.288014,128.214986 600.703999,125.324015 600.822,122.256 L600.822,77.121 L543.474,77.121 L543.474,122.079 C543.474,125.147015 544.594989,127.772489 546.837,129.9555 C549.079011,132.138511 551.733985,133.23 554.802,133.23 L556.926,133.23 L557.103,135 L503.295,135 L503.295,133.23 L505.596,133.23 C508.664015,133.23 511.289489,132.138511 513.4725,129.9555 C515.655511,127.772489 516.805999,125.147015 516.924,122.079 L516.924,23.844 C516.805999,20.7759847 515.655511,18.1800106 513.4725,16.056 C511.289489,13.9319894 508.664015,12.87 505.596,12.87 L503.295,12.87 L503.295,11.1 L557.103,11.1 L556.926,12.87 L554.802,12.87 C551.733985,12.87 549.079011,13.9319894 546.837,16.056 C544.594989,18.1800106 543.474,20.7759847 543.474,23.844 L543.474,69.51 L600.822,69.51 L600.822,23.844 C600.703999,20.7759847 599.553511,18.1800106 597.3705,16.056 C595.187489,13.9319894 592.562015,12.87 589.494,12.87 L587.193,12.87 L587.193,11.1 L641.001,11.1 L641.001,12.87 L638.7,12.87 C635.631985,12.87 632.977011,13.9614891 630.735,16.1445 C628.492989,18.3275109 627.372,20.9529847 627.372,24.021 L627.372,122.079 C627.372,125.147015 628.492989,127.772489 630.735,129.9555 C632.977011,132.138511 635.631985,133.23 638.7,133.23 L641.001,133.23 L641.001,135 L587.193,135 L587.193,133.23 L589.494,133.23 Z M656.422,45.615 C659.726017,35.5849498 661.378,28.2395233 661.378,23.5785 C661.378,18.9174767 661.142002,14.7580183 660.67,11.1 L679.609,8.622 L679.609,11.3655 C679.609,12.7225068 679.343503,14.9644844 678.8125,18.0915 C678.281497,21.2185156 677.308007,24.6994808 675.892,28.5345 C674.475993,32.3695192 672.263515,35.9684832 669.2545,39.3315 C666.245485,42.6945168 662.794019,45.0839929 658.9,46.5 L656.422,45.615 Z M704.765,84.732 C700.044976,92.2840378 697.685,100.01296 697.685,107.919 C697.685,116.533043 700.811969,124.379965 707.066,131.46 C710.488017,135.47202 714.824474,138.598989 720.0755,140.841 C725.326526,143.083011 731.078969,144.204 737.333,144.204 C743.587031,144.204 749.191975,143.024012 754.148,140.664 C764.06005,135.825976 769.016,127.920055 769.016,116.946 C769.016,112.815979 767.629514,108.450023 764.8565,103.848 C762.083486,99.245977 757.924028,95.1160183 752.378,91.458 L722.288,71.28 C710.605942,63.9639634 704.765,54.5240578 704.765,42.96 C704.765,41.7799941 704.823999,40.6000059 704.942,39.42 C705.650004,30.3339546 709.278467,22.9295286 715.8275,17.2065 C722.376533,11.4834714 731.137945,8.622 742.112,8.622 C748.838034,8.622 756.979952,9.2119941 766.538,10.392 L777.512,10.392 L775.211,36.411 L773.618,36.411 C773.499999,30.2749693 771.140023,25.3485186 766.538,21.6315 C761.935977,17.9144814 755.859038,16.056 748.307,16.056 C739.102954,16.056 732.436021,18.8289723 728.306,24.375 C726.29999,27.2070142 725.297,30.2749835 725.297,33.579 C725.297,36.8830165 726.29999,39.6854885 728.306,41.9865 C730.31201,44.2875115 733.497978,46.7949864 737.864,49.509 L770.963,71.103 C777.689034,75.4690218 782.939981,80.6019705 786.716,86.502 C791.200022,93.4640348 793.442,100.602963 793.442,107.919 C793.442,112.639024 792.46851,117.624474 790.5215,122.8755 C788.57449,128.126526 785.388522,132.993978 780.9635,137.478 C776.538478,141.962022 770.845035,145.619986 763.883,148.452 C756.920965,151.284014 749.221542,152.7 740.7845,152.7 C732.347458,152.7 724.707034,151.225015 717.863,148.275 C705.236937,142.964973 697.213017,133.702066 693.791,120.486 C693.082996,117.653986 692.729,114.704015 692.729,111.636 C692.729,101.72395 696.209965,92.3430442 703.172,83.493 L704.765,84.732 Z" id="SArAh'S"></path>
                <path d="M68.9766186,303.22 C61.7985828,303.22 55.4161466,301.518017 49.8291186,298.114 C44.2420907,294.709983 39.9316338,290.04803 36.8976186,284.128 C33.8636035,278.20797 32.3466186,271.622036 32.3466186,264.37 C32.3466186,257.117964 33.8636035,250.53203 36.8976186,244.612 C39.9316338,238.69197 44.2420907,234.030017 49.8291186,230.626 C55.4161466,227.221983 61.7985828,225.52 68.9766186,225.52 C76.1546545,225.52 82.5185909,227.221983 88.0686186,230.626 C93.6186464,234.030017 97.9106035,238.69197 100.944619,244.612 C103.978634,250.53203 105.495619,257.117964 105.495619,264.37 C105.495619,271.622036 103.978634,278.20797 100.944619,284.128 C97.9106035,290.04803 93.6186464,294.709983 88.0686186,298.114 C82.5185909,301.518017 76.1546545,303.22 68.9766186,303.22 Z M68.9766186,298.225 C75.7106523,298.225 80.9276001,295.283529 84.6276186,289.4005 C88.3276371,283.517471 90.1776186,275.174054 90.1776186,264.37 C90.1776186,253.565946 88.3276371,245.222529 84.6276186,239.3395 C80.9276001,233.456471 75.7106523,230.515 68.9766186,230.515 C62.242585,230.515 57.044137,233.456471 53.3811186,239.3395 C49.7181003,245.222529 47.8866186,253.565946 47.8866186,264.37 C47.8866186,275.174054 49.7181003,283.517471 53.3811186,289.4005 C57.044137,295.283529 62.242585,298.225 68.9766186,298.225 Z M126.932415,246.055 L126.932415,301 L121.382415,301 L121.382415,241.06 C121.382415,237.951984 120.623923,235.510009 119.106915,233.734 C117.589908,231.957991 115.018433,231.07 111.392415,231.07 L110.837415,231.07 L110.837415,227.74 L118.607415,227.74 C122.751436,227.74 126.136902,228.276495 128.763915,229.3495 C131.390928,230.422505 133.592406,232.105989 135.368415,234.4 L173.552415,278.8 L173.552415,227.74 L179.102415,227.74 L179.102415,301.333 L173.996415,301.333 L126.932415,246.055 Z M243.954008,232.735 L236.073008,232.735 C231.928988,232.735 228.765519,233.77099 226.582508,235.843 C224.399498,237.91501 223.308008,241.318976 223.308008,246.055 L219.978008,246.055 L219.978008,236.62 C219.978008,230.69997 223.122977,227.74 229.413008,227.74 L281.583008,227.74 L281.583008,232.735 L258.384008,232.735 L258.384008,301 L243.954008,301 L243.954008,232.735 Z M294.139805,242.17 C294.139805,238.395981 293.62181,235.602509 292.585805,233.7895 C291.5498,231.976491 289.477821,231.07 286.369805,231.07 L285.259805,231.07 L285.259805,227.74 L298.579805,227.74 C301.243818,227.74 303.278798,228.183996 304.684805,229.072 C306.090812,229.960004 307.089802,231.42149 307.681805,233.4565 C308.273808,235.49151 308.569805,238.395981 308.569805,242.17 L308.569805,260.485 L338.539805,260.485 L338.539805,227.74 L352.969805,227.74 L352.969805,286.57 C352.969805,290.344019 353.4878,293.137491 354.523805,294.9505 C355.55981,296.763509 357.63179,297.67 360.739805,297.67 L361.849805,297.67 L361.849805,301 L348.529805,301 C345.865792,301 343.830812,300.574504 342.424805,299.7235 C341.018798,298.872496 340.019808,297.42951 339.427805,295.3945 C338.835802,293.35949 338.539805,290.418019 338.539805,286.57 L338.539805,265.48 L308.569805,265.48 L308.569805,301 L294.139805,301 L294.139805,242.17 Z M375.627602,242.17 C375.627602,238.395981 375.109607,235.602509 374.073602,233.7895 C373.037597,231.976491 370.965617,231.07 367.857602,231.07 L366.747602,231.07 L366.747602,227.74 L415.698602,227.74 C421.988633,227.74 425.133602,230.69997 425.133602,236.62 L425.133602,246.055 L421.803602,246.055 C421.803602,241.466977 420.638113,238.100011 418.307102,235.954 C415.97609,233.807989 412.516625,232.735 407.928602,232.735 L390.057602,232.735 L390.057602,260.485 L418.917602,260.485 L418.917602,265.48 L390.057602,265.48 L390.057602,296.005 L409.038602,296.005 C413.256623,296.005 416.771588,295.061509 419.583602,293.1745 C422.395616,291.287491 424.726592,288.013023 426.576602,283.351 L429.573602,284.461 L426.354602,293.23 C425.392597,295.894013 424.245608,297.854994 422.913602,299.113 C421.581595,300.371006 419.509616,301 416.697602,301 L375.627602,301 L375.627602,242.17 Z M524.728195,302.11 C520.658175,302.11 516.958212,300.907512 513.628195,298.5025 C510.298178,296.097488 506.820213,291.93503 503.194195,286.015 L492.094195,267.478 L487.654195,267.478 L487.654195,301 L473.113195,301 L473.113195,242.17 C473.113195,238.395981 472.5952,235.602509 471.559195,233.7895 C470.52319,231.976491 468.45121,231.07 465.343195,231.07 L464.233195,231.07 L464.233195,227.74 L494.869195,227.74 C502.565233,227.74 509.484164,229.145986 515.626195,231.958 C521.768226,234.770014 524.839195,240.17196 524.839195,248.164 C524.839195,257.414046 518.845255,263.555985 506.857195,266.59 L518.512195,286.015 C522.878217,293.341037 527.466171,297.410996 532.276195,298.225 L532.276195,301 C531.684192,301.296001 530.611203,301.554999 529.057195,301.777 C527.503187,301.999001 526.060202,302.11 524.728195,302.11 Z M494.314195,263.038 C498.458216,263.038 501.99168,261.798512 504.914695,259.3195 C507.83771,256.840488 509.299195,252.937027 509.299195,247.609 C509.299195,242.354974 507.856209,238.470013 504.970195,235.954 C502.08418,233.437987 498.717214,232.18 494.869195,232.18 C492.723184,232.18 491.058201,232.327999 489.874195,232.624 L487.654195,232.957 L487.654195,263.038 L494.314195,263.038 Z M573.248992,303.22 C566.070956,303.22 559.688519,301.518017 554.101492,298.114 C548.514464,294.709983 544.204007,290.04803 541.169992,284.128 C538.135976,278.20797 536.618992,271.622036 536.618992,264.37 C536.618992,257.117964 538.135976,250.53203 541.169992,244.612 C544.204007,238.69197 548.514464,234.030017 554.101492,230.626 C559.688519,227.221983 566.070956,225.52 573.248992,225.52 C580.427027,225.52 586.790964,227.221983 592.340992,230.626 C597.891019,234.030017 602.182976,238.69197 605.216992,244.612 C608.251007,250.53203 609.767992,257.117964 609.767992,264.37 C609.767992,271.622036 608.251007,278.20797 605.216992,284.128 C602.182976,290.04803 597.891019,294.709983 592.340992,298.114 C586.790964,301.518017 580.427027,303.22 573.248992,303.22 Z M573.248992,298.225 C579.983025,298.225 585.199973,295.283529 588.899992,289.4005 C592.60001,283.517471 594.449992,275.174054 594.449992,264.37 C594.449992,253.565946 592.60001,245.222529 588.899992,239.3395 C585.199973,233.456471 579.983025,230.515 573.248992,230.515 C566.514958,230.515 561.31651,233.456471 557.653492,239.3395 C553.990473,245.222529 552.158992,253.565946 552.158992,264.37 C552.158992,275.174054 553.990473,283.517471 557.653492,289.4005 C561.31651,295.283529 566.514958,298.225 573.248992,298.225 Z M682.819788,301.444 C678.157765,301.444 673.939807,300.46351 670.165788,298.5025 C666.391769,296.54149 663.3208,292.712028 660.952788,287.014 L658.399788,280.798 L628.873788,280.798 L619.771788,301 L613.999788,301 L646.744788,227.74 L651.739788,227.74 L676.603788,287.014 C679.415802,293.896034 683.263764,297.595997 688.147788,298.114 L688.147788,300.889 C686.815781,301.259002 685.039799,301.444 682.819788,301.444 Z M631.204788,275.803 L656.290788,275.803 L644.080788,246.832 L631.204788,275.803 Z M697.041585,242.17 C697.041585,238.395981 696.52359,235.602509 695.487585,233.7895 C694.45158,231.976491 692.3796,231.07 689.271585,231.07 L688.161585,231.07 L688.161585,227.74 L718.353585,227.74 C733.301659,227.74 744.679046,230.903468 752.486085,237.2305 C760.293124,243.557532 764.196585,252.455943 764.196585,263.926 C764.196585,271.252037 762.550101,277.708472 759.257085,283.2955 C755.964068,288.882528 751.080117,293.229984 744.605085,296.338 C738.130052,299.446016 730.34163,301 721.239585,301 L697.041585,301 L697.041585,242.17 Z M720.906585,296.56 C726.086611,296.56 730.693065,295.265013 734.726085,292.675 C738.759105,290.084987 741.904073,286.348024 744.161085,281.464 C746.418096,276.579976 747.546585,270.882033 747.546585,264.37 C747.546585,257.931968 746.418096,252.289524 744.161085,247.4425 C741.904073,242.595476 738.740605,238.840013 734.670585,236.176 C730.600564,233.511987 725.938611,232.18 720.684585,232.18 L719.796585,232.18 C717.354573,232.18 715.393592,232.327999 713.913585,232.624 L711.471585,232.957 L711.471585,295.783 L713.913585,296.227 C715.467593,296.449001 717.428573,296.56 719.796585,296.56 L720.906585,296.56 Z" id="ONTHEROAD"></path>
                <path d="M260.414548,438.48 C260.414548,445.573369 261.394538,451.768307 263.354548,457.065 C265.314558,462.361693 267.904532,466.129989 271.124548,468.37 L270.704548,469 C266.317859,467.64666 262.537897,465.430015 259.364548,462.35 C253.111183,456.189969 249.984548,448.233382 249.984548,438.48 C249.984548,428.586617 253.111183,421.026693 259.364548,415.8 C262.537897,413.186654 266.364526,411.50667 270.844548,410.76 L271.264548,411.32 C267.811197,412.953341 265.139557,416.10331 263.249548,420.77 C261.359539,425.43669 260.414548,431.339964 260.414548,438.48 Z M311.313249,461.3 C312.526588,461.3 313.459912,460.99667 314.113249,460.39 C315.186587,459.316661 315.746582,458.173339 315.793249,456.96 L315.793249,439.11 L293.113249,439.11 L293.113249,456.89 C293.113249,458.103339 293.556577,459.141662 294.443249,460.005 C295.32992,460.868338 296.379909,461.3 297.593249,461.3 L298.433249,461.3 L298.503249,462 L277.223249,462 L277.223249,461.3 L278.133249,461.3 C279.346588,461.3 280.384911,460.868338 281.248249,460.005 C282.111586,459.141662 282.566582,458.103339 282.613249,456.89 L282.613249,418.04 C282.566582,416.826661 282.111586,415.800004 281.248249,414.96 C280.384911,414.119996 279.346588,413.7 278.133249,413.7 L277.223249,413.7 L277.223249,413 L298.503249,413 L298.433249,413.7 L297.593249,413.7 C296.379909,413.7 295.32992,414.119996 294.443249,414.96 C293.556577,415.800004 293.113249,416.826661 293.113249,418.04 L293.113249,436.1 L315.793249,436.1 L315.793249,418.04 C315.746582,416.826661 315.291586,415.800004 314.428249,414.96 C313.564911,414.119996 312.526588,413.7 311.313249,413.7 L310.403249,413.7 L310.403249,413 L331.683249,413 L331.683249,413.7 L330.773249,413.7 C329.559909,413.7 328.50992,414.131662 327.623249,414.995 C326.736577,415.858338 326.293249,416.896661 326.293249,418.11 L326.293249,456.89 C326.293249,458.103339 326.736577,459.141662 327.623249,460.005 C328.50992,460.868338 329.559909,461.3 330.773249,461.3 L331.683249,461.3 L331.683249,462 L310.403249,462 L310.403249,461.3 L311.313249,461.3 Z M385.941949,461.3 L386.571949,461.3 L386.571949,462 L364.241949,462 L364.241949,461.3 L364.871949,461.3 C365.898621,461.3 366.656947,460.985003 367.146949,460.355 C367.636952,459.724997 367.881949,459.130003 367.881949,458.57 C367.881949,458.009997 367.765284,457.450003 367.531949,456.89 L364.101949,448.28 L347.721949,448.28 L344.081949,456.89 C343.848615,457.49667 343.731949,458.068331 343.731949,458.605 C343.731949,459.141669 343.976947,459.724997 344.466949,460.355 C344.956952,460.985003 345.73861,461.3 346.811949,461.3 L347.371949,461.3 L347.371949,462 L332.391949,462 L332.391949,461.3 L333.021949,461.3 C334.095288,461.3 335.16861,460.973337 336.241949,460.32 C337.315288,459.666663 338.201946,458.686673 338.901949,457.38 L355.071949,420.77 C357.265293,416.149977 358.431948,413.093341 358.571949,411.6 L359.201949,411.6 L379.991949,457.24 C380.691953,458.59334 381.57861,459.60833 382.651949,460.285 C383.725288,460.96167 384.821944,461.3 385.941949,461.3 Z M348.911949,445.34 L362.911949,445.34 L356.121949,428.12 L348.911949,445.34 Z M389.24065,461.3 C390.453989,461.3 391.492312,460.868338 392.35565,460.005 C393.218987,459.141662 393.673983,458.103339 393.72065,456.89 L393.72065,418.11 C393.673983,416.896661 393.218987,415.858338 392.35565,414.995 C391.492312,414.131662 390.453989,413.7 389.24065,413.7 L388.33065,413.7 L388.33065,413 L409.61065,413 L409.54065,413.7 L408.70065,413.7 C407.48731,413.7 406.437321,414.131662 405.55065,414.995 C404.663979,415.858338 404.22065,416.896661 404.22065,418.11 L404.22065,458.99 L413.39065,458.99 C416.797333,458.99 419.655638,458.01001 421.96565,456.05 C424.275661,454.08999 425.990644,451.313351 427.11065,447.72 L427.81065,447.72 L424.59065,462 L388.33065,462 L388.33065,461.3 L389.24065,461.3 Z M481.15935,461.3 L481.78935,461.3 L481.78935,462 L459.45935,462 L459.45935,461.3 L460.08935,461.3 C461.116022,461.3 461.874348,460.985003 462.36435,460.355 C462.854353,459.724997 463.09935,459.130003 463.09935,458.57 C463.09935,458.009997 462.982685,457.450003 462.74935,456.89 L459.31935,448.28 L442.93935,448.28 L439.29935,456.89 C439.066016,457.49667 438.94935,458.068331 438.94935,458.605 C438.94935,459.141669 439.194348,459.724997 439.68435,460.355 C440.174353,460.985003 440.956012,461.3 442.02935,461.3 L442.58935,461.3 L442.58935,462 L427.60935,462 L427.60935,461.3 L428.23935,461.3 C429.312689,461.3 430.386012,460.973337 431.45935,460.32 C432.532689,459.666663 433.419347,458.686673 434.11935,457.38 L450.28935,420.77 C452.482695,416.149977 453.64935,413.093341 453.78935,411.6 L454.41935,411.6 L475.20935,457.24 C475.909354,458.59334 476.796012,459.60833 477.86935,460.285 C478.942689,460.96167 480.039345,461.3 481.15935,461.3 Z M444.12935,445.34 L458.12935,445.34 L451.33935,428.12 L444.12935,445.34 Z M484.458051,461.3 C485.67139,461.3 486.709713,460.868338 487.573051,460.005 C488.436388,459.141662 488.891384,458.103339 488.938051,456.89 L488.938051,418.11 C488.891384,416.896661 488.436388,415.858338 487.573051,414.995 C486.709713,414.131662 485.67139,413.7 484.458051,413.7 L483.548051,413.7 L483.548051,413 L504.828051,413 L504.758051,413.7 L503.918051,413.7 C502.704711,413.7 501.654722,414.131662 500.768051,414.995 C499.88138,415.858338 499.438051,416.896661 499.438051,418.11 L499.438051,458.99 L508.608051,458.99 C512.014735,458.99 514.873039,458.01001 517.183051,456.05 C519.493062,454.08999 521.208045,451.313351 522.328051,447.72 L523.028051,447.72 L519.808051,462 L483.548051,462 L483.548051,461.3 L484.458051,461.3 Z M537.666751,438.55 C537.666751,431.363297 536.710094,425.43669 534.796751,420.77 C532.883409,416.10331 530.223435,412.953341 526.816751,411.32 L527.236751,410.76 C533.910118,411.833339 539.055067,414.913308 542.671751,420 C546.288436,425.086692 548.096751,431.24663 548.096751,438.48 C548.096751,448.233382 544.946783,456.189969 538.646751,462.35 C535.473402,465.430015 531.716773,467.64666 527.376751,469 L526.956751,468.37 C530.083434,466.176656 532.603409,462.560025 534.516751,457.52 C536.616762,452.013306 537.666751,445.690036 537.666751,438.55 Z" id="(halal)"></path>
            </g>
        </g>
    </g>
</svg>