<?xml version="1.0" encoding="UTF-8"?>
<svg width="1933px" height="1013px" viewBox="0 0 1933 1013" version="1.1" xmlns="http://www.w3.org/2000/svg" xmlns:xlink="http://www.w3.org/1999/xlink">
    <!-- Generator: Sketch 55.2 (78181) - https://sketchapp.com -->
    <title>Group 3</title>
    <desc>Created with Sketch.</desc>
    <g id="Page-1" stroke="none" stroke-width="1" fill="none" fill-rule="evenodd">
        <g id="hotswords" transform="translate(-238.000000, -694.000000)">
            <g id="Group-3" transform="translate(238.000000, 694.000000)">
                <g id="sword-bottom" transform="translate(0.000000, 879.000000)">
                    <g id="Group">
                        <rect id="Rectangle" stroke="#FFFFFF" stroke-width="11" x="5.5" y="5.5" width="530" height="123" rx="20"></rect>
                        <ellipse id="Oval" fill="#FFFFFF" cx="458.631532" cy="67.4855072" rx="19.0081081" ry="18.9347826"></ellipse>
                        <ellipse id="Oval" fill="#FFFFFF" cx="302.667568" cy="67.4855072" rx="19.0081081" ry="18.9347826"></ellipse>
                    </g>
                    <polygon id="Path" stroke="#FFFFFF" stroke-width="11" points="536 15 1862.37149 15 1924 67.4814815 1862.37149 119 536 119"></polygon>
                </g>
                <g id="sword-top">
                    <g id="Group">
                        <rect id="Rectangle" stroke="#FFFFFF" stroke-width="11" x="5.5" y="5.5" width="530" height="123" rx="20"></rect>
                        <ellipse id="Oval" fill="#FFFFFF" cx="458.631532" cy="67.4855072" rx="19.0081081" ry="18.9347826"></ellipse>
                        <ellipse id="Oval" fill="#FFFFFF" cx="302.667568" cy="67.4855072" rx="19.0081081" ry="18.9347826"></ellipse>
                    </g>
                    <polygon id="Path" stroke="#FFFFFF" stroke-width="11" points="535 15 1862.32709 15 1924 67.4814815 1862.32709 119 535 119"></polygon>
                </g>
                <path d="M195.661017,281.834669 L204.5547,281.834669 L204.5547,486.389368 L195.661017,486.389368 L195.661017,281.834669 Z M0,281.834669 L8.89368259,281.834669 L8.89368259,486.389368 L0,486.389368 L0,281.834669 Z M177.873652,281.834669 L186.767334,281.834669 L186.767334,486.389368 L177.873652,486.389368 L177.873652,281.834669 Z M160.086287,281.834669 L168.979969,281.834669 L168.979969,486.389368 L160.086287,486.389368 L160.086287,281.834669 Z M142.298921,281.834669 L151.192604,281.834669 L151.192604,486.389368 L142.298921,486.389368 L142.298921,406.222702 L62.2557781,406.222702 L62.2557781,486.389368 L53.3620955,486.389368 L53.3620955,281.834669 L62.2557781,281.834669 L62.2557781,361.754289 L142.298921,361.754289 L142.298921,281.834669 Z M35.5747304,281.834669 L44.4684129,281.834669 L44.4684129,486.389368 L35.5747304,486.389368 L35.5747304,281.834669 Z M17.7873652,281.834669 L26.6810478,281.834669 L26.6810478,486.389368 L17.7873652,486.389368 L17.7873652,281.834669 Z M142.298921,397.329019 L142.298921,388.435336 L62.2557781,388.435336 L62.2557781,397.329019 L142.298921,397.329019 Z M142.298921,379.541654 L142.298921,370.647971 L62.2557781,370.647971 L62.2557781,379.541654 L142.298921,379.541654 Z M300.038264,349.525475 C290.485742,359.077997 285.709553,370.606729 285.709553,384.112019 C285.709553,397.617308 290.485742,409.14604 300.038264,418.698562 C309.590786,428.251084 321.119518,433.027273 334.624807,433.027273 C348.130097,433.027273 359.658829,428.251084 369.211351,418.698562 C378.763872,409.14604 383.540062,397.617308 383.540062,384.112019 C383.540062,370.606729 378.763872,359.077997 369.211351,349.525475 C359.658829,339.972954 348.130097,335.196764 334.624807,335.196764 C321.119518,335.196764 309.590786,339.972954 300.038264,349.525475 Z M281.386235,406.593272 C278.33931,399.428881 276.815871,391.935204 276.815871,384.112019 C276.815871,376.288833 278.33931,368.815744 281.386235,361.692527 C284.43316,354.56931 288.550565,348.413791 293.738572,343.225783 C298.92658,338.037776 305.082099,333.920371 312.205316,330.873446 C319.328532,327.826521 326.801622,326.303082 334.624807,326.303082 C342.447993,326.303082 349.921082,327.826521 357.044299,330.873446 C364.167515,333.920371 370.323035,338.037776 375.511043,343.225783 C380.69905,348.413791 384.816455,354.56931 387.86338,361.692527 C390.910305,368.815744 392.433744,376.288833 392.433744,384.112019 C392.433744,391.935204 390.910305,399.408294 387.86338,406.53151 C384.816455,413.654727 380.69905,419.810246 375.511043,424.998254 C370.323035,430.186261 364.167515,434.303666 357.044299,437.350591 C349.921082,440.397516 342.447993,441.920955 334.624807,441.920955 C326.801622,441.920955 319.328532,440.397516 312.205316,437.350591 C305.082099,434.303666 298.92658,430.186261 293.738572,424.998254 C288.550565,419.810246 284.43316,413.675314 281.386235,406.593272 Z M276.815871,350.637185 C270.886719,360.848502 267.922188,372.006668 267.922188,384.112019 C267.922188,396.217369 270.907306,407.375535 276.877632,417.586852 C282.847958,427.798168 290.938658,435.888868 301.149974,441.859194 C311.361291,447.82952 322.519457,450.814638 334.624807,450.814638 C346.730158,450.814638 357.888324,447.82952 368.09964,441.859194 C378.310957,435.888868 386.401657,427.798168 392.371983,417.586852 C398.342309,407.375535 401.327427,396.217369 401.327427,384.112019 C401.327427,372.006668 398.342309,360.848502 392.371983,350.637185 C386.401657,340.425869 378.310957,332.335169 368.09964,326.364843 C357.888324,320.394517 346.730158,317.409399 334.624807,317.409399 C322.519457,317.409399 311.361291,320.394517 301.149974,326.364843 C290.938658,332.335169 282.827371,340.425869 276.815871,350.637185 Z M269.157422,422.033693 C262.404777,410.422438 259.028505,397.782006 259.028505,384.112019 C259.028505,370.442031 262.404777,357.801599 269.157422,346.190344 C275.910066,334.579089 285.091878,325.397277 296.703133,318.644633 C308.314388,311.891988 320.95482,308.515717 334.624807,308.515717 C348.294795,308.515717 360.935227,311.891988 372.546482,318.644633 C384.157737,325.397277 393.339549,334.579089 400.092193,346.190344 C406.844838,357.801599 410.221109,370.442031 410.221109,384.112019 C410.221109,397.782006 406.844838,410.422438 400.092193,422.033693 C393.339549,433.644948 384.157737,442.82676 372.546482,449.579404 C360.935227,456.332049 348.294795,459.708321 334.624807,459.708321 C320.95482,459.708321 308.314388,456.332049 296.703133,449.579404 C285.091878,442.82676 275.910066,433.644948 269.157422,422.033693 Z M256.805085,351.254802 C252.358221,361.713167 250.134823,372.665462 250.134823,384.112019 C250.134823,395.558575 252.358221,406.510871 256.805085,416.969235 C261.251948,427.427599 267.242772,436.424128 274.777735,443.959091 C282.312698,451.494054 291.309227,457.484878 301.767591,461.931741 C312.225955,466.378605 323.178251,468.602003 334.624807,468.602003 C346.071364,468.602003 357.023659,466.378605 367.482024,461.931741 C377.940388,457.484878 386.936917,451.494054 394.47188,443.959091 C402.006843,436.424128 407.997667,427.427599 412.44453,416.969235 C416.891394,406.510871 419.114792,395.558575 419.114792,384.112019 C419.114792,372.665462 416.891394,361.713167 412.44453,351.254802 C407.997667,340.796438 402.006843,331.799909 394.47188,324.264946 C386.936917,316.729983 377.940388,310.739159 367.482024,306.292296 C357.023659,301.845432 346.071364,299.622034 334.624807,299.622034 C323.178251,299.622034 312.225955,301.845432 301.767591,306.292296 C291.309227,310.739159 282.312698,316.729983 274.777735,324.264946 C267.242772,331.799909 261.251948,340.796438 256.805085,351.254802 Z M253.717001,430.927376 C245.399719,416.598593 241.24114,400.99363 241.24114,384.112019 C241.24114,367.230407 245.420306,351.625444 253.778762,337.296662 C262.137219,322.967879 273.480668,311.62443 287.80945,303.265973 C302.138233,294.907517 317.743196,290.728351 334.624807,290.728351 C351.506419,290.728351 367.111382,294.907517 381.440164,303.265973 C395.768947,311.62443 407.112396,322.967879 415.470853,337.296662 C423.829309,351.625444 428.008475,367.230407 428.008475,384.112019 C428.008475,400.99363 423.829309,416.598593 415.470853,430.927376 C407.112396,445.256158 395.768947,456.599607 381.440164,464.958064 C367.111382,473.31652 351.506419,477.495686 334.624807,477.495686 C317.743196,477.495686 302.138233,473.31652 287.80945,464.958064 C273.480668,456.599607 262.116632,445.256158 253.717001,430.927376 Z M240.376477,344.461017 C235.023771,357.060464 232.347458,370.277332 232.347458,384.112019 C232.347458,397.946705 235.044358,411.18416 240.438238,423.824782 C245.832119,436.465403 253.099338,447.355938 262.240113,456.496713 C271.380888,465.637488 282.271423,472.904707 294.912044,478.298588 C307.552665,483.692468 320.790121,486.389368 334.624807,486.389368 C348.459494,486.389368 361.696949,483.692468 374.337571,478.298588 C386.978192,472.904707 397.868727,465.637488 407.009502,456.496713 C416.150277,447.355938 423.417496,436.465403 428.811376,423.824782 C434.205257,411.18416 436.902157,397.946705 436.902157,384.112019 C436.902157,370.277332 434.205257,357.039877 428.811376,344.399255 C423.417496,331.758634 416.150277,320.868099 407.009502,311.727324 C397.868727,302.586549 386.978192,295.31933 374.337571,289.925449 C361.696949,284.531569 348.459494,281.834669 334.624807,281.834669 C320.790121,281.834669 307.552665,284.531569 294.912044,289.925449 C282.271423,295.31933 271.380888,302.586549 262.240113,311.727324 C253.099338,320.868099 245.811532,331.779221 240.376477,344.461017 Z M232.223934,427.345198 C226.377132,413.592861 223.453775,399.181945 223.453775,384.112019 C223.453775,369.042092 226.397719,354.651764 232.285696,340.940601 C238.173673,327.229438 246.079089,315.412488 256.002183,305.489394 C265.925276,295.5663 277.742227,287.660884 291.45339,281.772907 C305.164552,275.88493 319.554881,272.940986 334.624807,272.940986 C349.694734,272.940986 364.085062,275.88493 377.796225,281.772907 C391.507388,287.660884 403.324338,295.5663 413.247432,305.489394 C423.170526,315.412488 431.075942,327.229438 436.963919,340.940601 C442.851896,354.651764 445.79584,369.042092 445.79584,384.112019 C445.79584,399.181945 442.851896,413.572274 436.963919,427.283436 C431.075942,440.994599 423.170526,452.81155 413.247432,462.734643 C403.324338,472.657737 391.507388,480.563153 377.796225,486.45113 C364.085062,492.339107 349.694734,495.283051 334.624807,495.283051 C319.554881,495.283051 305.164552,492.339107 291.45339,486.45113 C277.742227,480.563153 265.925276,472.657737 256.002183,462.734643 C246.079089,452.81155 238.153086,441.015186 232.223934,427.345198 Z M460.248074,290.728351 L460.248074,281.834669 L593.653313,281.834669 L593.653313,290.728351 L460.248074,290.728351 Z M460.248074,308.515717 L460.248074,299.622034 L593.653313,299.622034 L593.653313,308.515717 L460.248074,308.515717 Z M460.248074,326.303082 L460.248074,317.409399 L593.653313,317.409399 L593.653313,326.303082 L558.078582,326.303082 L558.078582,486.389368 L549.1849,486.389368 L549.1849,326.303082 L540.291217,326.303082 L540.291217,486.389368 L531.397535,486.389368 L531.397535,326.303082 L522.503852,326.303082 L522.503852,486.389368 L513.610169,486.389368 L513.610169,326.303082 L504.716487,326.303082 L504.716487,486.389368 L495.822804,486.389368 L495.822804,326.303082 L460.248074,326.303082 Z M723.846944,361.877812 L708.900616,361.877812 C702.559718,361.877812 697.989399,360.251437 695.189522,356.998639 C692.389645,353.745841 690.989728,349.443153 690.989728,344.090447 C690.989728,332.232144 699.842147,326.303082 717.547252,326.303082 C734.181816,326.303082 746.698725,328.773524 755.098356,333.714484 L747.934001,339.149512 C742.169548,336.514334 732.040733,335.196764 717.547252,335.196764 C710.46521,335.196764 705.709608,335.979071 703.280303,337.543708 C700.850998,339.108346 699.636364,341.29057 699.636364,344.090447 C699.636364,346.890324 700.295148,349.072548 701.612738,350.637185 C702.930327,352.201823 705.359595,352.98413 708.900616,352.98413 L724.217514,352.98413 C735.334673,352.98413 745.360553,354.878136 754.295455,358.666204 C763.230356,362.454273 770.579923,367.621616 776.344376,374.168387 C782.108829,380.715159 786.514451,388.250009 789.561376,396.773164 C792.608301,405.296319 794.131741,414.41637 794.131741,424.13359 C794.131741,432.039125 793.020042,439.532802 790.79661,446.614843 C788.573178,453.696885 785.217494,460.202384 780.729456,466.131536 C776.241417,472.060687 770.847618,477.186856 764.547894,481.510195 C758.248171,485.833535 750.754495,489.209806 742.066641,491.639112 C733.378787,494.068417 723.970518,495.283051 713.841551,495.283051 C697.948131,495.283051 683.063714,492.874369 669.187853,488.056934 C655.311992,483.239498 643.762672,476.507542 634.539548,467.860863 L641.703903,462.549358 C650.103535,470.125496 660.623503,475.992797 673.264124,480.151438 C685.904746,484.310079 699.430419,486.389368 713.841551,486.389368 C725.123409,486.389368 735.313985,484.762994 744.413585,481.510195 C753.513185,478.257397 761.006862,473.790013 766.894838,468.10791 C772.782815,462.425806 777.31196,455.837959 780.482409,448.344171 C783.652858,440.850382 785.238059,432.780269 785.238059,424.13359 C785.238059,412.687034 782.932312,402.331762 778.32075,393.067463 C773.709188,383.803164 766.689013,376.288901 757.260015,370.524448 C747.831018,364.759995 736.693439,361.877812 723.846944,361.877812 Z M708.900616,370.771495 L722.98228,370.771495 C739.699193,370.771495 752.771953,375.877076 762.20095,386.088392 C771.629948,396.299709 776.344376,408.981314 776.344376,424.13359 C776.344376,439.532914 770.868228,452.276281 759.915768,462.364073 C748.963308,472.451865 733.605389,477.495686 713.841551,477.495686 C700.665659,477.495686 688.35462,475.684028 676.908064,472.060658 C665.461508,468.437287 655.950303,463.331706 648.374165,456.74376 L655.291474,451.185208 C662.044119,456.702613 670.546559,460.984713 680.79905,464.031638 C691.051541,467.078564 702.065598,468.602003 713.841551,468.602003 C731.217259,468.602003 744.495888,464.443425 753.677838,456.126143 C762.859787,447.808861 767.450693,437.144784 767.450693,424.13359 C767.450693,411.287096 763.60092,400.664192 755.901258,392.264561 C748.201596,383.86493 737.18754,379.665177 722.858757,379.665177 L708.900616,379.665177 C696.877615,379.665177 687.860499,376.371254 681.848998,369.783308 C675.837498,363.195362 672.831793,354.63116 672.831793,344.090447 C672.831793,333.549733 676.558044,324.985532 684.010657,318.397586 C691.463271,311.80964 702.642024,308.515717 717.547252,308.515717 C728.005616,308.515717 737.722691,309.730351 746.698767,312.159656 C755.674844,314.588961 763.086172,318.068168 768.932974,322.597381 L761.892142,328.032409 C751.598476,320.950367 736.816994,317.409399 717.547252,317.409399 C705.112504,317.409399 696.033627,319.859255 690.310349,324.75904 C684.587071,329.658824 681.725475,336.102562 681.725475,344.090447 C681.725475,352.160681 683.845938,358.625006 688.086929,363.483616 C692.327919,368.342226 699.265745,370.771495 708.900616,370.771495 Z M708.900616,388.55886 L722.488187,388.55886 C734.511188,388.55886 743.528304,391.893957 749.539805,398.564253 C755.551306,405.234548 758.557011,413.757575 758.557011,424.13359 C758.557011,434.674304 754.83076,443.238505 747.378146,449.826451 C739.925532,456.414397 728.746779,459.708321 713.841551,459.708321 C703.383187,459.708321 693.645525,458.493686 684.628274,456.064381 C675.611023,453.635076 668.179108,450.155869 662.332306,445.626656 L669.373138,440.191628 C679.666804,447.27367 694.48946,450.814638 713.841551,450.814638 C726.276299,450.814638 735.355176,448.364782 741.078454,443.464998 C746.801732,438.565213 749.663328,432.121475 749.663328,424.13359 C749.663328,416.145706 747.522278,409.701968 743.240113,404.802183 C738.957948,399.902398 731.999535,397.452542 722.364664,397.452542 L708.900616,397.452542 C692.019005,397.452542 678.822723,392.408722 669.311376,382.32093 C659.800029,372.233137 655.044427,359.489771 655.044427,344.090447 C655.044427,328.691123 660.520575,315.947756 671.473035,305.859964 C682.425496,295.772172 697.783414,290.728351 717.547252,290.728351 C730.723144,290.728351 743.013596,292.540009 754.418978,296.16338 C765.824359,299.78675 775.314977,304.892331 782.891115,311.480277 L775.973806,317.038829 C769.221161,311.521424 760.739308,307.239324 750.527992,304.192399 C740.316676,301.145474 729.323206,299.622034 717.547252,299.622034 C700.171545,299.622034 686.892915,303.780612 677.710966,312.097894 C668.529016,320.415176 663.93811,331.079254 663.93811,344.090447 C663.93811,357.019291 667.80847,367.662781 675.549307,376.021238 C683.290143,384.379694 694.407135,388.55886 708.900616,388.55886 Z M708.900616,406.346225 L722.488187,406.346225 C728.829085,406.346225 733.399404,407.993187 736.199281,411.28716 C738.999158,414.581133 740.399076,418.863233 740.399076,424.13359 C740.399076,435.991893 731.546656,441.920955 713.841551,441.920955 C697.124638,441.920955 684.566555,439.450513 676.166923,434.509553 L683.331279,429.074525 C689.095732,431.709703 699.265721,433.027273 713.841551,433.027273 C720.923593,433.027273 725.679195,432.244966 728.1085,430.680329 C730.537805,429.115692 731.75244,426.933467 731.75244,424.13359 C731.75244,421.416063 731.073068,419.254425 729.714304,417.648613 C728.35554,416.042802 725.86451,415.239908 722.24114,415.239908 L708.900616,415.239908 C697.53641,415.239908 687.263485,413.387076 678.081536,409.681356 C668.899586,405.975636 661.364736,400.870055 655.476759,394.364458 C649.588782,387.858862 645.080225,380.324011 641.95095,371.759682 C638.821676,363.195352 637.257062,353.972366 637.257062,344.090447 C637.257062,336.184912 638.368761,328.691236 640.592193,321.609194 C642.815625,314.527152 646.17131,308.021653 650.659348,302.092501 C655.147386,296.16335 660.541186,291.037181 666.840909,286.713842 C673.140632,282.390502 680.634309,279.014231 689.322162,276.584926 C698.010016,274.155621 707.418285,272.940986 717.547252,272.940986 C733.440672,272.940986 748.304502,275.349668 762.139188,280.167103 C775.973875,284.984539 787.502608,291.716495 796.725732,300.363174 L789.561376,305.674679 C781.161745,298.098541 770.662364,292.23124 758.062917,288.072599 C745.463471,283.913958 731.958384,281.834669 717.547252,281.834669 C706.265395,281.834669 696.074819,283.461044 686.975218,286.713842 C677.875618,289.96664 670.381942,294.434024 664.493965,300.116127 C658.605988,305.798231 654.076843,312.386078 650.906394,319.879867 C647.735945,327.373655 646.150745,335.443768 646.150745,344.090447 C646.150745,355.701702 648.497665,366.159909 653.191577,375.465383 C657.885488,384.770856 665.049772,392.243946 674.684643,397.884874 C684.319514,403.525803 695.724724,406.346225 708.900616,406.346225 Z M872.322034,423.515973 L868.122239,441.056292 L825.877247,281.834669 L835.017976,281.834669 L872.322034,423.515973 Z M881.586287,389.3 L877.015922,406.346225 L844.282229,281.834669 L853.299435,281.834669 L881.586287,389.3 Z M890.850539,353.848793 L886.156651,371.142065 L862.563688,281.834669 L871.82794,281.834669 L890.850539,353.848793 Z M926.0547,486.389368 L916.790447,486.389368 L970.893683,282.081716 L970.770159,281.834669 L980.157935,281.834669 L980.157935,282.081716 L1004.24499,365.08942 L1026.35568,281.834669 L1035.61993,281.834669 L981.393169,486.389368 L972.128916,486.389368 L947.918336,403.505188 L926.0547,486.389368 Z M907.526194,486.389368 L898.385465,486.389368 L952.488701,281.834669 L961.62943,281.834669 L907.526194,486.389368 Z M889.121212,486.389368 L879.980483,486.389368 L934.207242,281.834669 L943.224448,281.834669 L889.121212,486.389368 Z M1036.73164,486.389368 L1027.46739,486.389368 L1081.57062,281.834669 L1090.83487,281.834669 L1036.73164,486.389368 Z M1018.20313,486.389368 L1009.0624,486.389368 L1063.16564,281.834669 L1072.30637,281.834669 L1018.20313,486.389368 Z M999.798151,486.389368 L990.657422,486.389368 L1044.88418,281.834669 L1053.90139,281.834669 L999.798151,486.389368 Z M866.145865,468.84905 L915.678737,281.834669 L924.942989,281.834669 L870.71623,486.389368 L861.451977,486.389368 L807.348742,281.834669 L816.612994,281.834669 L866.145865,468.84905 Z M952.612224,386.088392 L976.575758,469.59019 L981.269646,451.926348 L957.182589,368.671597 L952.612224,386.088392 Z M961.752953,351.254802 L985.84001,434.509553 L990.533898,417.092758 L966.446841,333.714484 L961.752953,351.254802 Z M970.893683,316.668259 L995.104263,399.92301 L999.674628,382.382691 L975.711094,298.880894 L970.893683,316.668259 Z M1166.67822,349.525475 C1157.1257,359.077997 1152.34951,370.606729 1152.34951,384.112019 C1152.34951,397.617308 1157.1257,409.14604 1166.67822,418.698562 C1176.23074,428.251084 1187.75948,433.027273 1201.26477,433.027273 C1214.77006,433.027273 1226.29879,428.251084 1235.85131,418.698562 C1245.40383,409.14604 1250.18002,397.617308 1250.18002,384.112019 C1250.18002,370.606729 1245.40383,359.077997 1235.85131,349.525475 C1226.29879,339.972954 1214.77006,335.196764 1201.26477,335.196764 C1187.75948,335.196764 1176.23074,339.972954 1166.67822,349.525475 Z M1148.02619,406.593272 C1144.97927,399.428881 1143.45583,391.935204 1143.45583,384.112019 C1143.45583,376.288833 1144.97927,368.815744 1148.02619,361.692527 C1151.07312,354.56931 1155.19052,348.413791 1160.37853,343.225783 C1165.56654,338.037776 1171.72206,333.920371 1178.84527,330.873446 C1185.96849,327.826521 1193.44158,326.303082 1201.26477,326.303082 C1209.08795,326.303082 1216.56104,327.826521 1223.68426,330.873446 C1230.80747,333.920371 1236.96299,338.037776 1242.151,343.225783 C1247.33901,348.413791 1251.45641,354.56931 1254.50334,361.692527 C1257.55026,368.815744 1259.0737,376.288833 1259.0737,384.112019 C1259.0737,391.935204 1257.55026,399.408294 1254.50334,406.53151 C1251.45641,413.654727 1247.33901,419.810246 1242.151,424.998254 C1236.96299,430.186261 1230.80747,434.303666 1223.68426,437.350591 C1216.56104,440.397516 1209.08795,441.920955 1201.26477,441.920955 C1193.44158,441.920955 1185.96849,440.397516 1178.84527,437.350591 C1171.72206,434.303666 1165.56654,430.186261 1160.37853,424.998254 C1155.19052,419.810246 1151.07312,413.675314 1148.02619,406.593272 Z M1143.45583,350.637185 C1137.52668,360.848502 1134.56215,372.006668 1134.56215,384.112019 C1134.56215,396.217369 1137.54727,407.375535 1143.51759,417.586852 C1149.48792,427.798168 1157.57862,435.888868 1167.78993,441.859194 C1178.00125,447.82952 1189.15942,450.814638 1201.26477,450.814638 C1213.37012,450.814638 1224.52828,447.82952 1234.7396,441.859194 C1244.95092,435.888868 1253.04162,427.798168 1259.01194,417.586852 C1264.98227,407.375535 1267.96739,396.217369 1267.96739,384.112019 C1267.96739,372.006668 1264.98227,360.848502 1259.01194,350.637185 C1253.04162,340.425869 1244.95092,332.335169 1234.7396,326.364843 C1224.52828,320.394517 1213.37012,317.409399 1201.26477,317.409399 C1189.15942,317.409399 1178.00125,320.394517 1167.78993,326.364843 C1157.57862,332.335169 1149.46733,340.425869 1143.45583,350.637185 Z M1135.79738,422.033693 C1129.04474,410.422438 1125.66846,397.782006 1125.66846,384.112019 C1125.66846,370.442031 1129.04474,357.801599 1135.79738,346.190344 C1142.55003,334.579089 1151.73184,325.397277 1163.34309,318.644633 C1174.95435,311.891988 1187.59478,308.515717 1201.26477,308.515717 C1214.93475,308.515717 1227.57519,311.891988 1239.18644,318.644633 C1250.7977,325.397277 1259.97951,334.579089 1266.73215,346.190344 C1273.4848,357.801599 1276.86107,370.442031 1276.86107,384.112019 C1276.86107,397.782006 1273.4848,410.422438 1266.73215,422.033693 C1259.97951,433.644948 1250.7977,442.82676 1239.18644,449.579404 C1227.57519,456.332049 1214.93475,459.708321 1201.26477,459.708321 C1187.59478,459.708321 1174.95435,456.332049 1163.34309,449.579404 C1151.73184,442.82676 1142.55003,433.644948 1135.79738,422.033693 Z M1123.44504,351.254802 C1118.99818,361.713167 1116.77478,372.665462 1116.77478,384.112019 C1116.77478,395.558575 1118.99818,406.510871 1123.44504,416.969235 C1127.89191,427.427599 1133.88273,436.424128 1141.41769,443.959091 C1148.95266,451.494054 1157.94919,457.484878 1168.40755,461.931741 C1178.86591,466.378605 1189.81821,468.602003 1201.26477,468.602003 C1212.71132,468.602003 1223.66362,466.378605 1234.12198,461.931741 C1244.58035,457.484878 1253.57688,451.494054 1261.11184,443.959091 C1268.6468,436.424128 1274.63763,427.427599 1279.08449,416.969235 C1283.53135,406.510871 1285.75475,395.558575 1285.75475,384.112019 C1285.75475,372.665462 1283.53135,361.713167 1279.08449,351.254802 C1274.63763,340.796438 1268.6468,331.799909 1261.11184,324.264946 C1253.57688,316.729983 1244.58035,310.739159 1234.12198,306.292296 C1223.66362,301.845432 1212.71132,299.622034 1201.26477,299.622034 C1189.81821,299.622034 1178.86591,301.845432 1168.40755,306.292296 C1157.94919,310.739159 1148.95266,316.729983 1141.41769,324.264946 C1133.88273,331.799909 1127.89191,340.796438 1123.44504,351.254802 Z M1120.35696,430.927376 C1112.03968,416.598593 1107.8811,400.99363 1107.8811,384.112019 C1107.8811,367.230407 1112.06026,351.625444 1120.41872,337.296662 C1128.77718,322.967879 1140.12063,311.62443 1154.44941,303.265973 C1168.77819,294.907517 1184.38315,290.728351 1201.26477,290.728351 C1218.14638,290.728351 1233.75134,294.907517 1248.08012,303.265973 C1262.40891,311.62443 1273.75236,322.967879 1282.11081,337.296662 C1290.46927,351.625444 1294.64843,367.230407 1294.64843,384.112019 C1294.64843,400.99363 1290.46927,416.598593 1282.11081,430.927376 C1273.75236,445.256158 1262.40891,456.599607 1248.08012,464.958064 C1233.75134,473.31652 1218.14638,477.495686 1201.26477,477.495686 C1184.38315,477.495686 1168.77819,473.31652 1154.44941,464.958064 C1140.12063,456.599607 1128.75659,445.256158 1120.35696,430.927376 Z M1107.01644,344.461017 C1101.66373,357.060464 1098.98742,370.277332 1098.98742,384.112019 C1098.98742,397.946705 1101.68432,411.18416 1107.0782,423.824782 C1112.47208,436.465403 1119.7393,447.355938 1128.88007,456.496713 C1138.02085,465.637488 1148.91138,472.904707 1161.552,478.298588 C1174.19262,483.692468 1187.43008,486.389368 1201.26477,486.389368 C1215.09945,486.389368 1228.33691,483.692468 1240.97753,478.298588 C1253.61815,472.904707 1264.50869,465.637488 1273.64946,456.496713 C1282.79024,447.355938 1290.05745,436.465403 1295.45134,423.824782 C1300.84522,411.18416 1303.54212,397.946705 1303.54212,384.112019 C1303.54212,370.277332 1300.84522,357.039877 1295.45134,344.399255 C1290.05745,331.758634 1282.79024,320.868099 1273.64946,311.727324 C1264.50869,302.586549 1253.61815,295.31933 1240.97753,289.925449 C1228.33691,284.531569 1215.09945,281.834669 1201.26477,281.834669 C1187.43008,281.834669 1174.19262,284.531569 1161.552,289.925449 C1148.91138,295.31933 1138.02085,302.586549 1128.88007,311.727324 C1119.7393,320.868099 1112.45149,331.779221 1107.01644,344.461017 Z M1098.86389,427.345198 C1093.01709,413.592861 1090.09373,399.181945 1090.09373,384.112019 C1090.09373,369.042092 1093.03768,354.651764 1098.92565,340.940601 C1104.81363,327.229438 1112.71905,315.412488 1122.64214,305.489394 C1132.56524,295.5663 1144.38219,287.660884 1158.09335,281.772907 C1171.80451,275.88493 1186.19484,272.940986 1201.26477,272.940986 C1216.33469,272.940986 1230.72502,275.88493 1244.43618,281.772907 C1258.14735,287.660884 1269.9643,295.5663 1279.88739,305.489394 C1289.81048,315.412488 1297.7159,327.229438 1303.60388,340.940601 C1309.49185,354.651764 1312.4358,369.042092 1312.4358,384.112019 C1312.4358,399.181945 1309.49185,413.572274 1303.60388,427.283436 C1297.7159,440.994599 1289.81048,452.81155 1279.88739,462.734643 C1269.9643,472.657737 1258.14735,480.563153 1244.43618,486.45113 C1230.72502,492.339107 1216.33469,495.283051 1201.26477,495.283051 C1186.19484,495.283051 1171.80451,492.339107 1158.09335,486.45113 C1144.38219,480.563153 1132.56524,472.657737 1122.64214,462.734643 C1112.71905,452.81155 1104.79304,441.015186 1098.86389,427.345198 Z M1398.03749,384.606112 L1451.64664,384.606112 C1459.79922,384.606112 1466.69587,381.970973 1472.3368,376.700616 C1477.97773,371.43026 1480.79815,363.936584 1480.79815,354.219363 C1480.79815,347.054972 1477.83362,340.611234 1471.90447,334.887956 C1465.97532,329.164678 1459.22277,326.303082 1451.64664,326.303082 L1375.30919,326.303082 L1375.30919,486.389368 L1366.41551,486.389368 L1366.41551,317.409399 L1451.64664,317.409399 C1461.69325,317.409399 1470.54567,321.13565 1478.20416,328.588264 C1485.86265,336.040878 1489.69183,344.584492 1489.69183,354.219363 C1489.69183,366.077666 1485.98617,375.58887 1478.57473,382.753262 C1471.16329,389.917653 1462.18735,393.499795 1451.64664,393.499795 L1398.03749,393.499795 L1398.03749,384.606112 Z M1398.03749,402.393477 L1451.64664,402.393477 C1464.49313,402.393477 1475.52777,397.884919 1484.7509,388.867668 C1493.97402,379.850417 1498.58552,368.301098 1498.58552,354.219363 C1498.58552,342.114012 1493.87109,331.470522 1484.44209,322.288572 C1475.01309,313.106623 1464.08138,308.515717 1451.64664,308.515717 L1357.52183,308.515717 L1357.52183,486.389368 L1348.62815,486.389368 L1348.62815,299.622034 L1451.64664,299.622034 C1461.44621,299.622034 1470.6486,302.133651 1479.25411,307.15696 C1487.85961,312.180268 1494.71509,318.912225 1499.82075,327.35303 C1504.92641,335.793836 1507.4792,344.749191 1507.4792,354.219363 C1507.4792,370.44218 1501.98246,384.009028 1490.98883,394.920313 C1479.99519,405.831599 1466.88126,411.28716 1451.64664,411.28716 L1398.03749,411.28716 L1398.03749,402.393477 Z M1398.03749,420.180842 L1451.64664,420.180842 C1463.17554,420.180842 1473.88079,417.339833 1483.76271,411.65773 C1493.64463,405.975627 1501.55005,398.049623 1507.4792,387.879481 C1513.40835,377.70934 1516.37288,366.489413 1516.37288,354.219363 C1516.37288,343.102204 1513.42894,332.664584 1507.54096,322.906189 C1501.65298,313.147794 1493.72698,305.345313 1483.76271,299.498511 C1473.79844,293.651709 1463.09319,290.728351 1451.64664,290.728351 L1339.73446,290.728351 L1339.73446,486.389368 L1330.84078,486.389368 L1330.84078,281.834669 L1451.64664,281.834669 C1464.57548,281.834669 1476.72182,285.149179 1488.08603,291.7783 C1499.45024,298.407421 1508.48794,307.301014 1515.19941,318.459348 C1521.91088,329.617681 1525.26656,341.537567 1525.26656,354.219363 C1525.26656,368.877543 1522.11675,381.765019 1515.81703,392.882178 C1509.5173,403.999337 1500.97369,412.68706 1490.18593,418.945609 L1513.16127,486.389368 L1503.7735,486.389368 L1481.78634,423.145403 C1478.49236,424.462992 1475.98075,425.368821 1474.25141,425.862917 L1494.87982,486.389368 L1485.49204,486.389368 L1465.35773,427.962815 C1464.61659,428.127513 1461.98145,428.415732 1457.45223,428.827478 L1476.59836,486.389368 L1467.21058,486.389368 L1448.3115,429.074525 L1440.28249,429.074525 L1458.3169,486.389368 L1448.92912,486.389368 L1430.77119,429.074525 L1398.03749,429.074525 L1398.03749,420.180842 Z M1393.09656,486.389368 L1384.20288,486.389368 L1384.20288,335.196764 L1451.64664,335.196764 C1457.16404,335.196764 1461.91964,337.070183 1465.91359,340.817078 C1469.90753,344.563972 1471.90447,349.031356 1471.90447,354.219363 C1471.90447,368.548146 1465.15193,375.712429 1451.64664,375.712429 L1398.03749,375.712429 L1398.03749,366.818747 L1451.64664,366.818747 C1455.18766,366.818747 1457.9669,365.892331 1459.98446,364.039471 C1462.00202,362.186611 1463.01079,358.913275 1463.01079,354.219363 C1463.01079,351.337137 1461.91967,348.928455 1459.73742,346.993246 C1457.55516,345.058037 1454.85826,344.090447 1451.64664,344.090447 L1393.09656,344.090447 L1393.09656,486.389368 Z M1597.65126,433.027273 L1597.65126,335.196764 L1658.30123,335.196764 C1668.1008,335.196764 1676.52089,339.993541 1683.56176,349.587237 C1690.60263,359.180933 1694.12301,370.689079 1694.12301,384.112019 C1694.12301,397.617308 1690.60263,409.14604 1683.56176,418.698562 C1676.52089,428.251084 1668.1008,433.027273 1658.30123,433.027273 L1597.65126,433.027273 Z M1606.54494,424.13359 L1658.30123,424.13359 C1665.63032,424.13359 1671.90936,420.222056 1677.13855,412.39887 C1682.36773,404.575684 1684.98228,395.146828 1684.98228,384.112019 C1684.98228,372.99486 1682.36773,363.545416 1677.13855,355.763405 C1671.90936,347.981394 1665.63032,344.090447 1658.30123,344.090447 L1606.54494,344.090447 L1606.54494,424.13359 Z M1588.75758,441.920955 L1658.30123,441.920955 C1670.57128,441.920955 1681.13242,436.259524 1689.98498,424.936492 C1698.83753,413.61346 1703.26374,400.005438 1703.26374,384.112019 C1703.26374,373.653654 1701.22562,363.977754 1697.14933,355.084027 C1693.07304,346.1903 1687.59689,339.170125 1680.72072,334.023292 C1673.84456,328.87646 1666.37147,326.303082 1658.30123,326.303082 L1588.75758,326.303082 L1588.75758,441.920955 Z M1579.86389,450.814638 L1579.86389,317.409399 L1658.30123,317.409399 C1667.9361,317.409399 1676.91205,320.37393 1685.22933,326.303082 C1693.54661,332.232233 1700.15504,340.322933 1705.05483,350.575424 C1709.95461,360.827915 1712.40447,372.006668 1712.40447,384.112019 C1712.40447,396.13502 1709.95461,407.293186 1705.05483,417.586852 C1700.15504,427.880517 1693.54661,435.991804 1685.22933,441.920955 C1676.91205,447.850107 1667.9361,450.814638 1658.30123,450.814638 L1579.86389,450.814638 Z M1570.97021,459.708321 L1658.30123,459.708321 C1669.58309,459.708321 1680.06188,456.332049 1689.73793,449.579404 C1699.41398,442.82676 1707.13411,433.644948 1712.89856,422.033693 C1718.66301,410.422438 1721.5452,397.782006 1721.5452,384.112019 C1721.5452,370.52438 1718.66301,357.904535 1712.89856,346.252106 C1707.13411,334.599676 1699.39339,325.397277 1689.67617,318.644633 C1679.95895,311.891988 1669.50074,308.515717 1658.30123,308.515717 L1570.97021,308.515717 L1570.97021,459.708321 Z M1562.07653,468.602003 L1562.07653,299.622034 L1658.30123,299.622034 C1671.14773,299.622034 1683.12937,303.389459 1694.24653,310.924422 C1705.36369,318.459385 1714.21611,328.73231 1720.80406,341.743503 C1727.392,354.754696 1730.68593,368.877394 1730.68593,384.112019 C1730.68593,399.346644 1727.392,413.469341 1720.80406,426.480534 C1714.21611,439.491728 1705.36369,449.764652 1694.24653,457.299615 C1683.12937,464.834578 1671.14773,468.602003 1658.30123,468.602003 L1562.07653,468.602003 Z M1553.18285,477.495686 L1658.30123,477.495686 C1669.08899,477.495686 1679.50603,475.025243 1689.55265,470.084284 C1699.59926,465.143324 1708.28699,458.514303 1715.61608,450.197021 C1722.94517,441.879739 1728.81247,431.936208 1733.21816,420.366127 C1737.62385,408.796047 1739.82666,396.711465 1739.82666,384.112019 C1739.82666,371.512572 1737.62385,359.448577 1733.21816,347.919671 C1728.81247,336.390766 1722.94517,326.447234 1715.61608,318.088778 C1708.28699,309.730321 1699.59926,303.080713 1689.55265,298.139754 C1679.50603,293.198794 1669.08899,290.728351 1658.30123,290.728351 L1553.18285,290.728351 L1553.18285,477.495686 Z M1658.30123,486.389368 L1544.28916,486.389368 L1544.28916,281.834669 L1658.30123,281.834669 C1674.35935,281.834669 1689.3467,286.404988 1703.26374,295.545763 C1717.18077,304.686538 1728.27718,317.121099 1736.55329,332.84982 C1744.82939,348.578541 1748.96739,365.66577 1748.96739,384.112019 C1748.96739,397.946705 1746.51753,411.18416 1741.61775,423.824782 C1736.71796,436.465403 1730.19187,447.355938 1722.03929,456.496713 C1713.88671,465.637488 1704.23139,472.904707 1693.07306,478.298588 C1681.91473,483.692468 1670.32423,486.389368 1658.30123,486.389368 Z M1851.12121,361.877812 L1836.17488,361.877812 C1829.83399,361.877812 1825.26367,360.251437 1822.46379,356.998639 C1819.66391,353.745841 1818.264,349.443153 1818.264,344.090447 C1818.264,332.232144 1827.11642,326.303082 1844.82152,326.303082 C1861.45608,326.303082 1873.97299,328.773524 1882.37262,333.714484 L1875.20827,339.149512 C1869.44382,336.514334 1859.315,335.196764 1844.82152,335.196764 C1837.73948,335.196764 1832.98388,335.979071 1830.55457,337.543708 C1828.12527,339.108346 1826.91063,341.29057 1826.91063,344.090447 C1826.91063,346.890324 1827.56942,349.072548 1828.88701,350.637185 C1830.20459,352.201823 1832.63386,352.98413 1836.17488,352.98413 L1851.49178,352.98413 C1862.60894,352.98413 1872.63482,354.878136 1881.56972,358.666204 C1890.50462,362.454273 1897.85419,367.621616 1903.61864,374.168387 C1909.3831,380.715159 1913.78872,388.250009 1916.83564,396.773164 C1919.88257,405.296319 1921.40601,414.41637 1921.40601,424.13359 C1921.40601,432.039125 1920.29431,439.532802 1918.07088,446.614843 C1915.84745,453.696885 1912.49176,460.202384 1908.00372,466.131536 C1903.51569,472.060687 1898.12189,477.186856 1891.82216,481.510195 C1885.52244,485.833535 1878.02876,489.209806 1869.34091,491.639112 C1860.65306,494.068417 1851.24479,495.283051 1841.11582,495.283051 C1825.2224,495.283051 1810.33798,492.874369 1796.46212,488.056934 C1782.58626,483.239498 1771.03694,476.507542 1761.81382,467.860863 L1768.97817,462.549358 C1777.3778,470.125496 1787.89777,475.992797 1800.53839,480.151438 C1813.17901,484.310079 1826.70469,486.389368 1841.11582,486.389368 C1852.39768,486.389368 1862.58825,484.762994 1871.68785,481.510195 C1880.78745,478.257397 1888.28113,473.790013 1894.16911,468.10791 C1900.05708,462.425806 1904.58623,455.837959 1907.75668,448.344171 C1910.92713,440.850382 1912.51233,432.780269 1912.51233,424.13359 C1912.51233,412.687034 1910.20658,402.331762 1905.59502,393.067463 C1900.98346,383.803164 1893.96328,376.288901 1884.53428,370.524448 C1875.10529,364.759995 1863.96771,361.877812 1851.12121,361.877812 Z M1836.17488,370.771495 L1850.25655,370.771495 C1866.97346,370.771495 1880.04622,375.877076 1889.47522,386.088392 C1898.90422,396.299709 1903.61864,408.981314 1903.61864,424.13359 C1903.61864,439.532914 1898.1425,452.276281 1887.19004,462.364073 C1876.23758,472.451865 1860.87966,477.495686 1841.11582,477.495686 C1827.93993,477.495686 1815.62889,475.684028 1804.18233,472.060658 C1792.73578,468.437287 1783.22457,463.331706 1775.64843,456.74376 L1782.56574,451.185208 C1789.31839,456.702613 1797.82083,460.984713 1808.07332,464.031638 C1818.32581,467.078564 1829.33987,468.602003 1841.11582,468.602003 C1858.49153,468.602003 1871.77016,464.443425 1880.95211,456.126143 C1890.13406,447.808861 1894.72496,437.144784 1894.72496,424.13359 C1894.72496,411.287096 1890.87519,400.664192 1883.17553,392.264561 C1875.47586,383.86493 1864.46181,379.665177 1850.13303,379.665177 L1836.17488,379.665177 C1824.15188,379.665177 1815.13477,376.371254 1809.12327,369.783308 C1803.11177,363.195362 1800.10606,354.63116 1800.10606,344.090447 C1800.10606,333.549733 1803.83231,324.985532 1811.28493,318.397586 C1818.73754,311.80964 1829.91629,308.515717 1844.82152,308.515717 C1855.27988,308.515717 1864.99696,309.730351 1873.97304,312.159656 C1882.94911,314.588961 1890.36044,318.068168 1896.20724,322.597381 L1889.16641,328.032409 C1878.87274,320.950367 1864.09126,317.409399 1844.82152,317.409399 C1832.38677,317.409399 1823.3079,319.859255 1817.58462,324.75904 C1811.86134,329.658824 1808.99974,336.102562 1808.99974,344.090447 C1808.99974,352.160681 1811.12021,358.625006 1815.3612,363.483616 C1819.60219,368.342226 1826.54001,370.771495 1836.17488,370.771495 Z M1836.17488,388.55886 L1849.76246,388.55886 C1861.78546,388.55886 1870.80257,391.893957 1876.81407,398.564253 C1882.82557,405.234548 1885.83128,413.757575 1885.83128,424.13359 C1885.83128,434.674304 1882.10503,443.238505 1874.65241,449.826451 C1867.1998,456.414397 1856.02105,459.708321 1841.11582,459.708321 C1830.65745,459.708321 1820.91979,458.493686 1811.90254,456.064381 C1802.88529,453.635076 1795.45338,450.155869 1789.60657,445.626656 L1796.64741,440.191628 C1806.94107,447.27367 1821.76373,450.814638 1841.11582,450.814638 C1853.55057,450.814638 1862.62944,448.364782 1868.35272,443.464998 C1874.076,438.565213 1876.9376,432.121475 1876.9376,424.13359 C1876.9376,416.145706 1874.79655,409.701968 1870.51438,404.802183 C1866.23222,399.902398 1859.2738,397.452542 1849.63893,397.452542 L1836.17488,397.452542 C1819.29327,397.452542 1806.09699,392.408722 1796.58564,382.32093 C1787.0743,372.233137 1782.3187,359.489771 1782.3187,344.090447 C1782.3187,328.691123 1787.79484,315.947756 1798.7473,305.859964 C1809.69976,295.772172 1825.05768,290.728351 1844.82152,290.728351 C1857.99741,290.728351 1870.28786,292.540009 1881.69325,296.16338 C1893.09863,299.78675 1902.58924,304.892331 1910.16538,311.480277 L1903.24807,317.038829 C1896.49543,311.521424 1888.01358,307.239324 1877.80226,304.192399 C1867.59094,301.145474 1856.59747,299.622034 1844.82152,299.622034 C1827.44581,299.622034 1814.16718,303.780612 1804.98523,312.097894 C1795.80328,320.415176 1791.21238,331.079254 1791.21238,344.090447 C1791.21238,357.019291 1795.08274,367.662781 1802.82357,376.021238 C1810.56441,384.379694 1821.6814,388.55886 1836.17488,388.55886 Z M1836.17488,406.346225 L1849.76246,406.346225 C1856.10335,406.346225 1860.67367,407.993187 1863.47355,411.28716 C1866.27343,414.581133 1867.67334,418.863233 1867.67334,424.13359 C1867.67334,435.991893 1858.82092,441.920955 1841.11582,441.920955 C1824.39891,441.920955 1811.84082,439.450513 1803.44119,434.509553 L1810.60555,429.074525 C1816.37,431.709703 1826.53999,433.027273 1841.11582,433.027273 C1848.19786,433.027273 1852.95346,432.244966 1855.38277,430.680329 C1857.81207,429.115692 1859.02671,426.933467 1859.02671,424.13359 C1859.02671,421.416063 1858.34734,419.254425 1856.98857,417.648613 C1855.62981,416.042802 1853.13878,415.239908 1849.51541,415.239908 L1836.17488,415.239908 C1824.81068,415.239908 1814.53775,413.387076 1805.3558,409.681356 C1796.17385,405.975636 1788.639,400.870055 1782.75103,394.364458 C1776.86305,387.858862 1772.35449,380.324011 1769.22522,371.759682 C1766.09594,363.195352 1764.53133,353.972366 1764.53133,344.090447 C1764.53133,336.184912 1765.64303,328.691236 1767.86646,321.609194 C1770.08989,314.527152 1773.44558,308.021653 1777.93362,302.092501 C1782.42165,296.16335 1787.81545,291.037181 1794.11518,286.713842 C1800.4149,282.390502 1807.90858,279.014231 1816.59643,276.584926 C1825.28428,274.155621 1834.69255,272.940986 1844.82152,272.940986 C1860.71494,272.940986 1875.57877,275.349668 1889.41346,280.167103 C1903.24814,284.984539 1914.77688,291.716495 1924,300.363174 L1916.83564,305.674679 C1908.43601,298.098541 1897.93663,292.23124 1885.33719,288.072599 C1872.73774,283.913958 1859.23265,281.834669 1844.82152,281.834669 C1833.53966,281.834669 1823.34909,283.461044 1814.24949,286.713842 C1805.14989,289.96664 1797.65621,294.434024 1791.76823,300.116127 C1785.88026,305.798231 1781.35111,312.386078 1778.18066,319.879867 C1775.01021,327.373655 1773.42501,335.443768 1773.42501,344.090447 C1773.42501,355.701702 1775.77193,366.159909 1780.46584,375.465383 C1785.15976,384.770856 1792.32404,392.243946 1801.95891,397.884874 C1811.59378,403.525803 1822.99899,406.346225 1836.17488,406.346225 Z" id="HOTSWORDS" fill="#FFFFFF" fill-rule="nonzero"></path>
                <path d="M0,638.21781 L19.1656353,638.21781 L19.1656353,717.452958 L64.8988064,717.452958 L64.8988064,736.065241 L0,736.065241 L0,638.21781 Z M159.255174,676.766499 L134.728912,736.065241 L115.819408,736.065241 L159.721193,634.224037 L160.779067,634.224037 L204.680851,736.065241 L182.46549,736.065241 L159.255174,676.766499 L159.255174,676.766499 Z M144.736465,700.121287 L173.971637,700.121287 L180.718215,717.094821 L138.783601,717.094821 L144.736465,700.121287 Z M281.894655,693.089824 L302.748178,638.21781 L325.492475,638.21781 L281.061754,740.059014 L236.631033,638.21781 L259.639799,638.21781 L281.894655,693.089824 L281.894655,693.089824 Z M402.875309,676.766499 L378.349047,736.065241 L359.439543,736.065241 L403.341328,634.224037 L404.399202,634.224037 L448.300986,736.065241 L426.085625,736.065241 L402.875309,676.766499 L402.875309,676.766499 Z M388.356599,700.121287 L417.591772,700.121287 L424.33835,717.094821 L382.403736,717.094821 L388.356599,700.121287 Z M615.715092,638.21781 C621.826924,638.21781 627.274344,638.993314 632.057516,640.544345 C636.840689,642.095377 640.84875,644.311102 644.08182,647.191589 C647.31489,650.072076 649.772873,653.528608 651.455841,657.56129 C653.138809,661.593971 653.98028,666.136209 653.98028,671.18814 C653.98028,675.176506 653.382393,679.164813 652.1866,683.153179 C650.990806,687.141545 649.042136,690.775336 646.340529,694.054659 C643.638922,697.333983 640.073741,699.970696 635.644878,701.96488 C631.216014,703.959063 625.724306,704.956139 619.169588,704.956139 L605.351604,704.956139 L605.351604,736.065241 L586.086144,736.065241 L586.086144,638.21781 L615.715092,638.21781 Z M618.863739,686.143082 C621.81286,686.143082 624.270423,685.664854 626.236503,684.708382 C628.202583,683.751911 629.744145,682.534602 630.861236,681.056419 C631.978327,679.578236 632.78262,678.034862 633.27414,676.426251 C633.76566,674.81764 634.011417,673.317742 634.011417,671.926511 C634.011417,670.883093 633.855026,669.55709 633.542241,667.948479 C633.229455,666.339868 632.581552,664.709544 631.598512,663.057457 C630.615472,661.40537 629.118593,660.01416 627.107829,658.883785 C625.097066,657.753409 622.393746,657.18823 618.99779,657.18823 L605.056565,657.18823 L605.056565,686.143082 L618.863739,686.143082 Z M636.911121,699.122844 L660.969382,736.065241 L638.629568,736.065241 L614.042553,699.643159 L636.911121,699.122844 Z M708.894655,687.274297 C708.894655,680.547164 710.178102,674.174186 712.745034,668.155173 C715.311967,662.136159 718.874638,656.803215 723.433156,652.156183 C727.991674,647.50915 733.28036,643.857965 739.299374,641.202518 C745.318388,638.547084 751.779879,637.219367 758.684042,637.219367 C765.49969,637.219367 771.916925,638.547084 777.935938,641.202518 C783.954952,643.857965 789.287895,647.50915 793.934928,652.156183 C798.581961,656.803215 802.211018,662.136159 804.822207,668.155173 C807.433397,674.174186 808.738972,680.547164 808.738972,687.274297 C808.738972,694.17846 807.433397,700.639951 804.822207,706.658965 C802.211018,712.677979 798.581961,717.966665 793.934928,722.525183 C789.287895,727.083701 783.954952,730.646373 777.935938,733.213305 C771.916925,735.780237 765.49969,737.063684 758.684042,737.063684 C751.779879,737.063684 745.318388,735.780237 739.299374,733.213305 C733.28036,730.646373 727.991674,727.083701 723.433156,722.525183 C718.874638,717.966665 715.311967,712.677979 712.745034,706.658965 C710.178102,700.639951 708.894655,694.17846 708.894655,687.274297 Z M728.863518,687.272677 C728.863518,691.556979 729.636641,695.557057 731.182911,699.273033 C732.72918,702.989009 734.893925,706.267762 737.677209,709.109391 C740.460494,711.951019 743.685522,714.158713 747.352389,715.732538 C751.019256,717.306363 755.017407,718.093264 759.346961,718.093264 C763.499798,718.093264 767.365413,717.306363 770.943922,715.732538 C774.522431,714.158713 777.637013,711.951019 780.28776,709.109391 C782.938507,706.267762 785.014895,702.989009 786.516985,699.273033 C788.019075,695.557057 788.770109,691.556979 788.770109,687.272677 C788.770109,682.900941 787.996986,678.835287 786.450717,675.075594 C784.904447,671.3159 782.783881,668.015289 780.088955,665.17366 C777.394028,662.332032 774.235268,660.12433 770.61258,658.550513 C766.989892,656.976688 763.058009,656.189787 758.816814,656.189787 C754.575618,656.189787 750.643735,656.976688 747.021047,658.550513 C743.398359,660.12433 740.21751,662.332032 737.478404,665.17366 C734.739299,668.015289 732.618733,671.3159 731.116642,675.075594 C729.614552,678.835287 728.863518,682.900941 728.863518,687.272677 Z M941.531915,727.893824 C940.474931,728.778889 938.515137,729.973709 935.652473,731.47832 C932.789809,732.98293 929.288603,734.310508 925.14875,735.461092 C921.008898,736.611677 916.428704,737.142708 911.408031,737.054201 C903.7449,736.877188 896.896629,735.483232 890.863014,732.87229 C884.829399,730.261348 879.720722,726.699015 875.536828,722.185183 C871.352934,717.671352 868.160011,712.493799 865.957961,706.65237 C863.755912,700.810941 862.654904,694.571326 862.654904,687.933339 C862.654904,680.498792 863.777932,673.683894 866.024023,667.488439 C868.270113,661.292984 871.485057,655.938421 875.66895,651.424589 C879.852844,646.910758 884.851421,643.414803 890.664831,640.936621 C896.478241,638.458439 902.908128,637.219367 909.954686,637.219367 C916.472752,637.219367 922.242035,638.104418 927.262707,639.874548 C932.283379,641.644678 936.379129,643.54754 939.55008,645.583189 L932.01911,663.771184 C929.81706,662.089561 926.888379,660.341584 923.232977,658.5272 C919.577575,656.712817 915.371724,655.805639 910.615298,655.805639 C906.915855,655.805639 903.370609,656.580059 899.979453,658.128923 C896.588297,659.677787 893.593555,661.86829 890.995137,664.700498 C888.396718,667.532706 886.348843,670.829524 884.85145,674.59105 C883.354056,678.352576 882.605371,682.445941 882.605371,686.871266 C882.605371,691.56211 883.287996,695.854611 884.653266,699.748897 C886.018537,703.643183 887.978331,706.984254 890.532709,709.772209 C893.087086,712.560163 896.147888,714.706414 899.715208,716.211024 C903.282528,717.715635 907.312218,718.467929 911.804398,718.467929 C917.001235,718.467929 921.449307,717.62713 925.14875,715.945506 C928.848193,714.263883 931.666774,712.493779 933.604577,710.635143 L941.531915,727.893824 Z M1020.95857,673.049368 L1020.42742,677.968329 L1023.34879,674.245872 L1055.21829,638.21781 L1080.18273,638.21781 L1039.81469,682.08962 L1080.31552,736.065241 L1055.88223,736.065241 L1025.739,694.320549 L1020.95857,699.106565 L1020.95857,736.065241 L1001.43851,736.065241 L1001.43851,638.21781 L1020.95857,638.21781 L1020.95857,673.049368 Z M1238.61919,673.049368 L1238.08803,677.968329 L1241.0094,674.245872 L1272.8789,638.21781 L1297.84334,638.21781 L1257.47531,682.08962 L1297.97613,736.065241 L1273.54285,736.065241 L1243.39961,694.320549 L1238.61919,699.106565 L1238.61919,736.065241 L1219.09912,736.065241 L1219.09912,638.21781 L1238.61919,638.21781 L1238.61919,673.049368 Z M1352.8905,638.21781 L1419.9139,638.21781 L1419.9139,656.830093 L1372.24985,656.830093 L1372.24985,677.702439 L1414.43988,677.702439 L1414.43988,696.314722 L1372.24985,696.314722 L1372.24985,717.452958 L1421.78308,717.452958 L1421.78308,736.065241 L1352.8905,736.065241 L1352.8905,638.21781 Z M1533.24673,684.50724 C1537.66351,686.559712 1541.28798,689.188233 1544.12022,692.392848 C1547.76263,696.51416 1549.58381,701.455229 1549.58381,707.216202 C1549.58381,712.534024 1548.6288,717.031947 1546.71875,720.710108 C1544.80871,724.388268 1542.23241,727.35734 1538.98977,729.617414 C1535.74713,731.877489 1532.08257,733.517126 1527.99596,734.536375 C1523.90935,735.555624 1519.68954,736.065241 1515.33641,736.065241 L1482.68812,736.065241 L1482.68812,638.21781 L1511.47192,638.21781 C1521.68845,638.21781 1529.81712,640.278435 1535.8582,644.399747 C1541.89927,648.521059 1544.91977,654.658619 1544.91977,662.812613 C1544.91977,668.839477 1543.43173,673.869175 1540.45561,677.901856 C1538.50881,680.539799 1536.10586,682.741586 1533.24673,684.50724 L1533.24673,684.50724 Z M1513.40766,679.15398 C1517.23504,679.15398 1520.06103,677.971571 1521.88572,675.606716 C1523.7104,673.241862 1524.62273,670.558702 1524.62273,667.557156 C1524.62273,664.10083 1523.48788,661.508624 1521.21815,659.780462 C1518.94843,658.052299 1515.89992,657.18823 1512.07253,657.18823 L1501.65854,657.18823 L1501.65854,679.15398 L1513.40766,679.15398 Z M1513.77009,718.093264 C1516.54838,718.093264 1519.06617,717.721972 1521.32353,716.979376 C1523.58089,716.23678 1525.3607,715.057381 1526.66303,713.441143 C1527.96535,711.824905 1528.6165,709.793717 1528.6165,707.347519 C1528.6165,704.551864 1527.83512,702.433314 1526.27233,700.991804 C1524.70954,699.550295 1522.69097,698.545621 1520.21656,697.977754 C1517.74214,697.409887 1515.15924,697.125957 1512.46777,697.125957 L1501.65854,697.125957 L1501.65854,718.093264 L1513.77009,718.093264 Z M1638.94796,676.766499 L1614.4217,736.065241 L1595.5122,736.065241 L1639.41398,634.224037 L1640.47185,634.224037 L1684.37364,736.065241 L1662.15828,736.065241 L1638.94796,676.766499 L1638.94796,676.766499 Z M1624.42925,700.121287 L1653.66442,700.121287 L1660.411,717.094821 L1618.47639,717.094821 L1624.42925,700.121287 Z M1788.84819,684.50724 C1793.26496,686.559712 1796.88943,689.188233 1799.72167,692.392848 C1803.36408,696.51416 1805.18526,701.455229 1805.18526,707.216202 C1805.18526,712.534024 1804.23025,717.031947 1802.32021,720.710108 C1800.41016,724.388268 1797.83386,727.35734 1794.59122,729.617414 C1791.34859,731.877489 1787.68402,733.517126 1783.59741,734.536375 C1779.5108,735.555624 1775.29099,736.065241 1770.93787,736.065241 L1738.28957,736.065241 L1738.28957,638.21781 L1767.07337,638.21781 C1777.2899,638.21781 1785.41858,640.278435 1791.45965,644.399747 C1797.50073,648.521059 1800.52122,654.658619 1800.52122,662.812613 C1800.52122,668.839477 1799.03318,673.869175 1796.05706,677.901856 C1794.11026,680.539799 1791.70732,682.741586 1788.84819,684.50724 L1788.84819,684.50724 Z M1770.00755,679.15398 C1773.83494,679.15398 1776.66093,677.971571 1778.48561,675.606716 C1780.3103,673.241862 1781.22263,670.558702 1781.22263,667.557156 C1781.22263,664.10083 1780.08778,661.508624 1777.81805,659.780462 C1775.54832,658.052299 1772.49981,657.18823 1768.67243,657.18823 L1758.25843,657.18823 L1758.25843,679.15398 L1770.00755,679.15398 Z M1770.36998,718.093264 C1773.14827,718.093264 1775.66606,717.721972 1777.92342,716.979376 C1780.18078,716.23678 1781.9606,715.057381 1783.26292,713.441143 C1784.56525,711.824905 1785.2164,709.793717 1785.2164,707.347519 C1785.2164,704.551864 1784.43502,702.433314 1782.87223,700.991804 C1781.30944,699.550295 1779.29087,698.545621 1776.81645,697.977754 C1774.34204,697.409887 1771.75913,697.125957 1769.06767,697.125957 L1758.25843,697.125957 L1758.25843,718.093264 L1770.36998,718.093264 Z M1916.69241,662.268544 C1912.97217,660.242282 1909.18555,658.568438 1905.33243,657.246962 C1901.47932,655.925487 1897.86985,655.264759 1894.50392,655.264759 C1890.34079,655.264759 1887.06348,656.101681 1884.67189,657.77555 C1882.2803,659.449419 1881.08453,661.960185 1881.08453,665.307922 C1881.08453,667.59848 1881.99243,669.646736 1883.80827,671.452753 C1885.6241,673.258769 1887.97136,674.866541 1890.85012,676.276114 C1893.72888,677.685688 1896.71832,678.963095 1899.81853,680.108374 C1902.653,681.165549 1905.46529,682.420938 1908.25547,683.874561 C1911.04565,685.328184 1913.54792,687.134173 1915.76236,689.292583 C1917.97679,691.450993 1919.74831,694.137953 1921.07696,697.353544 C1922.40562,700.569134 1923.06994,704.511477 1923.06994,709.18069 C1923.06994,714.114199 1921.78559,718.695245 1919.21685,722.923967 C1916.64811,727.152689 1912.88363,730.566449 1907.92331,733.165351 C1902.96298,735.764253 1896.85124,737.063684 1889.5879,737.063684 C1885.86766,737.063684 1882.08104,736.689272 1878.22793,735.940436 C1874.37481,735.1916 1870.58819,734.046338 1866.86795,732.504617 C1863.1477,730.962895 1859.56038,729.002736 1856.10586,726.62408 L1864.60924,711.691481 C1866.91225,713.36535 1869.41452,714.840976 1872.11613,716.118402 C1874.81773,717.395828 1877.54144,718.38692 1880.28734,719.091707 C1883.03323,719.796494 1885.55765,720.148882 1887.86066,720.148882 C1890.16366,720.148882 1892.48878,719.818518 1894.83608,719.157781 C1897.18338,718.497043 1899.13205,717.373805 1900.68215,715.788035 C1902.23225,714.202272 1903.00729,711.999838 1903.00729,709.18069 C1903.00729,707.242526 1902.36512,705.480585 1901.08075,703.894815 C1899.79638,702.309052 1898.06915,700.855443 1895.899,699.533967 C1893.72886,698.212492 1891.35945,697.06723 1888.79071,696.098148 C1885.77909,694.952869 1882.67893,693.631414 1879.49015,692.133741 C1876.30136,690.636069 1873.31193,688.808055 1870.52174,686.649645 C1867.73156,684.491235 1865.47287,681.804275 1863.74562,678.588685 C1862.01836,675.373095 1861.15474,671.430752 1861.15474,666.761538 C1861.15474,661.123243 1862.41695,656.233857 1864.9414,652.093233 C1867.46585,647.95261 1871.03104,644.670995 1875.63705,642.24829 C1880.24307,639.825585 1885.55763,638.482105 1891.58088,638.21781 C1899.46426,638.21781 1905.86387,639.142829 1910.77991,640.992895 C1915.69595,642.842951 1920.1026,645.045386 1924,647.600239 L1916.69241,662.268544 Z" id="LAVAROCKKEBABS" fill="#FFFFFF" fill-rule="nonzero"></path>
            </g>
        </g>
    </g>
</svg>