<svg height="469" viewBox="0 0 794 469" width="794" xmlns="http://www.w3.org/2000/svg"><g fill="#fff"><path d="m12.74 84.732c-4.7200236 7.5520378-7.08 15.28096-7.08 23.187 0 8.614043 3.12696873 16.460965 9.381 23.541 3.4220171 4.01202 7.7584737 7.138989 13.0095 9.381s11.0034687 3.363 17.2575 3.363 11.8589752-1.179988 16.815-3.54c9.9120496-4.838024 14.868-12.743945 14.868-23.718 0-4.130021-1.3864861-8.495977-4.1595-13.098s-6.9324723-8.7319817-12.4785-12.39l-30.09-20.178c-11.6820584-7.3160366-17.523-16.7559422-17.523-28.32 0-1.1800059.0589994-2.3599941.177-3.54.7080035-9.0860454 4.3364673-16.4904714 10.8855-22.2135s15.3104451-8.5845 26.2845-8.5845c6.7260336 0 14.8679522.5899941 24.426 1.77h10.974l-2.301 26.019h-1.593c-.1180006-6.1360307-2.477977-11.0624814-7.08-14.7795s-10.6789622-5.5755-18.231-5.5755c-9.204046 0-15.8709793 2.7729723-20.001 8.319-2.00601 2.8320142-3.009 5.8999835-3.009 9.204s1.00299 6.1064885 3.009 8.4075 5.1919782 4.8084864 9.558 7.5225l33.099 21.594c6.7260336 4.3660218 11.9769811 9.4989705 15.753 15.399 4.4840224 6.9620348 6.726 14.100963 6.726 21.417 0 4.720024-.97349 9.705474-2.9205 14.9565-1.9470097 5.251026-5.1329779 10.118478-9.558 14.6025s-10.1184652 8.141986-17.0805 10.974-14.6614578 4.248-23.0985 4.248-16.0774658-1.474985-22.9215-4.425c-12.6260631-5.310027-20.64998289-14.572934-24.072-27.789-.70800354-2.832014-1.062-5.781985-1.062-8.85 0-9.91205 3.48096519-19.2929558 10.443-28.143zm267.115 82.659c-12.862064 6.490032-25.900934 7.552022-39.117 3.186-14.04207-4.484022-26.136949-14.041927-36.285-28.674-5.428027-7.788039-10.088981-16.814949-13.983-27.081l-5.664-15.045h-41.772l-9.381 22.302c-.590003 1.534008-.885 2.772995-.885 3.717s.206498 1.976494.6195 3.0975 1.297993 2.123996 2.655 3.009 2.861492 1.3275 4.5135 1.3275h1.416v1.77h-37.878v-1.77h1.593c2.714014 0 5.398487-.796492 8.0535-2.3895s4.867491-3.982484 6.6375-7.1685l39.471-90.093c-4.602023-10.3840519-9.498974-17.5229805-14.691-21.417-4.366022-3.30401652-8.52548-4.956-12.4785-4.956s-7.640483.5899941-11.0625 1.77l-.354-1.77c8.496042-4.36602183 16.637961-6.549 24.426-6.549 9.676048 0 18.348962 3.77596224 26.019 11.328 7.552038 7.4340372 14.218971 18.1719298 20.001 32.214l25.665 63.366c9.676048 23.95412 19.587949 40.414955 29.736 49.383 4.130021 3.658018 8.377978 6.194993 12.744 7.611s8.053485 2.124 11.0625 2.124 5.929486-.353996 8.7615-1.062zm-133.812-75.225h36.108l-12.39-32.745c-.590003-1.6520083-1.415995-3.9234855-2.478-6.8145s-1.769998-4.9264941-2.124-6.1065zm151.711-73.278h-13.452v103.191c.118001 4.366022 2.005982 7.610989 5.664 9.735 1.770009.944005 3.65799 1.416 5.664 1.416h2.301v1.77h-53.808v-1.77h2.301c4.248021 0 7.492989-1.828982 9.735-5.487.944005-1.652008 1.474999-3.48099 1.593-5.487v-98.235c-.118001-3.0680153-1.268489-5.6934891-3.4515-7.8765s-4.808485-3.2745-7.8765-3.2745h-2.301v-1.77h60.711c11.446057 0 21.12196 2.4779752 29.028 7.434 4.01202 2.4780124 7.197988 5.9294779 9.558 10.3545s3.54 9.439972 3.54 15.045-.97349 10.7674764-2.9205 15.4875-5.191977 8.8499823-9.735 12.39-10.000468 5.6639965-16.3725 6.372c6.844034 2.2420112 12.861974 7.4339593 18.054 15.576 12.744064 20.414102 22.183969 32.567981 28.32 36.462 3.068015 1.888009 6.902977 2.890999 11.505 3.009v1.77h-17.346c-10.03005 0-18.407966-1.386486-25.134-4.1595s-12.212979-7.522466-16.461-14.2485c-2.124011-3.422017-4.837983-8.584465-8.142-15.4875-3.304017-6.9030345-5.486995-11.8294853-6.549-14.7795-3.186016-7.0800354-7.197976-11.0329959-12.036-11.859v-1.77h5.487c5.310027 0 10.00048-1.5929841 14.0715-4.779s6.814493-8.377964 8.2305-15.576c.472002-2.4780124.708-4.4249929.708-5.841 0-9.6760484-1.946981-16.6674785-5.841-20.9745s-8.908969-6.5194994-15.045-6.6375zm241.804 148.503c-12.862064 6.490032-25.900934 7.552022-39.117 3.186-14.04207-4.484022-26.136949-14.041927-36.285-28.674-5.428027-7.788039-10.088981-16.814949-13.983-27.081l-5.664-15.045h-41.772l-9.381 22.302c-.590003 1.534008-.885 2.772995-.885 3.717s.206498 1.976494.6195 3.0975 1.297993 2.123996 2.655 3.009 2.861492 1.3275 4.5135 1.3275h1.416v1.77h-37.878v-1.77h1.593c2.714014 0 5.398487-.796492 8.0535-2.3895s4.867491-3.982484 6.6375-7.1685l39.471-90.093c-4.602023-10.3840519-9.498974-17.5229805-14.691-21.417-4.366022-3.30401652-8.52548-4.956-12.4785-4.956s-7.640483.5899941-11.0625 1.77l-.354-1.77c8.496042-4.36602183 16.637961-6.549 24.426-6.549 9.676048 0 18.348962 3.77596224 26.019 11.328 7.552038 7.4340372 14.218971 18.1719298 20.001 32.214l25.665 63.366c9.676048 23.95412 19.587949 40.414955 29.736 49.383 4.130021 3.658018 8.377978 6.194993 12.744 7.611s8.053485 2.124 11.0625 2.124 5.929486-.353996 8.7615-1.062zm-133.812-75.225h36.108l-12.39-32.745c-.590003-1.6520083-1.415995-3.9234855-2.478-6.8145s-1.769998-4.9264941-2.124-6.1065zm183.748 41.064c3.068015 0 5.427992-.766992 7.08-2.301 2.714014-2.714014 4.129999-5.604985 4.248-8.673v-45.135h-57.348v44.958c0 3.068015 1.120989 5.693489 3.363 7.8765s4.896985 3.2745 7.965 3.2745h2.124l.177 1.77h-53.808v-1.77h2.301c3.068015 0 5.693489-1.091489 7.8765-3.2745s3.333499-4.808485 3.4515-7.8765v-98.235c-.118001-3.0680153-1.268489-5.6639894-3.4515-7.788s-4.808485-3.186-7.8765-3.186h-2.301v-1.77h53.808l-.177 1.77h-2.124c-3.068015 0-5.722989 1.0619894-7.965 3.186s-3.363 4.7199847-3.363 7.788v45.666h57.348v-45.666c-.118001-3.0680153-1.268489-5.6639894-3.4515-7.788s-4.808485-3.186-7.8765-3.186h-2.301v-1.77h53.808v1.77h-2.301c-3.068015 0-5.722989 1.0914891-7.965 3.2745s-3.363 4.8084847-3.363 7.8765v98.058c0 3.068015 1.120989 5.693489 3.363 7.8765s4.896985 3.2745 7.965 3.2745h2.301v1.77h-53.808v-1.77zm66.928-87.615c3.304017-10.0300502 4.956-17.3754767 4.956-22.0365s-.235998-8.8204817-.708-12.4785l18.939-2.478v2.7435c0 1.3570068-.265497 3.5989844-.7965 6.726s-1.504493 6.6079808-2.9205 10.443-3.628485 7.4339832-6.6375 10.797-6.460481 5.7524929-10.3545 7.1685zm48.343 39.117c-4.720024 7.5520378-7.08 15.28096-7.08 23.187 0 8.614043 3.126969 16.460965 9.381 23.541 3.422017 4.01202 7.758474 7.138989 13.0095 9.381s11.003469 3.363 17.2575 3.363 11.858975-1.179988 16.815-3.54c9.91205-4.838024 14.868-12.743945 14.868-23.718 0-4.130021-1.386486-8.495977-4.1595-13.098s-6.932472-8.7319817-12.4785-12.39l-30.09-20.178c-11.682058-7.3160366-17.523-16.7559422-17.523-28.32 0-1.1800059.058999-2.3599941.177-3.54.708004-9.0860454 4.336467-16.4904714 10.8855-22.2135s15.310445-8.5845 26.2845-8.5845c6.726034 0 14.867952.5899941 24.426 1.77h10.974l-2.301 26.019h-1.593c-.118001-6.1360307-2.477977-11.0624814-7.08-14.7795s-10.678962-5.5755-18.231-5.5755c-9.204046 0-15.870979 2.7729723-20.001 8.319-2.00601 2.8320142-3.009 5.8999835-3.009 9.204s1.00299 6.1064885 3.009 8.4075 5.191978 4.8084864 9.558 7.5225l33.099 21.594c6.726034 4.3660218 11.976981 9.4989705 15.753 15.399 4.484022 6.9620348 6.726 14.100963 6.726 21.417 0 4.720024-.97349 9.705474-2.9205 14.9565s-5.132978 10.118478-9.558 14.6025-10.118465 8.141986-17.0805 10.974-14.661458 4.248-23.0985 4.248-16.077466-1.474985-22.9215-4.425c-12.626063-5.310027-20.649983-14.572934-24.072-27.789-.708004-2.832014-1.062-5.781985-1.062-8.85 0-9.91205 3.480965-19.2929558 10.443-28.143z"/><path d="m68.9766186 303.22c-7.1780358 0-13.560472-1.701983-19.1475-5.106-5.5870279-3.404017-9.8974848-8.06597-12.9315-13.986-3.0340151-5.92003-4.551-12.505964-4.551-19.758s1.5169849-13.83797 4.551-19.758c3.0340152-5.92003 7.3444721-10.581983 12.9315-13.986 5.587028-3.404017 11.9694642-5.106 19.1475-5.106 7.1780359 0 13.5419723 1.701983 19.092 5.106 5.5500278 3.404017 9.8419849 8.06597 12.8760004 13.986 3.034015 5.92003 4.551 12.505964 4.551 19.758s-1.516985 13.83797-4.551 19.758c-3.0340155 5.92003-7.3259726 10.581983-12.8760004 13.986-5.5500277 3.404017-11.9139641 5.106-19.092 5.106zm0-4.995c6.7340337 0 11.9509815-2.941471 15.651-8.8245s5.55-14.226446 5.55-25.0305-1.8499815-19.147471-5.55-25.0305-8.9169663-8.8245-15.651-8.8245c-6.7340336 0-11.9324816 2.941471-15.5955 8.8245-3.6630183 5.883029-5.4945 14.226446-5.4945 25.0305s1.8314817 19.147471 5.4945 25.0305c3.6630184 5.883029 8.8614664 8.8245 15.5955 8.8245zm57.9557964-52.17v54.945h-5.55v-59.94c0-3.108016-.758492-5.549991-2.2755-7.326-1.517007-1.776009-4.088482-2.664-7.7145-2.664h-.555v-3.33h7.77c4.144021 0 7.529487.536495 10.1565 1.6095s4.828491 2.756489 6.6045 5.0505l38.184 44.4v-51.06h5.55v73.593h-5.106zm117.021593-13.32h-7.881c-4.14402 0-7.307489 1.03599-9.4905 3.108-2.18301 2.07201-3.2745 5.475976-3.2745 10.212h-3.33v-9.435c0-5.92003 3.144969-8.88 9.435-8.88h52.17v4.995h-23.199v68.265h-14.43zm50.185797 9.435c0-3.774019-.517995-6.567491-1.554-8.3805s-3.107984-2.7195-6.216-2.7195h-1.11v-3.33h13.32c2.664013 0 4.698993.443996 6.105 1.332s2.404997 2.34949 2.997 4.3845.888 4.939481.888 8.7135v18.315h29.97v-32.745h14.43v58.83c0 3.774019.517995 6.567491 1.554 8.3805s3.107985 2.7195 6.216 2.7195h1.11v3.33h-13.32c-2.664013 0-4.698993-.425496-6.105-1.2765s-2.404997-2.29399-2.997-4.329-.888-4.976481-.888-8.8245v-21.09h-29.97v35.52h-14.43zm81.487797 0c0-3.774019-.517995-6.567491-1.554-8.3805s-3.107985-2.7195-6.216-2.7195h-1.11v-3.33h48.951c6.290031 0 9.435 2.95997 9.435 8.88v9.435h-3.33c0-4.588023-1.165489-7.954989-3.4965-10.101-2.331012-2.146011-5.790477-3.219-10.3785-3.219h-17.871v27.75h28.86v4.995h-28.86v30.525h18.981c4.218021 0 7.732986-.943491 10.545-2.8305s5.14299-5.161477 6.993-9.8235l2.997 1.11-3.219 8.769c-.962005 2.664013-2.108994 4.624994-3.441 5.883-1.332007 1.258006-3.403986 1.887-6.216 1.887h-41.07zm149.100593 59.94c-4.07002 0-7.769983-1.202488-11.1-3.6075s-6.807982-6.56747-10.434-12.4875l-11.1-18.537h-4.44v33.522h-14.541v-58.83c0-3.774019-.517995-6.567491-1.554-8.3805s-3.107985-2.7195-6.216-2.7195h-1.11v-3.33h30.636c7.696038 0 14.614969 1.405986 20.757 4.218s9.213 8.21396 9.213 16.206c0 9.250046-5.99394 15.391985-17.982 18.426l11.655 19.425c4.366022 7.326037 8.953976 11.395996 13.764 12.21v2.775c-.592003.296001-1.664992.554999-3.219.777s-2.996993.333-4.329.333zm-30.414-39.072c4.144021 0 7.677485-1.239488 10.6005-3.7185s4.3845-6.382473 4.3845-11.7105c0-5.254026-1.442986-9.138987-4.329-11.655-2.886015-2.516013-6.252981-3.774-10.101-3.774-2.146011 0-3.810994.147999-4.995.444l-2.22.333v30.081zm78.934797 40.182c-7.178036 0-13.560473-1.701983-19.1475-5.106-5.587028-3.404017-9.897485-8.06597-12.9315-13.986-3.034016-5.92003-4.551-12.505964-4.551-19.758s1.516984-13.83797 4.551-19.758c3.034015-5.92003 7.344472-10.581983 12.9315-13.986 5.587027-3.404017 11.969464-5.106 19.1475-5.106 7.178035 0 13.541972 1.701983 19.092 5.106 5.550027 3.404017 9.841984 8.06597 12.876 13.986 3.034015 5.92003 4.551 12.505964 4.551 19.758s-1.516985 13.83797-4.551 19.758c-3.034016 5.92003-7.325973 10.581983-12.876 13.986-5.550028 3.404017-11.913965 5.106-19.092 5.106zm0-4.995c6.734033 0 11.950981-2.941471 15.651-8.8245 3.700018-5.883029 5.55-14.226446 5.55-25.0305s-1.849982-19.147471-5.55-25.0305c-3.700019-5.883029-8.916967-8.8245-15.651-8.8245-6.734034 0-11.932482 2.941471-15.5955 8.8245-3.663019 5.883029-5.4945 14.226446-5.4945 25.0305s1.831481 19.147471 5.4945 25.0305c3.663018 5.883029 8.861466 8.8245 15.5955 8.8245zm109.570796 3.219c-4.662023 0-8.879981-.98049-12.654-2.9415s-6.844988-5.790472-9.213-11.4885l-2.553-6.216h-29.526l-9.102 20.202h-5.772l32.745-73.26h4.995l24.864 59.274c2.812014 6.882034 6.659976 10.581997 11.544 11.1v2.775c-1.332007.370002-3.107989.555-5.328.555zm-51.615-25.641h25.086l-12.21-28.971zm65.836797-33.633c0-3.774019-.517995-6.567491-1.554-8.3805s-3.107985-2.7195-6.216-2.7195h-1.11v-3.33h30.192c14.948074 0 26.325461 3.163468 34.1325 9.4905s11.7105 15.225443 11.7105 26.6955c0 7.326037-1.646484 13.782472-4.9395 19.3695-3.293017 5.587028-8.176968 9.934484-14.652 13.0425-6.475033 3.108016-14.263455 4.662-23.3655 4.662h-24.198zm23.865 54.39c5.180026 0 9.78648-1.294987 13.8195-3.885s7.177988-6.326976 9.435-11.211c2.257011-4.884024 3.3855-10.581967 3.3855-17.094 0-6.438032-1.128489-12.080476-3.3855-16.9275-2.257012-4.847024-5.42048-8.602487-9.4905-11.2665-4.070021-2.664013-8.731974-3.996-13.986-3.996h-.888c-2.442012 0-4.402993.147999-5.883.444l-2.442.333v62.826l2.442.444c1.554008.222001 3.514988.333 5.883.333z"/><path d="m260.414548 438.48c0 7.093369.97999 13.288307 2.94 18.585s4.549984 9.064989 7.77 11.305l-.42.63c-4.386689-1.35334-8.166651-3.569985-11.34-6.65-6.253365-6.160031-9.38-14.116618-9.38-23.87 0-9.893383 3.126635-17.453307 9.38-22.68 3.173349-2.613346 6.999978-4.29333 11.48-5.04l.42.56c-3.453351 1.633341-6.124991 4.78331-8.015 9.45s-2.835 10.569964-2.835 17.71zm50.898701 22.82c1.213339 0 2.146663-.30333 2.8-.91 1.073338-1.073339 1.633333-2.216661 1.68-3.43v-17.85h-22.68v17.78c0 1.213339.443328 2.251662 1.33 3.115.886671.863338 1.93666 1.295 3.15 1.295h.84l.07.7h-21.28v-.7h.91c1.213339 0 2.251662-.431662 3.115-1.295.863337-.863338 1.318333-1.901661 1.365-3.115v-38.85c-.046667-1.213339-.501663-2.239996-1.365-3.08-.863338-.840004-1.901661-1.26-3.115-1.26h-.91v-.7h21.28l-.07.7h-.84c-1.21334 0-2.263329.419996-3.15 1.26-.886672.840004-1.33 1.866661-1.33 3.08v18.06h22.68v-18.06c-.046667-1.213339-.501663-2.239996-1.365-3.08-.863338-.840004-1.901661-1.26-3.115-1.26h-.91v-.7h21.28v.7h-.91c-1.21334 0-2.263329.431662-3.15 1.295-.886672.863338-1.33 1.901661-1.33 3.115v38.78c0 1.213339.443328 2.251662 1.33 3.115.886671.863338 1.93666 1.295 3.15 1.295h.91v.7h-21.28v-.7zm74.6287 0h.63v.7h-22.33v-.7h.63c1.026672 0 1.784998-.314997 2.275-.945.490003-.630003.735-1.224997.735-1.785s-.116665-1.119997-.35-1.68l-3.43-8.61h-16.38l-3.64 8.61c-.233334.60667-.35 1.178331-.35 1.715s.244998 1.119997.735 1.75c.490003.630003 1.271661.945 2.345.945h.56v.7h-14.98v-.7h.63c1.073339 0 2.146661-.326663 3.22-.98s1.959997-1.633327 2.66-2.94l16.17-36.61c2.193344-4.620023 3.359999-7.676659 3.5-9.17h.63l20.79 45.64c.700004 1.35334 1.586661 2.36833 2.66 3.045s2.169995 1.015 3.29 1.015zm-37.03-15.96h14l-6.79-17.22zm40.328701 15.96c1.213339 0 2.251662-.431662 3.115-1.295.863337-.863338 1.318333-1.901661 1.365-3.115v-38.78c-.046667-1.213339-.501663-2.251662-1.365-3.115-.863338-.863338-1.901661-1.295-3.115-1.295h-.91v-.7h21.28l-.07.7h-.84c-1.21334 0-2.263329.431662-3.15 1.295s-1.33 1.901661-1.33 3.115v40.88h9.17c3.406683 0 6.264988-.97999 8.575-2.94 2.310011-1.96001 4.024994-4.736649 5.145-8.33h.7l-3.22 14.28h-36.26v-.7zm91.9187 0h.63v.7h-22.33v-.7h.63c1.026672 0 1.784998-.314997 2.275-.945.490003-.630003.735-1.224997.735-1.785s-.116665-1.119997-.35-1.68l-3.43-8.61h-16.38l-3.64 8.61c-.233334.60667-.35 1.178331-.35 1.715s.244998 1.119997.735 1.75c.490003.630003 1.271662.945 2.345.945h.56v.7h-14.98v-.7h.63c1.073339 0 2.146662-.326663 3.22-.98 1.073339-.653337 1.959997-1.633327 2.66-2.94l16.17-36.61c2.193345-4.620023 3.36-7.676659 3.5-9.17h.63l20.79 45.64c.700004 1.35334 1.586662 2.36833 2.66 3.045 1.073339.67667 2.169995 1.015 3.29 1.015zm-37.03-15.96h14l-6.79-17.22zm40.328701 15.96c1.213339 0 2.251662-.431662 3.115-1.295.863337-.863338 1.318333-1.901661 1.365-3.115v-38.78c-.046667-1.213339-.501663-2.251662-1.365-3.115-.863338-.863338-1.901661-1.295-3.115-1.295h-.91v-.7h21.28l-.07.7h-.84c-1.21334 0-2.263329.431662-3.15 1.295s-1.33 1.901661-1.33 3.115v40.88h9.17c3.406684 0 6.264988-.97999 8.575-2.94 2.310011-1.96001 4.024994-4.736649 5.145-8.33h.7l-3.22 14.28h-36.26v-.7zm53.2087-22.75c0-7.186703-.956657-13.11331-2.87-17.78-1.913342-4.66669-4.573316-7.816659-7.98-9.45l.42-.56c6.673367 1.073339 11.818316 4.153308 15.435 9.24 3.616685 5.086692 5.425 11.24663 5.425 18.48 0 9.753382-3.149968 17.709969-9.45 23.87-3.173349 3.080015-6.929978 5.29666-11.27 6.65l-.42-.63c3.126683-2.193344 5.646658-5.809975 7.56-10.85 2.100011-5.506694 3.15-11.829964 3.15-18.97z"/></g></svg>