<?xml version="1.0" encoding="UTF-8"?>
<svg width="1933px" height="1013px" viewBox="0 0 1933 1013" version="1.1" xmlns="http://www.w3.org/2000/svg" xmlns:xlink="http://www.w3.org/1999/xlink">
    <!-- Generator: Sketch 55.2 (78181) - https://sketchapp.com -->
    <title>Group 3</title>
    <desc>Created with Sketch.</desc>
    <g id="Page-1" stroke="none" stroke-width="1" fill="none" fill-rule="evenodd">
        <g id="hotswords" transform="translate(-238.000000, -694.000000)">
            <g id="Group-3" transform="translate(238.000000, 694.000000)">
                <g id="sword-bottom" transform="translate(0.000000, 879.000000)">
                    <g id="Group">
                        <rect id="Rectangle" stroke="#FFFFFF" stroke-width="11" x="5.5" y="5.5" width="530" height="123" rx="20"></rect>
                        <ellipse id="Oval" fill="#FFFFFF" cx="458.631532" cy="67.4855072" rx="19.0081081" ry="18.9347826"></ellipse>
                        <ellipse id="Oval" fill="#FFFFFF" cx="302.667568" cy="67.4855072" rx="19.0081081" ry="18.9347826"></ellipse>
                    </g>
                    <polygon id="Path" stroke="#FFFFFF" stroke-width="11" points="536 15 1862.37149 15 1924 67.4814815 1862.37149 119 536 119"></polygon>
                </g>
                <g id="sword-top">
                    <g id="Group">
                        <rect id="Rectangle" stroke="#FFFFFF" stroke-width="11" x="5.5" y="5.5" width="530" height="123" rx="20"></rect>
                        <ellipse id="Oval" fill="#FFFFFF" cx="458.631532" cy="67.4855072" rx="19.0081081" ry="18.9347826"></ellipse>
                        <ellipse id="Oval" fill="#FFFFFF" cx="302.667568" cy="67.4855072" rx="19.0081081" ry="18.9347826"></ellipse>
                    </g>
                    <polygon id="Path" stroke="#FFFFFF" stroke-width="11" points="535 15 1862.32709 15 1924 67.4814815 1862.32709 119 535 119"></polygon>
                </g>
                <path d="M195.661017,282.446328 L204.5547,282.446328 L204.5547,487.001027 L195.661017,487.001027 L195.661017,282.446328 Z M0,282.446328 L8.89368259,282.446328 L8.89368259,487.001027 L0,487.001027 L0,282.446328 Z M177.873652,282.446328 L186.767334,282.446328 L186.767334,487.001027 L177.873652,487.001027 L177.873652,282.446328 Z M160.086287,282.446328 L168.979969,282.446328 L168.979969,487.001027 L160.086287,487.001027 L160.086287,282.446328 Z M142.298921,282.446328 L151.192604,282.446328 L151.192604,487.001027 L142.298921,487.001027 L142.298921,406.834361 L62.2557781,406.834361 L62.2557781,487.001027 L53.3620955,487.001027 L53.3620955,282.446328 L62.2557781,282.446328 L62.2557781,362.365948 L142.298921,362.365948 L142.298921,282.446328 Z M35.5747304,282.446328 L44.4684129,282.446328 L44.4684129,487.001027 L35.5747304,487.001027 L35.5747304,282.446328 Z M17.7873652,282.446328 L26.6810478,282.446328 L26.6810478,487.001027 L17.7873652,487.001027 L17.7873652,282.446328 Z M142.298921,397.940678 L142.298921,389.046995 L62.2557781,389.046995 L62.2557781,397.940678 L142.298921,397.940678 Z M142.298921,380.153313 L142.298921,371.25963 L62.2557781,371.25963 L62.2557781,380.153313 L142.298921,380.153313 Z M300.038264,350.137134 C290.485742,359.689656 285.709553,371.218388 285.709553,384.723677 C285.709553,398.228967 290.485742,409.757699 300.038264,419.310221 C309.590786,428.862743 321.119518,433.638932 334.624807,433.638932 C348.130097,433.638932 359.658829,428.862743 369.211351,419.310221 C378.763872,409.757699 383.540062,398.228967 383.540062,384.723677 C383.540062,371.218388 378.763872,359.689656 369.211351,350.137134 C359.658829,340.584612 348.130097,335.808423 334.624807,335.808423 C321.119518,335.808423 309.590786,340.584612 300.038264,350.137134 Z M281.386235,407.204931 C278.33931,400.040539 276.815871,392.546863 276.815871,384.723677 C276.815871,376.900492 278.33931,369.427403 281.386235,362.304186 C284.43316,355.180969 288.550565,349.02545 293.738572,343.837442 C298.92658,338.649435 305.082099,334.53203 312.205316,331.485105 C319.328532,328.43818 326.801622,326.914741 334.624807,326.914741 C342.447993,326.914741 349.921082,328.43818 357.044299,331.485105 C364.167515,334.53203 370.323035,338.649435 375.511043,343.837442 C380.69905,349.02545 384.816455,355.180969 387.86338,362.304186 C390.910305,369.427403 392.433744,376.900492 392.433744,384.723677 C392.433744,392.546863 390.910305,400.019952 387.86338,407.143169 C384.816455,414.266386 380.69905,420.421905 375.511043,425.609913 C370.323035,430.79792 364.167515,434.915325 357.044299,437.96225 C349.921082,441.009175 342.447993,442.532614 334.624807,442.532614 C326.801622,442.532614 319.328532,441.009175 312.205316,437.96225 C305.082099,434.915325 298.92658,430.79792 293.738572,425.609913 C288.550565,420.421905 284.43316,414.286973 281.386235,407.204931 Z M276.815871,351.248844 C270.886719,361.460161 267.922188,372.618327 267.922188,384.723677 C267.922188,396.829028 270.907306,407.987194 276.877632,418.198511 C282.847958,428.409827 290.938658,436.500527 301.149974,442.470853 C311.361291,448.441179 322.519457,451.426297 334.624807,451.426297 C346.730158,451.426297 357.888324,448.441179 368.09964,442.470853 C378.310957,436.500527 386.401657,428.409827 392.371983,418.198511 C398.342309,407.987194 401.327427,396.829028 401.327427,384.723677 C401.327427,372.618327 398.342309,361.460161 392.371983,351.248844 C386.401657,341.037528 378.310957,332.946828 368.09964,326.976502 C357.888324,321.006176 346.730158,318.021058 334.624807,318.021058 C322.519457,318.021058 311.361291,321.006176 301.149974,326.976502 C290.938658,332.946828 282.827371,341.037528 276.815871,351.248844 Z M269.157422,422.645352 C262.404777,411.034097 259.028505,398.393665 259.028505,384.723677 C259.028505,371.05369 262.404777,358.413258 269.157422,346.802003 C275.910066,335.190748 285.091878,326.008936 296.703133,319.256292 C308.314388,312.503647 320.95482,309.127375 334.624807,309.127375 C348.294795,309.127375 360.935227,312.503647 372.546482,319.256292 C384.157737,326.008936 393.339549,335.190748 400.092193,346.802003 C406.844838,358.413258 410.221109,371.05369 410.221109,384.723677 C410.221109,398.393665 406.844838,411.034097 400.092193,422.645352 C393.339549,434.256607 384.157737,443.438419 372.546482,450.191063 C360.935227,456.943708 348.294795,460.319979 334.624807,460.319979 C320.95482,460.319979 308.314388,456.943708 296.703133,450.191063 C285.091878,443.438419 275.910066,434.256607 269.157422,422.645352 Z M256.805085,351.866461 C252.358221,362.324825 250.134823,373.277121 250.134823,384.723677 C250.134823,396.170234 252.358221,407.122529 256.805085,417.580894 C261.251948,428.039258 267.242772,437.035787 274.777735,444.57075 C282.312698,452.105713 291.309227,458.096537 301.767591,462.5434 C312.225955,466.990264 323.178251,469.213662 334.624807,469.213662 C346.071364,469.213662 357.023659,466.990264 367.482024,462.5434 C377.940388,458.096537 386.936917,452.105713 394.47188,444.57075 C402.006843,437.035787 407.997667,428.039258 412.44453,417.580894 C416.891394,407.122529 419.114792,396.170234 419.114792,384.723677 C419.114792,373.277121 416.891394,362.324825 412.44453,351.866461 C407.997667,341.408097 402.006843,332.411568 394.47188,324.876605 C386.936917,317.341642 377.940388,311.350818 367.482024,306.903955 C357.023659,302.457091 346.071364,300.233693 334.624807,300.233693 C323.178251,300.233693 312.225955,302.457091 301.767591,306.903955 C291.309227,311.350818 282.312698,317.341642 274.777735,324.876605 C267.242772,332.411568 261.251948,341.408097 256.805085,351.866461 Z M253.717001,431.539034 C245.399719,417.210252 241.24114,401.605289 241.24114,384.723677 C241.24114,367.842066 245.420306,352.237103 253.778762,337.90832 C262.137219,323.579538 273.480668,312.236089 287.80945,303.877632 C302.138233,295.519176 317.743196,291.34001 334.624807,291.34001 C351.506419,291.34001 367.111382,295.519176 381.440164,303.877632 C395.768947,312.236089 407.112396,323.579538 415.470853,337.90832 C423.829309,352.237103 428.008475,367.842066 428.008475,384.723677 C428.008475,401.605289 423.829309,417.210252 415.470853,431.539034 C407.112396,445.867817 395.768947,457.211266 381.440164,465.569723 C367.111382,473.928179 351.506419,478.107345 334.624807,478.107345 C317.743196,478.107345 302.138233,473.928179 287.80945,465.569723 C273.480668,457.211266 262.116632,445.867817 253.717001,431.539034 Z M240.376477,345.072676 C235.023771,357.672123 232.347458,370.888991 232.347458,384.723677 C232.347458,398.558364 235.044358,411.795819 240.438238,424.436441 C245.832119,437.077062 253.099338,447.967597 262.240113,457.108372 C271.380888,466.249147 282.271423,473.516366 294.912044,478.910247 C307.552665,484.304127 320.790121,487.001027 334.624807,487.001027 C348.459494,487.001027 361.696949,484.304127 374.337571,478.910247 C386.978192,473.516366 397.868727,466.249147 407.009502,457.108372 C416.150277,447.967597 423.417496,437.077062 428.811376,424.436441 C434.205257,411.795819 436.902157,398.558364 436.902157,384.723677 C436.902157,370.888991 434.205257,357.651536 428.811376,345.010914 C423.417496,332.370293 416.150277,321.479758 407.009502,312.338983 C397.868727,303.198208 386.978192,295.930989 374.337571,290.537108 C361.696949,285.143228 348.459494,282.446328 334.624807,282.446328 C320.790121,282.446328 307.552665,285.143228 294.912044,290.537108 C282.271423,295.930989 271.380888,303.198208 262.240113,312.338983 C253.099338,321.479758 245.811532,332.39088 240.376477,345.072676 Z M232.223934,427.956857 C226.377132,414.204519 223.453775,399.793604 223.453775,384.723677 C223.453775,369.653751 226.397719,355.263422 232.285696,341.55226 C238.173673,327.841097 246.079089,316.024147 256.002183,306.101053 C265.925276,296.177959 277.742227,288.272543 291.45339,282.384566 C305.164552,276.496589 319.554881,273.552645 334.624807,273.552645 C349.694734,273.552645 364.085062,276.496589 377.796225,282.384566 C391.507388,288.272543 403.324338,296.177959 413.247432,306.101053 C423.170526,316.024147 431.075942,327.841097 436.963919,341.55226 C442.851896,355.263422 445.79584,369.653751 445.79584,384.723677 C445.79584,399.793604 442.851896,414.183932 436.963919,427.895095 C431.075942,441.606258 423.170526,453.423208 413.247432,463.346302 C403.324338,473.269396 391.507388,481.174812 377.796225,487.062789 C364.085062,492.950766 349.694734,495.89471 334.624807,495.89471 C319.554881,495.89471 305.164552,492.950766 291.45339,487.062789 C277.742227,481.174812 265.925276,473.269396 256.002183,463.346302 C246.079089,453.423208 238.153086,441.626845 232.223934,427.956857 Z M460.248074,291.34001 L460.248074,282.446328 L593.653313,282.446328 L593.653313,291.34001 L460.248074,291.34001 Z M460.248074,309.127375 L460.248074,300.233693 L593.653313,300.233693 L593.653313,309.127375 L460.248074,309.127375 Z M460.248074,326.914741 L460.248074,318.021058 L593.653313,318.021058 L593.653313,326.914741 L558.078582,326.914741 L558.078582,487.001027 L549.1849,487.001027 L549.1849,326.914741 L540.291217,326.914741 L540.291217,487.001027 L531.397535,487.001027 L531.397535,326.914741 L522.503852,326.914741 L522.503852,487.001027 L513.610169,487.001027 L513.610169,326.914741 L504.716487,326.914741 L504.716487,487.001027 L495.822804,487.001027 L495.822804,326.914741 L460.248074,326.914741 Z M723.846944,362.489471 L708.900616,362.489471 C702.559718,362.489471 697.989399,360.863096 695.189522,357.610298 C692.389645,354.3575 690.989728,350.054812 690.989728,344.702106 C690.989728,332.843803 699.842147,326.914741 717.547252,326.914741 C734.181816,326.914741 746.698725,329.385183 755.098356,334.326143 L747.934001,339.761171 C742.169548,337.125993 732.040733,335.808423 717.547252,335.808423 C710.46521,335.808423 705.709608,336.59073 703.280303,338.155367 C700.850998,339.720004 699.636364,341.902229 699.636364,344.702106 C699.636364,347.501983 700.295148,349.684207 701.612738,351.248844 C702.930327,352.813482 705.359595,353.595788 708.900616,353.595788 L724.217514,353.595788 C735.334673,353.595788 745.360553,355.489794 754.295455,359.277863 C763.230356,363.065932 770.579923,368.233275 776.344376,374.780046 C782.108829,381.326818 786.514451,388.861668 789.561376,397.384823 C792.608301,405.907978 794.131741,415.028029 794.131741,424.745249 C794.131741,432.650784 793.020042,440.14446 790.79661,447.226502 C788.573178,454.308544 785.217494,460.814043 780.729456,466.743195 C776.241417,472.672346 770.847618,477.798515 764.547894,482.121854 C758.248171,486.445194 750.754495,489.821465 742.066641,492.25077 C733.378787,494.680075 723.970518,495.89471 713.841551,495.89471 C697.948131,495.89471 683.063714,493.486028 669.187853,488.668593 C655.311992,483.851157 643.762672,477.119201 634.539548,468.472522 L641.703903,463.161017 C650.103535,470.737155 660.623503,476.604456 673.264124,480.763097 C685.904746,484.921738 699.430419,487.001027 713.841551,487.001027 C725.123409,487.001027 735.313985,485.374652 744.413585,482.121854 C753.513185,478.869056 761.006862,474.401672 766.894838,468.719569 C772.782815,463.037465 777.31196,456.449618 780.482409,448.955829 C783.652858,441.462041 785.238059,433.391928 785.238059,424.745249 C785.238059,413.298693 782.932312,402.943421 778.32075,393.679122 C773.709188,384.414823 766.689013,376.90056 757.260015,371.136107 C747.831018,365.371654 736.693439,362.489471 723.846944,362.489471 Z M708.900616,371.383154 L722.98228,371.383154 C739.699193,371.383154 752.771953,376.488735 762.20095,386.700051 C771.629948,396.911368 776.344376,409.592973 776.344376,424.745249 C776.344376,440.144573 770.868228,452.88794 759.915768,462.975732 C748.963308,473.063524 733.605389,478.107345 713.841551,478.107345 C700.665659,478.107345 688.35462,476.295687 676.908064,472.672316 C665.461508,469.048946 655.950303,463.943365 648.374165,457.355419 L655.291474,451.796867 C662.044119,457.314272 670.546559,461.596372 680.79905,464.643297 C691.051541,467.690222 702.065598,469.213662 713.841551,469.213662 C731.217259,469.213662 744.495888,465.055084 753.677838,456.737802 C762.859787,448.42052 767.450693,437.756442 767.450693,424.745249 C767.450693,411.898754 763.60092,401.275851 755.901258,392.87622 C748.201596,384.476589 737.18754,380.276836 722.858757,380.276836 L708.900616,380.276836 C696.877615,380.276836 687.860499,376.982913 681.848998,370.394967 C675.837498,363.807021 672.831793,355.242819 672.831793,344.702106 C672.831793,334.161392 676.558044,325.597191 684.010657,319.009245 C691.463271,312.421299 702.642024,309.127375 717.547252,309.127375 C728.005616,309.127375 737.722691,310.34201 746.698767,312.771315 C755.674844,315.20062 763.086172,318.679827 768.932974,323.20904 L761.892142,328.644068 C751.598476,321.562026 736.816994,318.021058 717.547252,318.021058 C705.112504,318.021058 696.033627,320.470914 690.310349,325.370699 C684.587071,330.270483 681.725475,336.714221 681.725475,344.702106 C681.725475,352.77234 683.845938,359.236665 688.086929,364.095275 C692.327919,368.953885 699.265745,371.383154 708.900616,371.383154 Z M708.900616,389.170519 L722.488187,389.170519 C734.511188,389.170519 743.528304,392.505616 749.539805,399.175912 C755.551306,405.846207 758.557011,414.369234 758.557011,424.745249 C758.557011,435.285963 754.83076,443.850164 747.378146,450.43811 C739.925532,457.026056 728.746779,460.319979 713.841551,460.319979 C703.383187,460.319979 693.645525,459.105345 684.628274,456.67604 C675.611023,454.246735 668.179108,450.767528 662.332306,446.238315 L669.373138,440.803287 C679.666804,447.885329 694.48946,451.426297 713.841551,451.426297 C726.276299,451.426297 735.355176,448.976441 741.078454,444.076656 C746.801732,439.176872 749.663328,432.733134 749.663328,424.745249 C749.663328,416.757365 747.522278,410.313627 743.240113,405.413842 C738.957948,400.514057 731.999535,398.064201 722.364664,398.064201 L708.900616,398.064201 C692.019005,398.064201 678.822723,393.020381 669.311376,382.932589 C659.800029,372.844796 655.044427,360.10143 655.044427,344.702106 C655.044427,329.302782 660.520575,316.559415 671.473035,306.471623 C682.425496,296.383831 697.783414,291.34001 717.547252,291.34001 C730.723144,291.34001 743.013596,293.151668 754.418978,296.775039 C765.824359,300.398409 775.314977,305.50399 782.891115,312.091936 L775.973806,317.650488 C769.221161,312.133083 760.739308,307.850983 750.527992,304.804058 C740.316676,301.757133 729.323206,300.233693 717.547252,300.233693 C700.171545,300.233693 686.892915,304.392271 677.710966,312.709553 C668.529016,321.026835 663.93811,331.690913 663.93811,344.702106 C663.93811,357.63095 667.80847,368.27444 675.549307,376.632897 C683.290143,384.991353 694.407135,389.170519 708.900616,389.170519 Z M708.900616,406.957884 L722.488187,406.957884 C728.829085,406.957884 733.399404,408.604846 736.199281,411.898819 C738.999158,415.192792 740.399076,419.474892 740.399076,424.745249 C740.399076,436.603552 731.546656,442.532614 713.841551,442.532614 C697.124638,442.532614 684.566555,440.062172 676.166923,435.121212 L683.331279,429.686184 C689.095732,432.321362 699.265721,433.638932 713.841551,433.638932 C720.923593,433.638932 725.679195,432.856625 728.1085,431.291988 C730.537805,429.727351 731.75244,427.545126 731.75244,424.745249 C731.75244,422.027721 731.073068,419.866084 729.714304,418.260272 C728.35554,416.65446 725.86451,415.851567 722.24114,415.851567 L708.900616,415.851567 C697.53641,415.851567 687.263485,413.998735 678.081536,410.293015 C668.899586,406.587295 661.364736,401.481714 655.476759,394.976117 C649.588782,388.47052 645.080225,380.93567 641.95095,372.371341 C638.821676,363.807011 637.257062,354.584025 637.257062,344.702106 C637.257062,336.796571 638.368761,329.302895 640.592193,322.220853 C642.815625,315.138811 646.17131,308.633312 650.659348,302.70416 C655.147386,296.775009 660.541186,291.64884 666.840909,287.325501 C673.140632,283.002161 680.634309,279.62589 689.322162,277.196584 C698.010016,274.767279 707.418285,273.552645 717.547252,273.552645 C733.440672,273.552645 748.304502,275.961327 762.139188,280.778762 C775.973875,285.596198 787.502608,292.328154 796.725732,300.974833 L789.561376,306.286338 C781.161745,298.7102 770.662364,292.842899 758.062917,288.684258 C745.463471,284.525617 731.958384,282.446328 717.547252,282.446328 C706.265395,282.446328 696.074819,284.072702 686.975218,287.325501 C677.875618,290.578299 670.381942,295.045683 664.493965,300.727786 C658.605988,306.40989 654.076843,312.997737 650.906394,320.491525 C647.735945,327.985314 646.150745,336.055427 646.150745,344.702106 C646.150745,356.313361 648.497665,366.771568 653.191577,376.077042 C657.885488,385.382515 665.049772,392.855604 674.684643,398.496533 C684.319514,404.137462 695.724724,406.957884 708.900616,406.957884 Z M872.322034,424.127632 L868.122239,441.667951 L825.877247,282.446328 L835.017976,282.446328 L872.322034,424.127632 Z M881.586287,389.911659 L877.015922,406.957884 L844.282229,282.446328 L853.299435,282.446328 L881.586287,389.911659 Z M890.850539,354.460452 L886.156651,371.753724 L862.563688,282.446328 L871.82794,282.446328 L890.850539,354.460452 Z M926.0547,487.001027 L916.790447,487.001027 L970.893683,282.693374 L970.770159,282.446328 L980.157935,282.446328 L980.157935,282.693374 L1004.24499,365.701079 L1026.35568,282.446328 L1035.61993,282.446328 L981.393169,487.001027 L972.128916,487.001027 L947.918336,404.116846 L926.0547,487.001027 Z M907.526194,487.001027 L898.385465,487.001027 L952.488701,282.446328 L961.62943,282.446328 L907.526194,487.001027 Z M889.121212,487.001027 L879.980483,487.001027 L934.207242,282.446328 L943.224448,282.446328 L889.121212,487.001027 Z M1036.73164,487.001027 L1027.46739,487.001027 L1081.57062,282.446328 L1090.83487,282.446328 L1036.73164,487.001027 Z M1018.20313,487.001027 L1009.0624,487.001027 L1063.16564,282.446328 L1072.30637,282.446328 L1018.20313,487.001027 Z M999.798151,487.001027 L990.657422,487.001027 L1044.88418,282.446328 L1053.90139,282.446328 L999.798151,487.001027 Z M866.145865,469.460709 L915.678737,282.446328 L924.942989,282.446328 L870.71623,487.001027 L861.451977,487.001027 L807.348742,282.446328 L816.612994,282.446328 L866.145865,469.460709 Z M952.612224,386.700051 L976.575758,470.201849 L981.269646,452.538007 L957.182589,369.283256 L952.612224,386.700051 Z M961.752953,351.866461 L985.84001,435.121212 L990.533898,417.704417 L966.446841,334.326143 L961.752953,351.866461 Z M970.893683,317.279918 L995.104263,400.534669 L999.674628,382.99435 L975.711094,299.492553 L970.893683,317.279918 Z M1166.67822,350.137134 C1157.1257,359.689656 1152.34951,371.218388 1152.34951,384.723677 C1152.34951,398.228967 1157.1257,409.757699 1166.67822,419.310221 C1176.23074,428.862743 1187.75948,433.638932 1201.26477,433.638932 C1214.77006,433.638932 1226.29879,428.862743 1235.85131,419.310221 C1245.40383,409.757699 1250.18002,398.228967 1250.18002,384.723677 C1250.18002,371.218388 1245.40383,359.689656 1235.85131,350.137134 C1226.29879,340.584612 1214.77006,335.808423 1201.26477,335.808423 C1187.75948,335.808423 1176.23074,340.584612 1166.67822,350.137134 Z M1148.02619,407.204931 C1144.97927,400.040539 1143.45583,392.546863 1143.45583,384.723677 C1143.45583,376.900492 1144.97927,369.427403 1148.02619,362.304186 C1151.07312,355.180969 1155.19052,349.02545 1160.37853,343.837442 C1165.56654,338.649435 1171.72206,334.53203 1178.84527,331.485105 C1185.96849,328.43818 1193.44158,326.914741 1201.26477,326.914741 C1209.08795,326.914741 1216.56104,328.43818 1223.68426,331.485105 C1230.80747,334.53203 1236.96299,338.649435 1242.151,343.837442 C1247.33901,349.02545 1251.45641,355.180969 1254.50334,362.304186 C1257.55026,369.427403 1259.0737,376.900492 1259.0737,384.723677 C1259.0737,392.546863 1257.55026,400.019952 1254.50334,407.143169 C1251.45641,414.266386 1247.33901,420.421905 1242.151,425.609913 C1236.96299,430.79792 1230.80747,434.915325 1223.68426,437.96225 C1216.56104,441.009175 1209.08795,442.532614 1201.26477,442.532614 C1193.44158,442.532614 1185.96849,441.009175 1178.84527,437.96225 C1171.72206,434.915325 1165.56654,430.79792 1160.37853,425.609913 C1155.19052,420.421905 1151.07312,414.286973 1148.02619,407.204931 Z M1143.45583,351.248844 C1137.52668,361.460161 1134.56215,372.618327 1134.56215,384.723677 C1134.56215,396.829028 1137.54727,407.987194 1143.51759,418.198511 C1149.48792,428.409827 1157.57862,436.500527 1167.78993,442.470853 C1178.00125,448.441179 1189.15942,451.426297 1201.26477,451.426297 C1213.37012,451.426297 1224.52828,448.441179 1234.7396,442.470853 C1244.95092,436.500527 1253.04162,428.409827 1259.01194,418.198511 C1264.98227,407.987194 1267.96739,396.829028 1267.96739,384.723677 C1267.96739,372.618327 1264.98227,361.460161 1259.01194,351.248844 C1253.04162,341.037528 1244.95092,332.946828 1234.7396,326.976502 C1224.52828,321.006176 1213.37012,318.021058 1201.26477,318.021058 C1189.15942,318.021058 1178.00125,321.006176 1167.78993,326.976502 C1157.57862,332.946828 1149.46733,341.037528 1143.45583,351.248844 Z M1135.79738,422.645352 C1129.04474,411.034097 1125.66846,398.393665 1125.66846,384.723677 C1125.66846,371.05369 1129.04474,358.413258 1135.79738,346.802003 C1142.55003,335.190748 1151.73184,326.008936 1163.34309,319.256292 C1174.95435,312.503647 1187.59478,309.127375 1201.26477,309.127375 C1214.93475,309.127375 1227.57519,312.503647 1239.18644,319.256292 C1250.7977,326.008936 1259.97951,335.190748 1266.73215,346.802003 C1273.4848,358.413258 1276.86107,371.05369 1276.86107,384.723677 C1276.86107,398.393665 1273.4848,411.034097 1266.73215,422.645352 C1259.97951,434.256607 1250.7977,443.438419 1239.18644,450.191063 C1227.57519,456.943708 1214.93475,460.319979 1201.26477,460.319979 C1187.59478,460.319979 1174.95435,456.943708 1163.34309,450.191063 C1151.73184,443.438419 1142.55003,434.256607 1135.79738,422.645352 Z M1123.44504,351.866461 C1118.99818,362.324825 1116.77478,373.277121 1116.77478,384.723677 C1116.77478,396.170234 1118.99818,407.122529 1123.44504,417.580894 C1127.89191,428.039258 1133.88273,437.035787 1141.41769,444.57075 C1148.95266,452.105713 1157.94919,458.096537 1168.40755,462.5434 C1178.86591,466.990264 1189.81821,469.213662 1201.26477,469.213662 C1212.71132,469.213662 1223.66362,466.990264 1234.12198,462.5434 C1244.58035,458.096537 1253.57688,452.105713 1261.11184,444.57075 C1268.6468,437.035787 1274.63763,428.039258 1279.08449,417.580894 C1283.53135,407.122529 1285.75475,396.170234 1285.75475,384.723677 C1285.75475,373.277121 1283.53135,362.324825 1279.08449,351.866461 C1274.63763,341.408097 1268.6468,332.411568 1261.11184,324.876605 C1253.57688,317.341642 1244.58035,311.350818 1234.12198,306.903955 C1223.66362,302.457091 1212.71132,300.233693 1201.26477,300.233693 C1189.81821,300.233693 1178.86591,302.457091 1168.40755,306.903955 C1157.94919,311.350818 1148.95266,317.341642 1141.41769,324.876605 C1133.88273,332.411568 1127.89191,341.408097 1123.44504,351.866461 Z M1120.35696,431.539034 C1112.03968,417.210252 1107.8811,401.605289 1107.8811,384.723677 C1107.8811,367.842066 1112.06026,352.237103 1120.41872,337.90832 C1128.77718,323.579538 1140.12063,312.236089 1154.44941,303.877632 C1168.77819,295.519176 1184.38315,291.34001 1201.26477,291.34001 C1218.14638,291.34001 1233.75134,295.519176 1248.08012,303.877632 C1262.40891,312.236089 1273.75236,323.579538 1282.11081,337.90832 C1290.46927,352.237103 1294.64843,367.842066 1294.64843,384.723677 C1294.64843,401.605289 1290.46927,417.210252 1282.11081,431.539034 C1273.75236,445.867817 1262.40891,457.211266 1248.08012,465.569723 C1233.75134,473.928179 1218.14638,478.107345 1201.26477,478.107345 C1184.38315,478.107345 1168.77819,473.928179 1154.44941,465.569723 C1140.12063,457.211266 1128.75659,445.867817 1120.35696,431.539034 Z M1107.01644,345.072676 C1101.66373,357.672123 1098.98742,370.888991 1098.98742,384.723677 C1098.98742,398.558364 1101.68432,411.795819 1107.0782,424.436441 C1112.47208,437.077062 1119.7393,447.967597 1128.88007,457.108372 C1138.02085,466.249147 1148.91138,473.516366 1161.552,478.910247 C1174.19262,484.304127 1187.43008,487.001027 1201.26477,487.001027 C1215.09945,487.001027 1228.33691,484.304127 1240.97753,478.910247 C1253.61815,473.516366 1264.50869,466.249147 1273.64946,457.108372 C1282.79024,447.967597 1290.05745,437.077062 1295.45134,424.436441 C1300.84522,411.795819 1303.54212,398.558364 1303.54212,384.723677 C1303.54212,370.888991 1300.84522,357.651536 1295.45134,345.010914 C1290.05745,332.370293 1282.79024,321.479758 1273.64946,312.338983 C1264.50869,303.198208 1253.61815,295.930989 1240.97753,290.537108 C1228.33691,285.143228 1215.09945,282.446328 1201.26477,282.446328 C1187.43008,282.446328 1174.19262,285.143228 1161.552,290.537108 C1148.91138,295.930989 1138.02085,303.198208 1128.88007,312.338983 C1119.7393,321.479758 1112.45149,332.39088 1107.01644,345.072676 Z M1098.86389,427.956857 C1093.01709,414.204519 1090.09373,399.793604 1090.09373,384.723677 C1090.09373,369.653751 1093.03768,355.263422 1098.92565,341.55226 C1104.81363,327.841097 1112.71905,316.024147 1122.64214,306.101053 C1132.56524,296.177959 1144.38219,288.272543 1158.09335,282.384566 C1171.80451,276.496589 1186.19484,273.552645 1201.26477,273.552645 C1216.33469,273.552645 1230.72502,276.496589 1244.43618,282.384566 C1258.14735,288.272543 1269.9643,296.177959 1279.88739,306.101053 C1289.81048,316.024147 1297.7159,327.841097 1303.60388,341.55226 C1309.49185,355.263422 1312.4358,369.653751 1312.4358,384.723677 C1312.4358,399.793604 1309.49185,414.183932 1303.60388,427.895095 C1297.7159,441.606258 1289.81048,453.423208 1279.88739,463.346302 C1269.9643,473.269396 1258.14735,481.174812 1244.43618,487.062789 C1230.72502,492.950766 1216.33469,495.89471 1201.26477,495.89471 C1186.19484,495.89471 1171.80451,492.950766 1158.09335,487.062789 C1144.38219,481.174812 1132.56524,473.269396 1122.64214,463.346302 C1112.71905,453.423208 1104.79304,441.626845 1098.86389,427.956857 Z M1398.03749,385.217771 L1451.64664,385.217771 C1459.79922,385.217771 1466.69587,382.582632 1472.3368,377.312275 C1477.97773,372.041919 1480.79815,364.548242 1480.79815,354.831022 C1480.79815,347.666631 1477.83362,341.222893 1471.90447,335.499615 C1465.97532,329.776337 1459.22277,326.914741 1451.64664,326.914741 L1375.30919,326.914741 L1375.30919,487.001027 L1366.41551,487.001027 L1366.41551,318.021058 L1451.64664,318.021058 C1461.69325,318.021058 1470.54567,321.747309 1478.20416,329.199923 C1485.86265,336.652537 1489.69183,345.196151 1489.69183,354.831022 C1489.69183,366.689325 1485.98617,376.200529 1478.57473,383.36492 C1471.16329,390.529312 1462.18735,394.111454 1451.64664,394.111454 L1398.03749,394.111454 L1398.03749,385.217771 Z M1398.03749,403.005136 L1451.64664,403.005136 C1464.49313,403.005136 1475.52777,398.496578 1484.7509,389.479327 C1493.97402,380.462076 1498.58552,368.912757 1498.58552,354.831022 C1498.58552,342.725671 1493.87109,332.082181 1484.44209,322.900231 C1475.01309,313.718281 1464.08138,309.127375 1451.64664,309.127375 L1357.52183,309.127375 L1357.52183,487.001027 L1348.62815,487.001027 L1348.62815,300.233693 L1451.64664,300.233693 C1461.44621,300.233693 1470.6486,302.74531 1479.25411,307.768618 C1487.85961,312.791927 1494.71509,319.523883 1499.82075,327.964689 C1504.92641,336.405495 1507.4792,345.36085 1507.4792,354.831022 C1507.4792,371.053839 1501.98246,384.620687 1490.98883,395.531972 C1479.99519,406.443258 1466.88126,411.898819 1451.64664,411.898819 L1398.03749,411.898819 L1398.03749,403.005136 Z M1398.03749,420.792501 L1451.64664,420.792501 C1463.17554,420.792501 1473.88079,417.951492 1483.76271,412.269389 C1493.64463,406.587285 1501.55005,398.661282 1507.4792,388.49114 C1513.40835,378.320999 1516.37288,367.101071 1516.37288,354.831022 C1516.37288,343.713863 1513.42894,333.276243 1507.54096,323.517848 C1501.65298,313.759453 1493.72698,305.956972 1483.76271,300.110169 C1473.79844,294.263367 1463.09319,291.34001 1451.64664,291.34001 L1339.73446,291.34001 L1339.73446,487.001027 L1330.84078,487.001027 L1330.84078,282.446328 L1451.64664,282.446328 C1464.57548,282.446328 1476.72182,285.760838 1488.08603,292.389959 C1499.45024,299.01908 1508.48794,307.912673 1515.19941,319.071007 C1521.91088,330.22934 1525.26656,342.149226 1525.26656,354.831022 C1525.26656,369.489202 1522.11675,382.376678 1515.81703,393.493837 C1509.5173,404.610995 1500.97369,413.298719 1490.18593,419.557268 L1513.16127,487.001027 L1503.7735,487.001027 L1481.78634,423.757062 C1478.49236,425.074651 1475.98075,425.98048 1474.25141,426.474576 L1494.87982,487.001027 L1485.49204,487.001027 L1465.35773,428.574474 C1464.61659,428.739172 1461.98145,429.027391 1457.45223,429.439137 L1476.59836,487.001027 L1467.21058,487.001027 L1448.3115,429.686184 L1440.28249,429.686184 L1458.3169,487.001027 L1448.92912,487.001027 L1430.77119,429.686184 L1398.03749,429.686184 L1398.03749,420.792501 Z M1393.09656,487.001027 L1384.20288,487.001027 L1384.20288,335.808423 L1451.64664,335.808423 C1457.16404,335.808423 1461.91964,337.681842 1465.91359,341.428737 C1469.90753,345.175631 1471.90447,349.643015 1471.90447,354.831022 C1471.90447,369.159805 1465.15193,376.324088 1451.64664,376.324088 L1398.03749,376.324088 L1398.03749,367.430406 L1451.64664,367.430406 C1455.18766,367.430406 1457.9669,366.50399 1459.98446,364.65113 C1462.00202,362.79827 1463.01079,359.524934 1463.01079,354.831022 C1463.01079,351.948796 1461.91967,349.540114 1459.73742,347.604905 C1457.55516,345.669696 1454.85826,344.702106 1451.64664,344.702106 L1393.09656,344.702106 L1393.09656,487.001027 Z M1597.65126,433.638932 L1597.65126,335.808423 L1658.30123,335.808423 C1668.1008,335.808423 1676.52089,340.605199 1683.56176,350.198896 C1690.60263,359.792592 1694.12301,371.300738 1694.12301,384.723677 C1694.12301,398.228967 1690.60263,409.757699 1683.56176,419.310221 C1676.52089,428.862743 1668.1008,433.638932 1658.30123,433.638932 L1597.65126,433.638932 Z M1606.54494,424.745249 L1658.30123,424.745249 C1665.63032,424.745249 1671.90936,420.833715 1677.13855,413.010529 C1682.36773,405.187343 1684.98228,395.758487 1684.98228,384.723677 C1684.98228,373.606519 1682.36773,364.157075 1677.13855,356.375064 C1671.90936,348.593053 1665.63032,344.702106 1658.30123,344.702106 L1606.54494,344.702106 L1606.54494,424.745249 Z M1588.75758,442.532614 L1658.30123,442.532614 C1670.57128,442.532614 1681.13242,436.871183 1689.98498,425.548151 C1698.83753,414.225119 1703.26374,400.617097 1703.26374,384.723677 C1703.26374,374.265313 1701.22562,364.589413 1697.14933,355.695686 C1693.07304,346.801959 1687.59689,339.781784 1680.72072,334.634951 C1673.84456,329.488118 1666.37147,326.914741 1658.30123,326.914741 L1588.75758,326.914741 L1588.75758,442.532614 Z M1579.86389,451.426297 L1579.86389,318.021058 L1658.30123,318.021058 C1667.9361,318.021058 1676.91205,320.985589 1685.22933,326.914741 C1693.54661,332.843892 1700.15504,340.934592 1705.05483,351.187083 C1709.95461,361.439574 1712.40447,372.618327 1712.40447,384.723677 C1712.40447,396.746679 1709.95461,407.904845 1705.05483,418.198511 C1700.15504,428.492176 1693.54661,436.603463 1685.22933,442.532614 C1676.91205,448.461766 1667.9361,451.426297 1658.30123,451.426297 L1579.86389,451.426297 Z M1570.97021,460.319979 L1658.30123,460.319979 C1669.58309,460.319979 1680.06188,456.943708 1689.73793,450.191063 C1699.41398,443.438419 1707.13411,434.256607 1712.89856,422.645352 C1718.66301,411.034097 1721.5452,398.393665 1721.5452,384.723677 C1721.5452,371.136039 1718.66301,358.516194 1712.89856,346.863765 C1707.13411,335.211335 1699.39339,326.008936 1689.67617,319.256292 C1679.95895,312.503647 1669.50074,309.127375 1658.30123,309.127375 L1570.97021,309.127375 L1570.97021,460.319979 Z M1562.07653,469.213662 L1562.07653,300.233693 L1658.30123,300.233693 C1671.14773,300.233693 1683.12937,304.001118 1694.24653,311.536081 C1705.36369,319.071044 1714.21611,329.343969 1720.80406,342.355162 C1727.392,355.366355 1730.68593,369.489052 1730.68593,384.723677 C1730.68593,399.958303 1727.392,414.081 1720.80406,427.092193 C1714.21611,440.103386 1705.36369,450.376311 1694.24653,457.911274 C1683.12937,465.446237 1671.14773,469.213662 1658.30123,469.213662 L1562.07653,469.213662 Z M1553.18285,478.107345 L1658.30123,478.107345 C1669.08899,478.107345 1679.50603,475.636902 1689.55265,470.695942 C1699.59926,465.754983 1708.28699,459.125962 1715.61608,450.80868 C1722.94517,442.491398 1728.81247,432.547866 1733.21816,420.977786 C1737.62385,409.407706 1739.82666,397.323124 1739.82666,384.723677 C1739.82666,372.124231 1737.62385,360.060236 1733.21816,348.53133 C1728.81247,337.002425 1722.94517,327.058893 1715.61608,318.700437 C1708.28699,310.34198 1699.59926,303.692372 1689.55265,298.751412 C1679.50603,293.810453 1669.08899,291.34001 1658.30123,291.34001 L1553.18285,291.34001 L1553.18285,478.107345 Z M1658.30123,487.001027 L1544.28916,487.001027 L1544.28916,282.446328 L1658.30123,282.446328 C1674.35935,282.446328 1689.3467,287.016647 1703.26374,296.157422 C1717.18077,305.298197 1728.27718,317.732758 1736.55329,333.461479 C1744.82939,349.1902 1748.96739,366.277429 1748.96739,384.723677 C1748.96739,398.558364 1746.51753,411.795819 1741.61775,424.436441 C1736.71796,437.077062 1730.19187,447.967597 1722.03929,457.108372 C1713.88671,466.249147 1704.23139,473.516366 1693.07306,478.910247 C1681.91473,484.304127 1670.32423,487.001027 1658.30123,487.001027 Z M1851.12121,362.489471 L1836.17488,362.489471 C1829.83399,362.489471 1825.26367,360.863096 1822.46379,357.610298 C1819.66391,354.3575 1818.264,350.054812 1818.264,344.702106 C1818.264,332.843803 1827.11642,326.914741 1844.82152,326.914741 C1861.45608,326.914741 1873.97299,329.385183 1882.37262,334.326143 L1875.20827,339.761171 C1869.44382,337.125993 1859.315,335.808423 1844.82152,335.808423 C1837.73948,335.808423 1832.98388,336.59073 1830.55457,338.155367 C1828.12527,339.720004 1826.91063,341.902229 1826.91063,344.702106 C1826.91063,347.501983 1827.56942,349.684207 1828.88701,351.248844 C1830.20459,352.813482 1832.63386,353.595788 1836.17488,353.595788 L1851.49178,353.595788 C1862.60894,353.595788 1872.63482,355.489794 1881.56972,359.277863 C1890.50462,363.065932 1897.85419,368.233275 1903.61864,374.780046 C1909.3831,381.326818 1913.78872,388.861668 1916.83564,397.384823 C1919.88257,405.907978 1921.40601,415.028029 1921.40601,424.745249 C1921.40601,432.650784 1920.29431,440.14446 1918.07088,447.226502 C1915.84745,454.308544 1912.49176,460.814043 1908.00372,466.743195 C1903.51569,472.672346 1898.12189,477.798515 1891.82216,482.121854 C1885.52244,486.445194 1878.02876,489.821465 1869.34091,492.25077 C1860.65306,494.680075 1851.24479,495.89471 1841.11582,495.89471 C1825.2224,495.89471 1810.33798,493.486028 1796.46212,488.668593 C1782.58626,483.851157 1771.03694,477.119201 1761.81382,468.472522 L1768.97817,463.161017 C1777.3778,470.737155 1787.89777,476.604456 1800.53839,480.763097 C1813.17901,484.921738 1826.70469,487.001027 1841.11582,487.001027 C1852.39768,487.001027 1862.58825,485.374652 1871.68785,482.121854 C1880.78745,478.869056 1888.28113,474.401672 1894.16911,468.719569 C1900.05708,463.037465 1904.58623,456.449618 1907.75668,448.955829 C1910.92713,441.462041 1912.51233,433.391928 1912.51233,424.745249 C1912.51233,413.298693 1910.20658,402.943421 1905.59502,393.679122 C1900.98346,384.414823 1893.96328,376.90056 1884.53428,371.136107 C1875.10529,365.371654 1863.96771,362.489471 1851.12121,362.489471 Z M1836.17488,371.383154 L1850.25655,371.383154 C1866.97346,371.383154 1880.04622,376.488735 1889.47522,386.700051 C1898.90422,396.911368 1903.61864,409.592973 1903.61864,424.745249 C1903.61864,440.144573 1898.1425,452.88794 1887.19004,462.975732 C1876.23758,473.063524 1860.87966,478.107345 1841.11582,478.107345 C1827.93993,478.107345 1815.62889,476.295687 1804.18233,472.672316 C1792.73578,469.048946 1783.22457,463.943365 1775.64843,457.355419 L1782.56574,451.796867 C1789.31839,457.314272 1797.82083,461.596372 1808.07332,464.643297 C1818.32581,467.690222 1829.33987,469.213662 1841.11582,469.213662 C1858.49153,469.213662 1871.77016,465.055084 1880.95211,456.737802 C1890.13406,448.42052 1894.72496,437.756442 1894.72496,424.745249 C1894.72496,411.898754 1890.87519,401.275851 1883.17553,392.87622 C1875.47586,384.476589 1864.46181,380.276836 1850.13303,380.276836 L1836.17488,380.276836 C1824.15188,380.276836 1815.13477,376.982913 1809.12327,370.394967 C1803.11177,363.807021 1800.10606,355.242819 1800.10606,344.702106 C1800.10606,334.161392 1803.83231,325.597191 1811.28493,319.009245 C1818.73754,312.421299 1829.91629,309.127375 1844.82152,309.127375 C1855.27988,309.127375 1864.99696,310.34201 1873.97304,312.771315 C1882.94911,315.20062 1890.36044,318.679827 1896.20724,323.20904 L1889.16641,328.644068 C1878.87274,321.562026 1864.09126,318.021058 1844.82152,318.021058 C1832.38677,318.021058 1823.3079,320.470914 1817.58462,325.370699 C1811.86134,330.270483 1808.99974,336.714221 1808.99974,344.702106 C1808.99974,352.77234 1811.12021,359.236665 1815.3612,364.095275 C1819.60219,368.953885 1826.54001,371.383154 1836.17488,371.383154 Z M1836.17488,389.170519 L1849.76246,389.170519 C1861.78546,389.170519 1870.80257,392.505616 1876.81407,399.175912 C1882.82557,405.846207 1885.83128,414.369234 1885.83128,424.745249 C1885.83128,435.285963 1882.10503,443.850164 1874.65241,450.43811 C1867.1998,457.026056 1856.02105,460.319979 1841.11582,460.319979 C1830.65745,460.319979 1820.91979,459.105345 1811.90254,456.67604 C1802.88529,454.246735 1795.45338,450.767528 1789.60657,446.238315 L1796.64741,440.803287 C1806.94107,447.885329 1821.76373,451.426297 1841.11582,451.426297 C1853.55057,451.426297 1862.62944,448.976441 1868.35272,444.076656 C1874.076,439.176872 1876.9376,432.733134 1876.9376,424.745249 C1876.9376,416.757365 1874.79655,410.313627 1870.51438,405.413842 C1866.23222,400.514057 1859.2738,398.064201 1849.63893,398.064201 L1836.17488,398.064201 C1819.29327,398.064201 1806.09699,393.020381 1796.58564,382.932589 C1787.0743,372.844796 1782.3187,360.10143 1782.3187,344.702106 C1782.3187,329.302782 1787.79484,316.559415 1798.7473,306.471623 C1809.69976,296.383831 1825.05768,291.34001 1844.82152,291.34001 C1857.99741,291.34001 1870.28786,293.151668 1881.69325,296.775039 C1893.09863,300.398409 1902.58924,305.50399 1910.16538,312.091936 L1903.24807,317.650488 C1896.49543,312.133083 1888.01358,307.850983 1877.80226,304.804058 C1867.59094,301.757133 1856.59747,300.233693 1844.82152,300.233693 C1827.44581,300.233693 1814.16718,304.392271 1804.98523,312.709553 C1795.80328,321.026835 1791.21238,331.690913 1791.21238,344.702106 C1791.21238,357.63095 1795.08274,368.27444 1802.82357,376.632897 C1810.56441,384.991353 1821.6814,389.170519 1836.17488,389.170519 Z M1836.17488,406.957884 L1849.76246,406.957884 C1856.10335,406.957884 1860.67367,408.604846 1863.47355,411.898819 C1866.27343,415.192792 1867.67334,419.474892 1867.67334,424.745249 C1867.67334,436.603552 1858.82092,442.532614 1841.11582,442.532614 C1824.39891,442.532614 1811.84082,440.062172 1803.44119,435.121212 L1810.60555,429.686184 C1816.37,432.321362 1826.53999,433.638932 1841.11582,433.638932 C1848.19786,433.638932 1852.95346,432.856625 1855.38277,431.291988 C1857.81207,429.727351 1859.02671,427.545126 1859.02671,424.745249 C1859.02671,422.027721 1858.34734,419.866084 1856.98857,418.260272 C1855.62981,416.65446 1853.13878,415.851567 1849.51541,415.851567 L1836.17488,415.851567 C1824.81068,415.851567 1814.53775,413.998735 1805.3558,410.293015 C1796.17385,406.587295 1788.639,401.481714 1782.75103,394.976117 C1776.86305,388.47052 1772.35449,380.93567 1769.22522,372.371341 C1766.09594,363.807011 1764.53133,354.584025 1764.53133,344.702106 C1764.53133,336.796571 1765.64303,329.302895 1767.86646,322.220853 C1770.08989,315.138811 1773.44558,308.633312 1777.93362,302.70416 C1782.42165,296.775009 1787.81545,291.64884 1794.11518,287.325501 C1800.4149,283.002161 1807.90858,279.62589 1816.59643,277.196584 C1825.28428,274.767279 1834.69255,273.552645 1844.82152,273.552645 C1860.71494,273.552645 1875.57877,275.961327 1889.41346,280.778762 C1903.24814,285.596198 1914.77688,292.328154 1924,300.974833 L1916.83564,306.286338 C1908.43601,298.7102 1897.93663,292.842899 1885.33719,288.684258 C1872.73774,284.525617 1859.23265,282.446328 1844.82152,282.446328 C1833.53966,282.446328 1823.34909,284.072702 1814.24949,287.325501 C1805.14989,290.578299 1797.65621,295.045683 1791.76823,300.727786 C1785.88026,306.40989 1781.35111,312.997737 1778.18066,320.491525 C1775.01021,327.985314 1773.42501,336.055427 1773.42501,344.702106 C1773.42501,356.313361 1775.77193,366.771568 1780.46584,376.077042 C1785.15976,385.382515 1792.32404,392.855604 1801.95891,398.496533 C1811.59378,404.137462 1822.99899,406.957884 1836.17488,406.957884 Z" id="HOTSWORDS" fill="#FFFFFF" fill-rule="nonzero"></path>
                <path d="M8,639.447355 L26.9002037,639.447355 L26.9002037,717.186485 L72,717.186485 L72,735.447355 L8,735.447355 L8,639.447355 Z M164.525886,677.220684 L140.513393,735.447355 L122,735.447355 L164.982143,635.447355 L166.017857,635.447355 L209,735.447355 L187.25,735.447355 L164.525886,677.220684 L164.525886,677.220684 Z M150.820189,700.447355 L179.403785,700.447355 L186,717.447355 L145,717.447355 L150.820189,700.447355 Z M285.315453,693.327329 L305.732143,639.447355 L328,639.447355 L284.5,739.447355 L241,639.447355 L263.526786,639.447355 L285.315453,693.327329 L285.315453,693.327329 Z M403.525886,677.220684 L379.513393,735.447355 L361,735.447355 L403.982143,635.447355 L405.017857,635.447355 L448,735.447355 L426.25,735.447355 L403.525886,677.220684 L403.525886,677.220684 Z M389.820189,700.447355 L418.403785,700.447355 L425,717.447355 L384,717.447355 L389.820189,700.447355 Z M613.238748,639.447355 C619.270089,639.447355 624.645769,640.208217 629.365949,641.729964 C634.086129,643.25171 638.041406,645.425602 641.231898,648.251703 C644.42239,651.077804 646.848002,654.469074 648.508806,658.425616 C650.16961,662.382157 651,666.838634 651,671.795181 C651,675.708244 650.409986,679.621248 649.229941,683.534311 C648.049896,687.447374 646.126889,691.012556 643.460861,694.229964 C640.794833,697.447371 637.276604,700.034302 632.906067,701.990833 C628.535529,703.947355 623.116145,704.925616 616.64775,704.925616 L603.011742,704.925616 L603.011742,735.447355 L584,735.447355 L584,639.447355 L613.238748,639.447355 Z M616.351852,686.447355 C619.203718,686.447355 621.580237,685.984897 623.481481,685.059968 C625.382726,684.135038 626.873451,682.957873 627.953704,681.528436 C629.033956,680.098999 629.811726,678.606522 630.287037,677.050959 C630.762348,675.495395 631,674.044959 631,672.699607 C631,671.690598 630.848767,670.408324 630.546296,668.85276 C630.243826,667.297197 629.617289,665.720636 628.666667,664.123031 C627.716045,662.525425 626.268528,661.180093 624.324074,660.086995 C622.37962,658.993896 619.765449,658.447355 616.481481,658.447355 L603,658.447355 L603,686.447355 L616.351852,686.447355 Z M634.416901,699.447355 L658,735.447355 L636.101408,735.447355 L612,699.954397 L634.416901,699.447355 Z M705,687.577674 C705,680.974804 706.259739,674.719548 708.779255,668.811717 C711.298771,662.903886 714.795634,657.669452 719.269947,653.108259 C723.74426,648.547066 728.935254,644.963325 734.843085,642.356929 C740.750916,639.750546 747.093051,638.447355 753.869681,638.447355 C760.559431,638.447355 766.858126,639.750546 772.765957,642.356929 C778.673788,644.963325 783.908222,648.547066 788.469415,653.108259 C793.030608,657.669452 796.592629,662.903886 799.155585,668.811717 C801.718541,674.719548 803,680.974804 803,687.577674 C803,694.354304 801.718541,700.696439 799.155585,706.60427 C796.592629,712.512101 793.030608,717.703095 788.469415,722.177408 C783.908222,726.651721 778.673788,730.148583 772.765957,732.6681 C766.858126,735.187616 760.559431,736.447355 753.869681,736.447355 C747.093051,736.447355 740.750916,735.187616 734.843085,732.6681 C728.935254,730.148583 723.74426,726.651721 719.269947,722.177408 C714.795634,717.703095 711.298771,712.512101 708.779255,706.60427 C706.259739,700.696439 705,694.354304 705,687.577674 Z M724,688.076592 C724,692.298365 724.761423,696.240063 726.284292,699.901804 C727.807161,703.563546 729.939146,706.794445 732.68031,709.594601 C735.421474,712.394756 738.597696,714.570229 742.209071,716.121084 C745.820446,717.671939 749.758091,718.447355 754.022124,718.447355 C758.112115,718.447355 761.91923,717.671939 765.443584,716.121084 C768.967938,714.570229 772.035385,712.394756 774.646018,709.594601 C777.25665,706.794445 779.301615,703.563546 780.780973,699.901804 C782.260332,696.240063 783,692.298365 783,688.076592 C783,683.768661 782.238577,679.762345 780.715708,676.057524 C779.192839,672.352704 777.104364,669.100264 774.450221,666.300109 C771.796078,663.499954 768.685121,661.324474 765.117257,659.773626 C761.549392,658.222771 757.677012,657.447355 753.5,657.447355 C749.322988,657.447355 745.450608,658.222771 741.882743,659.773626 C738.314879,661.324474 735.182167,663.499954 732.484513,666.300109 C729.78686,669.100264 727.698385,672.352704 726.219027,676.057524 C724.739668,679.762345 724,683.768661 724,688.076592 Z M934,727.44688 C932.954769,728.315596 931.016765,729.488345 928.18593,730.965163 C925.355095,732.44198 921.892818,733.745035 917.798995,734.874366 C913.705172,736.003697 909.175904,736.524919 904.211055,736.438047 C896.633128,736.264304 889.861001,734.896096 883.894472,732.333384 C877.927943,729.770671 872.876068,726.274141 868.738693,721.843689 C864.601319,717.413236 861.443897,712.331323 859.266332,706.597796 C857.088766,700.86427 856,694.739913 856,688.224542 C856,680.927326 857.110542,674.238312 859.331658,668.157299 C861.552775,662.076286 864.731973,656.820632 868.869347,652.390179 C873.006721,647.959727 877.94972,644.52835 883.698492,642.095945 C889.447265,639.663539 895.80566,638.447355 902.773869,638.447355 C909.219463,638.447355 914.924598,639.316058 919.889447,641.05349 C924.854296,642.790923 928.904507,644.658634 932.040201,646.656682 L924.592965,664.508709 C922.415399,662.858149 919.519281,661.14246 915.904523,659.361592 C912.289764,657.580724 908.130677,656.690303 903.427136,656.690303 C899.768826,656.690303 896.262998,657.450418 892.909548,658.970671 C889.556097,660.490925 886.594653,662.640965 884.025126,665.420857 C881.455599,668.200748 879.430493,671.436667 877.949749,675.128711 C876.469004,678.820755 875.728643,682.838507 875.728643,687.182087 C875.728643,691.786283 876.403678,695.999493 877.753769,699.821844 C879.103859,703.644195 881.041863,706.92355 883.567839,709.660006 C886.093815,712.396461 889.120585,714.503067 892.648241,715.979884 C896.175897,717.456701 900.160782,718.195099 904.603015,718.195099 C909.742069,718.195099 914.140685,717.369831 917.798995,715.71927 C921.457305,714.06871 924.244547,712.331304 926.160804,710.507 L934,727.44688 Z M1011.30303,673.621268 L1010.77778,678.447355 L1013.66667,674.795181 L1045.18182,639.447355 L1069.86869,639.447355 L1029.94949,682.490833 L1070,735.447355 L1045.83838,735.447355 L1016.0303,694.490833 L1011.30303,699.186485 L1011.30303,735.447355 L992,735.447355 L992,639.447355 L1011.30303,639.447355 L1011.30303,673.621268 Z M1225.30303,673.621268 L1224.77778,678.447355 L1227.66667,674.795181 L1259.18182,639.447355 L1283.86869,639.447355 L1243.94949,682.490833 L1284,735.447355 L1259.83838,735.447355 L1230.0303,694.490833 L1225.30303,699.186485 L1225.30303,735.447355 L1206,735.447355 L1206,639.447355 L1225.30303,639.447355 L1225.30303,673.621268 Z M1338,639.447355 L1404.15504,639.447355 L1404.15504,657.708224 L1357.10853,657.708224 L1357.10853,678.186485 L1398.75194,678.186485 L1398.75194,696.447355 L1357.10853,696.447355 L1357.10853,717.186485 L1406,717.186485 L1406,735.447355 L1338,735.447355 L1338,639.447355 Z M1514.88167,684.862807 C1519.2393,686.876526 1522.81525,689.455419 1525.60956,692.599529 C1529.20321,696.643027 1531,701.490805 1531,707.143007 C1531,712.360424 1530.05778,716.773424 1528.17331,720.382138 C1526.28884,723.990851 1523.74703,726.903866 1520.54781,729.121268 C1517.34859,731.33867 1513.73309,732.947355 1509.7012,733.947355 C1505.6693,734.947355 1501.506,735.447355 1497.21116,735.447355 L1465,735.447355 L1465,639.447355 L1493.39841,639.447355 C1503.47814,639.447355 1511.49798,641.469074 1517.45817,645.512572 C1523.41836,649.556071 1526.39841,655.57775 1526.39841,663.57779 C1526.39841,669.490863 1524.93029,674.425596 1521.99402,678.382138 C1520.07329,680.970274 1517.70251,683.130489 1514.88167,684.862807 L1514.88167,684.862807 Z M1495.76744,680.447355 C1499.60079,680.447355 1502.43119,679.263102 1504.25872,676.89456 C1506.08625,674.526018 1507,671.838674 1507,668.832448 C1507,665.370733 1505.86338,662.774486 1503.59012,661.043628 C1501.31685,659.312771 1498.26359,658.447355 1494.43023,658.447355 L1484,658.447355 L1484,680.447355 L1495.76744,680.447355 Z M1495.68116,718.447355 C1498.36072,718.447355 1500.78904,718.075484 1502.96618,717.33173 C1505.14333,716.587976 1506.8599,715.406738 1508.11594,713.78798 C1509.37199,712.169222 1510,710.134867 1510,707.684855 C1510,704.884841 1509.24638,702.762987 1507.73913,701.31923 C1506.23188,699.875473 1504.28504,698.869233 1501.89855,698.30048 C1499.51207,697.731727 1497.02095,697.447355 1494.42512,697.447355 L1484,697.447355 L1484,718.447355 L1495.68116,718.447355 Z M1618.52589,677.220684 L1594.51339,735.447355 L1576,735.447355 L1618.98214,635.447355 L1620.01786,635.447355 L1663,735.447355 L1641.25,735.447355 L1618.52589,677.220684 L1618.52589,677.220684 Z M1604.82019,700.447355 L1633.40379,700.447355 L1640,717.447355 L1599,717.447355 L1604.82019,700.447355 Z M1765.88167,684.862807 C1770.2393,686.876526 1773.81525,689.455419 1776.60956,692.599529 C1780.20321,696.643027 1782,701.490805 1782,707.143007 C1782,712.360424 1781.05778,716.773424 1779.17331,720.382138 C1777.28884,723.990851 1774.74703,726.903866 1771.54781,729.121268 C1768.34859,731.33867 1764.73309,732.947355 1760.7012,733.947355 C1756.6693,734.947355 1752.506,735.447355 1748.21116,735.447355 L1716,735.447355 L1716,639.447355 L1744.39841,639.447355 C1754.47814,639.447355 1762.49798,641.469074 1768.45817,645.512572 C1774.41836,649.556071 1777.39841,655.57775 1777.39841,663.57779 C1777.39841,669.490863 1775.93029,674.425596 1772.99402,678.382138 C1771.07329,680.970274 1768.70251,683.130489 1765.88167,684.862807 L1765.88167,684.862807 Z M1747.76744,680.447355 C1751.60079,680.447355 1754.43119,679.263102 1756.25872,676.89456 C1758.08625,674.526018 1759,671.838674 1759,668.832448 C1759,665.370733 1757.86338,662.774486 1755.59012,661.043628 C1753.31685,659.312771 1750.26359,658.447355 1746.43023,658.447355 L1736,658.447355 L1736,680.447355 L1747.76744,680.447355 Z M1747.68116,718.447355 C1750.36072,718.447355 1752.78904,718.075484 1754.96618,717.33173 C1757.14333,716.587976 1758.8599,715.406738 1760.11594,713.78798 C1761.37199,712.169222 1762,710.134867 1762,707.684855 C1762,704.884841 1761.24638,702.762987 1759.73913,701.31923 C1758.23188,699.875473 1756.28504,698.869233 1753.89855,698.30048 C1751.51207,697.731727 1749.02095,697.447355 1746.42512,697.447355 L1736,697.447355 L1736,718.447355 L1747.68116,718.447355 Z M1891.78865,663.048959 C1888.1174,661.060536 1884.38065,659.41795 1880.57828,658.121152 C1876.77591,656.824354 1873.21398,656.175965 1869.89237,656.175965 C1865.78406,656.175965 1862.54991,656.997258 1860.18982,658.639868 C1857.82973,660.282479 1856.64971,662.746358 1856.64971,666.03158 C1856.64971,668.279363 1857.54565,670.289369 1859.33757,672.06166 C1861.12949,673.83395 1863.44584,675.411697 1866.28669,676.794948 C1869.12754,678.1782 1872.07761,679.431752 1875.13699,680.555644 C1877.93413,681.593077 1880.70938,682.825022 1883.46282,684.251499 C1886.21626,685.677977 1888.68557,687.450241 1890.87084,689.568344 C1893.05611,691.686447 1894.8043,694.32323 1896.11546,697.478772 C1897.42662,700.634314 1898.08219,704.503036 1898.08219,709.085055 C1898.08219,713.926434 1896.81476,718.421933 1894.27984,722.571686 C1891.74493,726.72144 1888.03003,730.071451 1883.13503,732.62182 C1878.24003,735.172189 1872.20878,736.447355 1865.0411,736.447355 C1861.36984,736.447355 1857.63309,736.079934 1853.83072,735.345082 C1850.02836,734.61023 1846.2916,733.486355 1842.62035,731.973424 C1838.9491,730.460494 1835.40902,728.536939 1832,726.202702 L1840.39139,711.548959 C1842.66407,713.19157 1845.13339,714.639639 1847.79941,715.893211 C1850.46544,717.146782 1853.15328,718.119366 1855.86301,718.810991 C1858.57275,719.502617 1861.06392,719.848424 1863.33659,719.848424 C1865.60927,719.848424 1867.90377,719.52423 1870.22016,718.875831 C1872.53654,718.227432 1874.45955,717.12517 1875.98924,715.569013 C1877.51892,714.012863 1878.28376,711.851558 1878.28376,709.085055 C1878.28376,707.183085 1877.65004,705.454047 1876.38258,703.89789 C1875.11513,702.34174 1873.41064,700.915276 1871.26908,699.618478 C1869.12752,698.32168 1866.78931,697.197805 1864.2544,696.24682 C1861.28244,695.122929 1858.22311,693.82615 1855.07632,692.356446 C1851.92953,690.886741 1848.97947,689.092865 1846.22603,686.974761 C1843.47259,684.856658 1841.24365,682.219875 1839.53914,679.064334 C1837.83463,675.908792 1836.98239,672.040069 1836.98239,667.45805 C1836.98239,661.925046 1838.22797,657.126965 1840.71918,653.063665 C1843.21038,649.000365 1846.72861,645.780032 1851.27397,643.402569 C1855.81933,641.025106 1861.0639,639.706714 1867.00783,639.447355 C1874.78738,639.447355 1881.10272,640.3551 1885.95401,642.170617 C1890.80531,643.986125 1895.15393,646.147431 1899,648.654574 L1891.78865,663.048959 Z" id="LAVAROCKKEBABS" fill="#FFFFFF" fill-rule="nonzero"></path>
            </g>
        </g>
    </g>
</svg>