<?xml version="1.0" encoding="UTF-8"?>
<svg width="771px" height="599px" viewBox="0 0 771 599" version="1.1" xmlns="http://www.w3.org/2000/svg" xmlns:xlink="http://www.w3.org/1999/xlink">
    <!-- Generator: Sketch 55.2 (78181) - https://sketchapp.com -->
    <title>Group 2</title>
    <desc>Created with Sketch.</desc>
    <g id="Page-1" stroke="none" stroke-width="1" fill="none" fill-rule="evenodd">
        <g id="logo" transform="translate(-115.000000, -184.000000)" fill="#FFFFFF" fill-rule="nonzero">
            <g id="Group-2" transform="translate(115.000000, 184.000000)">
                <g id="Group">
                    <path d="M127.682875,19.74456 C122.575535,19.74456 118.441083,19.6226812 115.279396,19.37892 L94.8501358,19.01328 C72.4751201,19.01328 61.28778,21.6946132 61.28778,27.05736 C62.7470202,27.05736 64.1454377,28.0323902 65.4830745,29.98248 C66.8207113,31.9325698 67.4895197,34.8576605 67.4895197,38.75784 C67.4895197,46.0706766 65.2398915,51.3724035 60.7405677,54.66318 C56.2412439,57.9539565 51.3163823,59.59932 45.965835,59.59932 C39.3992543,59.59932 34.656795,57.4664413 31.7383147,53.20062 C28.8198343,48.9347987 27.3606161,43.8768293 27.3606161,38.02656 C27.3606161,28.03235 31.3734663,19.1961384 39.3992872,11.51766 C47.425108,3.83918161 58.369245,0 72.2320265,0 L197.361244,0 L71.50241,250.4634 C78.3121974,250.4634 83.5410629,250.585279 87.1891633,250.82904 L106.523999,251.19468 C116.73868,251.19468 125.068384,250.646225 131.513361,249.5493 C137.958339,248.452375 142.275193,246.319496 144.464053,243.1506 C142.761606,243.1506 141.241587,242.236509 139.90395,240.4083 C138.566313,238.580091 137.897505,235.71594 137.897505,231.81576 C137.897505,224.502923 140.086332,219.140257 144.464053,215.7276 C148.841773,212.314943 153.949037,210.60864 159.785998,210.60864 C166.109372,210.60864 170.791031,212.680579 173.831114,216.82452 C176.871198,220.968461 178.391217,225.965491 178.391217,231.81576 C178.391217,238.153552 176.445593,244.613127 172.554285,251.19468 C168.662978,257.776233 163.130109,263.260778 155.955512,267.64848 C148.780914,272.036182 140.694413,274.23 131.695765,274.23 L0,274.23 L127.682875,19.74456 Z M262.518678,277 C248.645192,277 237.084128,272.2316 227.835138,262.694658 C218.586148,253.157715 213.961722,238.241182 213.961722,217.944612 C213.961722,199.848875 217.551737,180.836409 224.731874,160.906644 C231.912011,140.976879 242.621207,124.10408 256.859784,110.28774 C271.098361,96.4713997 288.074871,89.5633333 307.789824,89.5633333 C317.768997,89.5633333 325.192417,91.2750666 330.060307,94.6985845 C334.928196,98.1221024 337.362105,102.645969 337.362105,108.27032 L337.362105,110.837945 L341.378093,91.3973516 L393.951037,91.3973516 L367.664565,216.110594 C366.690987,219.778648 366.204206,223.691182 366.204206,227.848311 C366.204206,238.363401 371.193718,243.620868 381.172891,243.620868 C387.987936,243.620868 393.890164,240.441934 398.879751,234.083973 C403.869337,227.726011 407.824438,219.411878 410.745172,209.141324 L426.078947,209.141324 C417.073352,235.551319 405.938222,253.463385 392.673223,262.878059 C379.408224,272.292734 366.082576,277 352.69588,277 C342.473312,277 334.258872,274.126733 328.052312,268.380114 C321.845753,262.633495 318.134043,254.258229 316.917071,243.254064 C309.858631,253.280081 302.009277,261.410814 293.368773,267.646507 C284.728269,273.8822 274.445007,277 262.518678,277 Z M285.795223,240.066667 C291.909611,240.066667 297.962763,237.231117 303.954863,231.559934 C309.946962,225.88875 314.04354,218.106072 316.24472,208.211667 L333.854067,126.402235 C333.854067,123.264984 332.631208,120.188112 330.185453,117.171525 C327.739698,114.154938 323.948835,112.646667 318.812749,112.646667 C309.02973,112.646667 300.225144,118.257434 292.398728,129.479138 C284.572313,140.700842 278.458017,154.214949 274.055658,170.021866 C269.6533,185.828782 267.452153,199.765205 267.452153,211.831553 C267.452153,223.897901 269.225299,231.620248 272.771643,234.998826 C276.317988,238.377403 280.659138,240.066667 285.795223,240.066667 Z M459.007765,92.3333333 L511.258452,92.3333333 L506.541376,114.88852 C514.766062,107.612617 522.204453,102.034508 528.856773,98.1540267 C535.509093,94.273545 542.705585,92.3333333 550.446466,92.3333333 C558.187348,92.3333333 564.295295,95.0011244 568.770492,100.336787 C573.245689,105.672449 575.483254,112.0994 575.483254,119.617833 C575.483254,126.651206 573.185214,132.835631 568.589066,138.171293 C563.992918,143.506956 557.582597,146.174747 549.35791,146.174747 C544.036055,146.174747 540.468046,144.901483 538.653777,142.354917 C536.839508,139.808351 535.448589,136.109822 534.480979,131.25922 C533.755271,128.106329 533.029575,125.802327 532.303867,124.347147 C531.578159,122.891966 530.247715,122.164387 528.312495,122.164387 C523.232542,122.164387 518.938836,123.195124 515.43125,125.25663 C511.923663,127.318136 507.388058,130.895401 501.8243,135.988533 L472.796141,274.23 L420.545455,274.23 L459.007765,92.3333333 Z M639.677757,277 C625.815895,277 614.264517,272.2316 605.023276,262.694658 C595.782035,253.157715 591.161483,238.241182 591.161483,217.944612 C591.161483,199.848875 594.74849,180.836409 601.922612,160.906644 C609.096733,140.976879 619.796957,124.10408 634.023604,110.28774 C648.250252,96.4713997 665.212539,89.5633333 684.910974,89.5633333 C694.881787,89.5633333 702.298987,91.2750666 707.162798,94.6985845 C712.026609,98.1221024 714.458479,102.645969 714.458479,108.27032 L714.458479,110.837945 L718.471103,91.3973516 L771,91.3973516 L744.735551,216.110594 C743.762789,219.778648 743.276415,223.691182 743.276415,227.848311 C743.276415,232.73905 744.431553,236.22365 746.741863,238.302215 C749.052174,240.380779 752.882367,241.420046 758.23256,241.420046 C761.637227,241.420046 764.312283,240.930979 766.257808,239.952831 C760.907616,253.646903 755.800691,263.244836 750.936879,268.746918 C746.073068,274.249 739.020648,277 729.779407,277 C719.808594,277 711.722629,274.004467 705.52127,268.013311 C699.319911,262.022154 695.489717,253.646888 694.030574,242.88726 C679.19595,265.6292 661.078525,277 639.677757,277 Z M662.994984,240.066667 C669.109371,240.066667 675.162524,237.231117 681.154623,231.559934 C687.146723,225.88875 691.243301,218.106072 693.44448,208.211667 L711.053828,126.402235 C711.053828,123.264984 709.830969,120.188112 707.385214,117.171525 C704.939459,114.154938 701.148596,112.646667 696.01251,112.646667 C686.229491,112.646667 677.424905,118.257434 669.598489,129.479138 C661.772074,140.700842 655.657778,154.214949 651.255419,170.021866 C646.85306,185.828782 644.651914,199.765205 644.651914,211.831553 C644.651914,223.897901 646.42506,231.620248 649.971404,234.998826 C653.517749,238.377403 657.858899,240.066667 662.994984,240.066667 Z" id="Zara's"></path>
                    <path d="M16.7919955,417.204042 C13.4944248,413.958045 10.8713966,410.034465 8.92283211,405.433181 C6.97426763,400.831898 6,395.812391 6,390.374511 C6,384.936631 6.92430518,380.050978 8.77294328,375.717405 C10.6215814,371.383833 13.177993,367.627569 16.4422549,364.448501 C23.4371017,357.688797 32.2138374,354.308996 42.7727253,354.308996 C53.2649956,354.308996 61.8585356,357.638602 68.5536033,364.297914 C75.3485974,371.057617 78.7460435,379.825022 78.7460435,390.600391 C78.7460435,401.342296 75.2653267,410.176628 68.3037886,417.103651 C63.9403366,421.387027 58.5777011,424.348536 52.2157213,425.988266 C49.0513858,426.791399 45.3791463,427.19296 41.1988926,427.19296 C37.0186389,427.19296 32.7301959,426.331278 28.3334351,424.607888 C23.9366742,422.884498 20.0895661,420.416574 16.7919955,417.204042 Z M42.7227623,357.973272 C40.8907787,357.973272 39.1754015,358.107126 37.5765793,358.374837 L37.5765793,423.127119 C39.1087839,423.39483 40.8241611,423.528683 42.7227623,423.528683 C51.6162105,423.528683 59.1105768,420.550443 65.2060862,414.593872 C71.568066,408.403055 74.7490082,400.405308 74.7490082,390.600391 C74.7490082,381.263969 71.7679158,373.500466 65.8056415,367.309648 C59.7767497,361.085367 52.0825336,357.973272 42.7227623,357.973272 Z M104.303754,419.061278 L104.453643,424.080834 C104.453643,424.950895 104.220485,425.620163 103.754161,426.088657 C103.287838,426.557151 102.729924,426.791395 102.080403,426.791395 C101.430881,426.791395 100.889622,426.573883 100.456607,426.138853 C100.023593,425.703822 99.807089,425.226969 99.807089,424.708279 C99.807089,424.189589 99.8487244,423.70437 99.9319963,423.252608 C100.015268,422.800845 100.090212,422.290529 100.15683,421.721643 C100.323374,420.75119 100.406644,418.325095 100.406644,414.443286 L100.406644,352 L154.716362,395.268579 L154.716362,365.352021 C154.716362,363.076477 154.649746,361.453503 154.51651,360.483051 C154.349966,358.910249 154.266696,357.805957 154.266696,357.170143 C154.266696,355.496949 154.982824,354.660365 156.415102,354.660365 C156.981352,354.660365 157.522612,354.861145 158.038898,355.262712 C158.555184,355.664278 158.813323,356.249888 158.813323,357.019557 L158.813323,358.776402 L158.613472,366.054759 L158.613472,429 L104.303754,386.183181 L104.303754,419.061278 Z M264.238462,356.517601 C264.238462,358.056939 262.62301,358.826597 259.392057,358.826597 L247.800654,358.826597 L247.800654,426.239244 L222.219628,426.239244 L222.219628,358.826597 L214.725186,358.826597 C212.160409,358.826597 210.39507,358.943719 209.429115,359.177966 C208.16338,359.445677 207.247402,359.579531 206.681153,359.579531 C204.982404,359.579531 204.133043,358.910263 204.133043,357.571708 C204.133043,355.998906 205.781803,355.212516 209.079374,355.212516 L253.646318,355.212516 C255.944625,355.212516 257.643348,355.112126 258.742538,354.911343 C260.07489,354.677096 261.074139,354.559974 261.740315,354.559974 C263.405755,354.559974 264.238462,355.21251 264.238462,356.517601 Z M336.161782,418.960887 L336.311671,424.080834 C336.311671,424.950895 336.061859,425.620163 335.562227,426.088657 C335.062595,426.557151 334.488027,426.791395 333.838505,426.791395 C333.188984,426.791395 332.672705,426.573883 332.289654,426.138853 C331.906603,425.703822 331.71508,425.151677 331.71508,424.482399 C331.71508,423.813121 331.798351,423.060195 331.964895,422.223598 C332.198057,421.186218 332.314636,418.592806 332.314636,414.443286 L332.314636,377.800522 L307.183276,377.800522 L307.183276,426.239244 L281.652213,426.239244 L281.652213,355.212516 L307.183276,355.212516 L307.183276,374.136245 L324.395509,374.136245 C328.67569,374.136245 331.315372,374.119513 332.314636,374.08605 L332.314636,365.352021 C332.314636,362.440663 332.264673,360.549983 332.164747,359.679922 L331.964895,358.174055 C331.931586,357.70556 331.914932,357.304 331.914932,356.969361 C331.914932,355.430023 332.614406,354.660365 334.013376,354.660365 C334.513008,354.660365 335.029286,354.861145 335.562227,355.262712 C336.095168,355.664278 336.361634,356.333546 336.361634,357.270535 L336.161782,363.695567 L336.161782,373.885267 L339.309448,373.433507 C339.909006,373.433507 340.40863,373.60919 340.808336,373.960561 C341.208041,374.311931 341.407891,374.772053 341.407891,375.340939 C341.407891,376.64603 340.375334,377.382224 338.310189,377.549544 C337.943792,377.616471 337.585728,377.658301 337.235986,377.675033 C336.886243,377.691765 336.528179,377.716862 336.161782,377.750326 L336.161782,418.960887 Z M405.287178,421.922425 C406.985926,421.922425 407.835288,422.591693 407.835288,423.930248 C407.835288,424.532598 407.468897,425.068012 406.736103,425.536506 C406.00331,426.005 404.737595,426.239244 402.93892,426.239244 L360.620308,426.239244 L360.620308,355.212516 L399.991106,355.212516 L404.088067,355.06193 C406.586227,355.06193 407.835288,355.798124 407.835288,357.270535 C407.835288,357.83942 407.627111,358.366469 407.210751,358.851695 C406.794391,359.336921 406.319748,359.579531 405.786807,359.579531 C404.920779,359.579531 404.004801,359.479141 403.038846,359.278357 C401.606567,358.977182 399.641378,358.826597 397.143218,358.826597 L386.101408,358.826597 L386.101408,374.136245 L395.194664,374.136245 L401.340106,373.885267 C402.072899,373.885267 402.69743,374.06095 403.213716,374.412321 C403.730002,374.763691 403.988141,375.257276 403.988141,375.89309 C403.988141,377.298573 403.055509,378.001304 401.190217,378.001304 L399.04181,377.951108 C397.94262,377.850717 397.026642,377.800522 396.293848,377.800522 L386.101408,377.800522 L386.101408,422.574967 L397.143218,422.574967 C399.608069,422.574967 401.356755,422.474577 402.389327,422.273794 C403.621753,422.039547 404.587693,421.922425 405.287178,421.922425 Z M491.326695,401.894394 L495.423656,402.195567 C501.286004,402.195567 506.265594,400.137569 510.362576,396.021512 C514.459557,391.905455 516.508018,386.785559 516.508018,380.661669 C516.508018,372.630338 512.993993,366.673857 505.965837,362.792047 C502.102017,360.650359 497.971788,359.412214 493.575027,359.077575 C491.709735,358.910256 489.977703,358.826597 488.378881,358.826597 L484.981401,358.826597 C484.281917,358.826597 483.665713,358.843329 483.132772,358.876793 L483.132772,426.239244 L457.651672,426.239244 L457.651672,355.212516 L476.587627,355.212516 C481.417402,355.212516 484.565036,355.229248 486.030623,355.262712 C487.49621,355.296176 488.803561,355.338005 489.952714,355.388201 C491.101867,355.438397 492.17606,355.496958 493.175324,355.563885 C494.640911,355.697741 496.714352,356.015643 499.39571,356.517601 C502.077068,357.019559 504.733404,357.973265 507.364799,359.378748 C509.996194,360.784231 512.261158,362.524327 514.159759,364.599087 C518.256741,369.016319 520.305201,374.27007 520.305201,380.360495 C520.305201,386.383994 518.406628,391.704671 514.609426,396.322686 C510.712297,401.041093 505.516203,404.08626 499.020988,405.458279 C502.118706,415.095876 506.065739,420.851577 510.862205,422.725554 C512.327792,423.29444 513.793357,423.578879 515.258944,423.578879 L519.206016,422.625163 C520.438442,422.625163 521.054645,423.260967 521.054645,424.532595 C521.054645,426.30618 518.989531,427.19296 514.859241,427.19296 C511.861449,427.19296 509.113515,426.356375 506.615355,424.683181 C502.718226,422.34071 499.404051,417.78969 496.67273,411.029987 L495.223804,407.466102 C494.990643,406.897216 494.782466,406.54585 494.599268,406.411995 C494.416069,406.278139 494.09964,406.211213 493.649972,406.211213 C493.200303,406.211213 492.80893,406.244676 492.475843,406.311604 L491.276732,406.361799 C489.94438,406.361799 489.036729,406.110824 488.553752,405.608866 C488.070774,405.106908 487.829289,404.588225 487.829289,404.052803 C487.829289,402.613856 488.995079,401.894394 491.326695,401.894394 Z M546.86217,417.204042 C543.5646,413.958045 540.941571,410.034465 538.993007,405.433181 C537.044442,400.831898 536.070175,395.812391 536.070175,390.374511 C536.070175,384.936631 536.99448,380.050978 538.843118,375.717405 C540.691756,371.383833 543.248168,367.627569 546.51243,364.448501 C553.507277,357.688797 562.284012,354.308996 572.8429,354.308996 C583.33517,354.308996 591.92871,357.638602 598.623778,364.297914 C605.418772,371.057617 608.816218,379.825022 608.816218,390.600391 C608.816218,401.342296 605.335502,410.176628 598.373963,417.103651 C594.010511,421.387027 588.647876,424.348536 582.285896,425.988266 C579.121561,426.791399 575.449321,427.19296 571.269067,427.19296 C567.088814,427.19296 562.800371,426.331278 558.40361,424.607888 C554.006849,422.884498 550.159741,420.416574 546.86217,417.204042 Z M572.792937,357.973272 C570.960953,357.973272 569.245576,358.107126 567.646754,358.374837 L567.646754,423.127119 C569.178959,423.39483 570.894336,423.528683 572.792937,423.528683 C581.686385,423.528683 589.180752,420.550443 595.276261,414.593872 C601.638241,408.403055 604.819183,400.405308 604.819183,390.600391 C604.819183,381.263969 601.838091,373.500466 595.875816,367.309648 C589.846925,361.085367 582.152708,357.973272 572.792937,357.973272 Z M642.367999,417.304433 C636.27249,417.304433 632.108953,417.254238 629.877264,417.153846 L628.428338,420.61734 C627.995324,421.587793 627.595625,422.608426 627.229228,423.67927 C626.463126,425.75403 625.39726,426.791395 624.0316,426.791395 C623.398733,426.791395 622.882454,426.590615 622.482748,426.189048 C622.083043,425.787482 621.883193,425.369189 621.883193,424.934159 C621.883193,424.197954 622.199622,423.378101 622.832489,422.474576 C623.831753,421.069093 624.814348,419.228608 625.780303,416.953064 C622.915746,416.685353 621.48349,415.848768 621.48349,414.443286 C621.48349,413.037803 622.299543,412.335072 623.931674,412.335072 C624.930938,412.335072 626.096728,412.502389 627.42908,412.837027 L652.360588,352 L686.53524,426.239244 L660.504547,426.239244 L656.357623,417.304433 L642.367999,417.304433 Z M631.476078,413.238592 C634.673722,413.506303 637.538236,413.640156 640.069704,413.640156 L654.708846,413.640156 L642.21811,386.584746 L631.476078,413.238592 Z M704.398657,355.212516 L725.183241,355.212516 C734.8761,355.212516 741.987421,355.898516 746.517417,357.270535 C751.68028,358.876801 755.668949,360.934798 758.483542,363.444589 C761.298135,365.95438 763.50481,368.547792 765.103632,371.224902 C768.367894,376.679514 770,382.870239 770,389.797262 C770,400.706487 766.102929,409.540818 758.308672,416.300522 C752.779412,421.152784 746.26764,424.147756 738.773161,425.285528 C734.609562,425.921342 728.78061,426.239244 721.286132,426.239244 L704.398657,426.239244 L704.398657,355.212516 Z M729.879758,422.073012 C730.412698,422.106476 730.895669,422.123207 731.328683,422.123207 L732.477831,422.123207 C741.504514,422.123207 749.215384,419.295552 755.610673,413.640156 C762.372358,407.683586 765.75315,399.769497 765.75315,389.897653 C765.75315,383.673372 764.270931,378.068256 761.306448,373.082138 C757.009614,365.820477 750.214721,361.420042 740.921568,359.880704 C737.890467,359.378746 734.209901,359.094307 729.879758,359.027379 L729.879758,422.073012 Z" id="ONTHEROAD"></path>
                </g>
                <path d="M242.444,599 C237.493975,593.983975 233.682513,588.060534 231.0095,581.2295 C228.336487,574.398466 227,567.089039 227,559.301 C227,550.984958 228.501485,542.966039 231.5045,535.244 C234.507515,527.521961 238.780972,520.592031 244.325,514.454 C249.869028,508.315969 256.270964,503.498017 263.531,500 L264.818,503.96 C259.669974,506.996015 255.08302,511.582969 251.057,517.721 C247.03098,523.859031 243.896011,530.95396 241.652,539.006 C239.407989,547.05804 238.286,555.340957 238.286,563.855 C238.286,570.125031 238.912994,576.015472 240.167,581.5265 C241.421006,587.037528 243.268988,591.904979 245.711,596.129 L242.444,599 Z M286.268,508.217 C281.845978,510.065009 278.430512,512.836982 276.0215,516.533 C273.612488,520.229018 272.408,524.683974 272.408,529.898 C272.408,532.340012 272.638998,534.039495 273.101,534.9965 C273.563002,535.953505 273.794,536.497999 273.794,536.63 C270.229982,536.63 267.573509,535.887507 265.8245,534.4025 C264.075491,532.917493 263.201,530.459017 263.201,527.027 C263.201,522.802979 264.933483,518.69452 268.3985,514.7015 C271.863517,510.70848 276.301973,507.474512 281.714,504.9995 C287.126027,502.524488 292.537973,501.287 297.95,501.287 C298.874005,501.287 300.193991,501.352999 301.91,501.485 L295.574,530.987 L310.127,530.987 L316.463,501.485 L330.719,501.485 L314.978,575.537 L300.722,575.537 L308.642,538.313 L294.089,538.313 L286.169,575.537 L271.913,575.537 L286.268,508.217 Z M346.328,576.131 C342.565981,576.131 339.431013,574.844013 336.923,572.27 C334.414987,569.695987 333.161,565.670027 333.161,560.192 C333.161,555.307976 334.13449,550.176527 336.0815,544.7975 C338.02851,539.418473 340.932481,534.864519 344.7935,531.1355 C348.654519,527.406481 353.257973,525.542 358.604,525.542 C361.310014,525.542 363.322993,526.003995 364.643,526.928 C365.963007,527.852005 366.623,529.072992 366.623,530.591 L366.623,531.284 L367.712,526.037 L381.968,526.037 L374.84,559.697 C374.575999,560.687005 374.444,561.742994 374.444,562.865 C374.444,565.703014 375.796986,567.122 378.503,567.122 C380.351009,567.122 381.951493,566.264009 383.3045,564.548 C384.657507,562.831991 385.729996,560.588014 386.522,557.816 L390.68,557.816 C388.237988,564.944036 385.218518,569.778487 381.6215,572.3195 C378.024482,574.860513 374.411018,576.131 370.781,576.131 C368.008986,576.131 365.781508,575.355508 364.0985,573.8045 C362.415492,572.253492 361.409002,569.993015 361.079,567.023 C359.16499,569.729014 357.036512,571.923492 354.6935,573.6065 C352.350488,575.289508 349.562016,576.131 346.328,576.131 Z M352.763,566.528 C354.413008,566.528 356.046492,565.752508 357.6635,564.2015 C359.280508,562.650492 360.385997,560.522014 360.98,557.816 L365.732,535.442 C365.732,534.583996 365.402003,533.742504 364.742,532.9175 C364.081997,532.092496 363.059007,531.68 361.673,531.68 C359.032987,531.68 356.657011,533.214485 354.545,536.2835 C352.432989,539.352515 350.783006,543.048478 349.595,547.3715 C348.406994,551.694522 347.813,555.505984 347.813,558.806 C347.813,562.106017 348.291495,564.217995 349.2485,565.142 C350.205505,566.066005 351.376993,566.528 352.763,566.528 Z M402.923,576.131 C399.754984,576.131 397.19751,575.14101 395.2505,573.161 C393.30349,571.18099 392.33,568.21102 392.33,564.251 C392.33,562.600992 392.593997,560.456013 393.122,557.816 L403.715,508.217 L418.367,506.237 L406.982,559.697 C406.717999,560.687005 406.586,561.742994 406.586,562.865 C406.586,564.185007 406.899497,565.125497 407.5265,565.6865 C408.153503,566.247503 409.192993,566.528 410.645,566.528 C412.55901,566.528 414.340992,565.719508 415.991,564.1025 C417.641008,562.485492 418.828996,560.390013 419.555,557.816 L423.713,557.816 C421.270988,564.944036 418.136019,569.778487 414.308,572.3195 C410.479981,574.860513 406.685019,576.131 402.923,576.131 Z M438.035,576.131 C434.272981,576.131 431.138013,574.844013 428.63,572.27 C426.121987,569.695987 424.868,565.670027 424.868,560.192 C424.868,555.307976 425.84149,550.176527 427.7885,544.7975 C429.73551,539.418473 432.639481,534.864519 436.5005,531.1355 C440.361519,527.406481 444.964973,525.542 450.311,525.542 C453.017014,525.542 455.029993,526.003995 456.35,526.928 C457.670007,527.852005 458.33,529.072992 458.33,530.591 L458.33,531.284 L459.419,526.037 L473.675,526.037 L466.547,559.697 C466.282999,560.687005 466.151,561.742994 466.151,562.865 C466.151,565.703014 467.503986,567.122 470.21,567.122 C472.058009,567.122 473.658493,566.264009 475.0115,564.548 C476.364507,562.831991 477.436996,560.588014 478.229,557.816 L482.387,557.816 C479.944988,564.944036 476.925518,569.778487 473.3285,572.3195 C469.731482,574.860513 466.118018,576.131 462.488,576.131 C459.715986,576.131 457.488508,575.355508 455.8055,573.8045 C454.122492,572.253492 453.116002,569.993015 452.786,567.023 C450.87199,569.729014 448.743512,571.923492 446.4005,573.6065 C444.057488,575.289508 441.269016,576.131 438.035,576.131 Z M444.47,566.528 C446.120008,566.528 447.753492,565.752508 449.3705,564.2015 C450.987508,562.650492 452.092997,560.522014 452.687,557.816 L457.439,535.442 C457.439,534.583996 457.109003,533.742504 456.449,532.9175 C455.788997,532.092496 454.766007,531.68 453.38,531.68 C450.739987,531.68 448.364011,533.214485 446.252,536.2835 C444.139989,539.352515 442.490006,543.048478 441.302,547.3715 C440.113994,551.694522 439.52,555.505984 439.52,558.806 C439.52,562.106017 439.998495,564.217995 440.9555,565.142 C441.912505,566.066005 443.083993,566.528 444.47,566.528 Z M494.432,576.131 C491.263984,576.131 488.70651,575.12451 486.7595,573.1115 C484.81249,571.09849 483.839,568.07902 483.839,564.053 C483.839,562.402992 484.102997,560.258013 484.631,557.618 L495.224,508.019 L509.876,506.039 L498.491,559.499 C498.226999,560.489005 498.095,561.445995 498.095,562.37 C498.095,565.010013 499.447986,566.33 502.154,566.33 C503.342006,566.33 504.397995,566.132002 505.322,565.736 C505.057999,569.036017 503.88651,571.593491 501.8075,573.4085 C499.72849,575.223509 497.270014,576.131 494.432,576.131 Z M505.19,595.04 C510.338026,592.003985 514.92498,587.417031 518.951,581.279 C522.97702,575.140969 526.111989,568.04604 528.356,559.994 C530.600011,551.94196 531.722,543.659043 531.722,535.145 C531.722,528.874969 531.095006,522.984528 529.841,517.4735 C528.586994,511.962472 526.739012,507.095021 524.297,502.871 L527.564,500 C532.514025,505.016025 536.308987,510.939466 538.949,517.7705 C541.589013,524.601534 542.909,531.910961 542.909,539.699 C542.909,548.015042 541.407515,556.033961 538.4045,563.756 C535.401485,571.478039 531.144528,578.391469 525.6335,584.4965 C520.122472,590.601531 513.737036,595.435982 506.477,599 L505.19,595.04 Z" id="(Halal)"></path>
            </g>
        </g>
    </g>
</svg>