<?xml version="1.0" encoding="UTF-8"?>
<svg width="585px" height="583px" viewBox="0 0 585 583" version="1.1" xmlns="http://www.w3.org/2000/svg" xmlns:xlink="http://www.w3.org/1999/xlink">
    <!-- Generator: Sketch 55.2 (78181) - https://sketchapp.com -->
    <title>path3729</title>
    <desc>Created with Sketch.</desc>
    <g id="Page-1" stroke="none" stroke-width="1" fill="none" fill-rule="evenodd">
        <g id="Vegan_friendly_icon" fill="#49B62E" fill-rule="nonzero">
            <path d="M292.52344,0.306647 C215.188909,0.306647 141.021707,31.0272095 86.3379343,85.7109793 C31.6541613,140.394749 0.93359,214.561949 0.93359,291.89648 C0.93359,441.706748 114.463272,567.138423 263.53125,582.0332 C263.12697,572.74656 262.51529,562.80553 261.55859,555.79491 C249.83757,469.90381 233.18388,383.95228 205.14258,301.92577 C168.55011,194.88536 90.96875,88.35351 90.96875,88.35351 C90.96875,88.35351 129.17194,104.97022 146.27148,118.85351 C172.0031,139.74528 195.12878,172.33963 212.80859,201.03515 C260.99545,279.24566 295.13867,448.33593 295.13867,448.33593 C295.13867,448.33593 332.96997,345.64489 356.92773,296.55273 C378.21537,252.93194 408.40463,210.16268 432.31055,171.24023 C418.00737,169.46754 405.64869,181.18931 393.81836,191.08984 C377.59372,204.66788 351.94726,249.47265 351.94726,249.47265 C351.94726,249.47265 355.41944,197.49302 361.2832,180.54687 C369.89537,155.6579 387.58998,134.27434 407.90234,123.66991 C422.47431,116.06236 488.92987,104.54862 512.17773,100.67773 C456.906677,37.0476797 376.806612,0.445934927 292.52344,0.306647 C292.52344,0.306647 292.52344,0.306647 292.52344,0.306647 M540.35742,138.65624 C536.53296,168.02125 529.20965,207.64246 516.05078,227.42382 C507.22022,240.69856 483.32019,251.98267 468.94336,258.87499 C445.73259,270.00234 409.86914,271.58788 409.86914,271.58788 C409.86914,271.58788 374.44061,335.94016 362.29883,370.42968 C338.51081,438.00109 322.20643,512.31756 313.63086,579.75585 C313.50425,580.7515 313.39063,581.74431 313.27344,582.73827 C465.870619,571.851165 584.107361,444.881538 584.11133,291.89648 C584.039046,237.744523 568.888515,184.682497 540.35742,138.65624 C540.35742,138.65624 540.35742,138.65624 540.35742,138.65624" id="path3729"></path>
        </g>
    </g>
</svg>